<?xml version="1.0" standalone="no"?>
<!DOCTYPE svg PUBLIC "-//W3C//DTD SVG 1.1//EN" "http://www.w3.org/Graphics/SVG/1.1/DTD/svg11.dtd" >
<svg xmlns="http://www.w3.org/2000/svg">
<metadata>
Created by FontPrep 20130207 at Tue Dec 10 12:09:52 2013
 By Manuela Cammilleri
Copyright (c) 2011 by Ramiz Guseynov. All rights reserved.
</metadata>
<defs>
<font id="b1950fb4b9e479690dab3b5d0663110e" horiz-adv-x='1024' >
  <font-face 
    font-family="DecimaNovaPro"
    font-weight="400"
    font-stretch="normal"
    units-per-em="2048"
    panose-1="2 0 5 3 0 0 0 0 0 0"
    ascent="1536"
    descent="-512"
    x-height="1024"
    cap-height="1434"
    bbox="-119 -389.043 1731 1532"
    underline-thickness="102"
    underline-position="-102"
    unicode-range="U+0020-007E"
  />
<missing-glyph horiz-adv-x="1024" 
 />
    <glyph glyph-name=".notdef" horiz-adv-x="1024" 
 />
    <glyph glyph-name=".null" horiz-adv-x="0" 
 />
    <glyph glyph-name="nonmarkingreturn" horiz-adv-x="681" 
 />
    <glyph glyph-name="space" unicode=" " horiz-adv-x="450" 
 />
    <glyph glyph-name="exclam" unicode="!" horiz-adv-x="544" 
d="M360 1434l-14 -1049h-147l-15 1049h176zM188 0v201h168v-201h-168z" />
    <glyph glyph-name="quotedbl" unicode="&#x22;" horiz-adv-x="684" 
d="M416 973v461h145l-20 -461h-125zM123 973v461h145l-20 -461h-125z" />
    <glyph glyph-name="numbersign" unicode="#" 
d="M432 870l-43 -307h367l43 307h-367zM92 870v154h219l60 410h143l-59 -410h366l60 410h143l-59 -410h194v-154h-217l-43 -307h197v-153h-219l-60 -410h-143l59 410h-366l-60 -410h-143l59 410h-194v153h217l43 307h-197z" />
    <glyph glyph-name="dollar" unicode="$" 
d="M496 -98v106q-72 2 -163 16t-128 25l-41 10l6 146q186 -41 377 -41t261 49t71 164q0 115 -79 175t-182 83q-166 47 -217 63q-106 33 -184 121q-76 88 -76 234q0 328 355 368v111h161v-109q74 -2 154 -14t109 -23l24 -10l-8 -143q-172 37 -350 37q-276 0 -277 -211
q0 -103 73 -157t187 -87q113 -27 217 -59t185 -121q76 -88 76 -249q0 -338 -390 -374v-110h-161z" />
    <glyph glyph-name="percent" unicode="%" horiz-adv-x="1814" 
d="M1501 246v219q0 70 -45 108q-47 37 -117 37q-71 0 -113 -39t-42 -106v-217q0 -68 43 -107t115 -39t116 37q43 41 43 107zM1651 449v-185q0 -127 -88 -207t-213 -80h-15q-123 0 -213 80q-86 84 -86 207v185q0 127 88 207t211 79h15q125 1 213 -79t88 -207zM504 0l653 1434
h152l-650 -1434h-155zM629 965v219q0 70 -45 108t-117 37q-72 0 -114 -38t-42 -107v-217q0 -70 42 -108t115 -38t117 38t44 106zM778 1167v-184q0 -127 -88 -207t-213 -80h-14q-125 0 -212 81t-87 206v184q0 127 86 207q88 80 213 80h14q125 0 213 -80t88 -207z" />
    <glyph glyph-name="ampersand" unicode="&#x26;" horiz-adv-x="1185" 
d="M604 135q121 0 193 45l-305 563q-90 -12 -136 -75q-49 -61 -49 -214q1 -153 65 -236t232 -83zM915 465v199h158v-203q0 -188 -88 -307l84 -154h-174l-27 47q-119 -68 -272 -67q-72 0 -158 20q-82 27 -152 77t-110 148q-43 98 -43 236q0 340 287 418l-203 374v181h778
v-158h-608v-12l510 -947q18 64 18 148z" />
    <glyph glyph-name="quotesingle" unicode="'" horiz-adv-x="391" 
d="M123 973v461h145l-20 -461h-125z" />
    <glyph glyph-name="parenleft" unicode="(" horiz-adv-x="669" 
d="M578 -227v-162q-168 0 -287 110q-117 111 -117 269v1089q0 156 117 267q119 111 287 110v-166q-100 0 -167 -61t-67 -152v-1089q0 -92 66 -154q68 -61 168 -61z" />
    <glyph glyph-name="parenright" unicode=")" horiz-adv-x="671" 
d="M92 -389v162q100 0 166 61t66 154v1089q0 93 -66 153t-166 60v166q166 0 287 -110q119 -111 119 -267v-1089q0 -156 -119 -269q-121 -110 -287 -110z" />
    <glyph glyph-name="asterisk" unicode="*" horiz-adv-x="921" 
d="M535 1434v-256l243 79l41 -137l-241 -78l151 -206l-117 -82l-147 202l-150 -208l-114 86l149 202l-248 82l45 135l246 -79v260h142z" />
    <glyph glyph-name="plus" unicode="+" 
d="M514 1040h160v-364h373v-154h-373v-366h-160v366h-373v154h373v364z" />
    <glyph glyph-name="comma" unicode="," horiz-adv-x="497" 
d="M160 0v201h174v-185q0 -139 -60 -197t-135 -59v78q45 0 70 37q23 39 22 92l-2 33h-69z" />
    <glyph glyph-name="hyphen" unicode="-" horiz-adv-x="765" 
d="M633 676v-154h-500v154h500z" />
    <glyph glyph-name="period" unicode="." horiz-adv-x="495" 
d="M164 0v201h168v-201h-168z" />
    <glyph glyph-name="slash" unicode="/" horiz-adv-x="655" 
d="M41 0l408 1434h165l-409 -1434h-164z" />
    <glyph glyph-name="zero" unicode="0" 
d="M594 1296q-141 0 -227 -82t-88 -206q-6 -291 0 -582q2 -123 86 -206t227 -83t226 83t85 206q6 291 0 582q-2 123 -84 206q-84 82 -225 82zM597 1454q210 0 339 -127q133 -124 137 -319q6 -291 0 -582q-2 -193 -137 -320q-135 -126 -346 -126t-340 126q-133 125 -137 320
q-6 291 0 582q2 194 138 320t346 126z" />
    <glyph glyph-name="one" unicode="1" 
d="M164 0v160h399v1114l-373 -158v154l361 164h184v-1274h332v-160h-903z" />
    <glyph glyph-name="two" unicode="2" 
d="M568 1454q476 0 474 -410q0 -147 -43 -229t-153 -180l-527 -467v-8h728v-160h-908v217l561 508q102 91 136 155t32 171q0 246 -307 245q-134 0 -313 -32l-49 -11l-9 152q154 49 378 49z" />
    <glyph glyph-name="three" unicode="3" 
d="M154 1274v160h831v-152l-342 -410q147 -12 260 -90q139 -100 139 -330q0 -124 -47 -226t-126 -151q-153 -97 -320 -95q-117 0 -221 12t-142 24l-41 15l9 153q193 -47 387 -47q328 0 327 328q0 138 -77 201q-60 55 -259 55h-94v147l324 398v8h-608z" />
    <glyph glyph-name="four" unicode="4" 
d="M80 303v160l518 971h188l-524 -971h522v375h172v-375h152v-160h-152v-303h-172v303h-704z" />
    <glyph glyph-name="five" unicode="5" 
d="M543 135q178 0 256 74q73 79 73 237t-65 230q-68 72 -244 72q-80 0 -169 -23t-128 -39l-49 -20l-78 122l47 646h793v-162h-637l-29 -418q129 49 275 49q459 0 459 -444q0 -217 -123 -348t-392 -131q-218 0 -344 36l-41 15l9 153q209 -49 387 -49z" />
    <glyph glyph-name="six" unicode="6" 
d="M596 135q307 0 307 318q1 152 -71 222t-228 70q-124 -6 -276 -57l-43 -18q0 -176 2 -224q4 -133 81 -222t228 -89zM600 1298q-146 0 -227 -90q-82 -86 -86 -221l-2 -164q170 80 331 80q223 0 342 -112q117 -117 117 -339t-132 -348t-350 -127t-347 135t-131 334
q-6 262 0 541q4 201 133 334t358 133q140 0 312 -33l51 -12l-6 -152q-217 41 -363 41z" />
    <glyph glyph-name="seven" unicode="7" 
d="M174 1276v158h840v-181l-559 -1253h-174l563 1264v12h-670z" />
    <glyph glyph-name="eight" unicode="8" 
d="M889 1064q0 108 -81 170t-215 62t-216 -59q-78 -61 -78 -170t78 -179t215 -71q137 0 215 70q82 69 82 177zM595 137q138 1 231 59q94 58 94 188t-98 203t-227 73q-130 0 -228 -72q-99 -72 -99 -203t94 -189t233 -59zM1059 1073q0 -221 -180 -334q109 -69 161 -151
t52 -209q0 -199 -140 -299t-359 -100q-218 0 -357 98t-140 301q0 127 52 210t161 150q-180 119 -180 334q0 165 126 273t336 108t339 -106q129 -111 129 -275z" />
    <glyph glyph-name="nine" unicode="9" 
d="M590 1296q-307 0 -307 -317q-1 -153 71 -223t228 -70q151 7 274 59l45 17q0 176 -2 223q-2 129 -81 220t-228 91zM585 133q145 0 229 90t85 221l2 164q-168 -80 -332 -80q-227 0 -342 115q-117 111 -117 335t133 350q132 126 350 126t346 -134t132 -335q6 -260 0 -541
q-4 -202 -133 -334t-358 -133q-152 0 -310 35l-53 11l6 151q217 -41 362 -41z" />
    <glyph glyph-name="colon" unicode=":" horiz-adv-x="495" 
d="M164 823v201h168v-201h-168zM164 0v201h168v-201h-168z" />
    <glyph glyph-name="semicolon" unicode=";" horiz-adv-x="471" 
d="M160 0v201h174v-185q0 -139 -60 -197t-135 -59v78q45 0 70 37q23 39 22 92l-2 33h-69zM164 823v201h168v-201h-168z" />
    <glyph glyph-name="less" unicode="&#x3c;" 
d="M139 524v150l908 446v-176l-730 -346l730 -344v-176z" />
    <glyph glyph-name="equal" unicode="=" 
d="M1047 885v-154h-908v154h908zM1047 465v-154h-908v154h908z" />
    <glyph glyph-name="greater" unicode="&#x3e;" 
d="M1047 674v-150l-908 -446v176l729 346l-729 344v176z" />
    <glyph glyph-name="question" unicode="?" horiz-adv-x="1077" 
d="M319 0v201h168v-201h-168zM483 387h-159q0 217 94 309q41 39 94 70l98 49q122 41 162 127q27 47 27 129q0 223 -305 223q-152 0 -330 -30l-53 -11l-19 146q162 55 392 55t360 -96q131 -96 131 -279q0 -106 -28 -180q-29 -74 -67 -109q-38 -34 -103 -68t-109 -52t-85 -48
q-42 -28 -71 -88t-29 -147z" />
    <glyph glyph-name="at" unicode="@" horiz-adv-x="1769" 
d="M818 170q66 0 135 22t100 37l37 19v575q-80 37 -228 37q-92 0 -143 -52t-53 -126q-6 -170 0 -340q2 -74 44 -123t108 -49zM1350 39q-66 -1 -120 25t-71 51l-20 24q-175 -100 -317 -100t-220 83q-78 82 -82 236t2 334q2 129 90 217q88 82 259 82t313 -45l49 -14v-631
q0 -63 31 -98t90 -35t84 45q20 49 24 181t-2 505q-2 170 -154 289t-417 119q-266 0 -418 -119q-158 -119 -162 -289q-12 -356 0 -713q2 -168 158 -288t420 -119q168 0 340 33l51 12l29 -146q-207 -47 -420 -47q-328 0 -528 167t-209 411q-8 334 0 668q10 245 212 411
t528 166q325 0 525 -168q203 -166 207 -409q6 -301 0 -525q-4 -164 -86 -237q-77 -76 -186 -76z" />
    <glyph glyph-name="A" unicode="A" horiz-adv-x="1243" 
d="M846 569l-219 709h-15l-219 -709h453zM492 1434h256l454 -1434h-182l-127 416h-545l-127 -416h-180z" />
    <glyph glyph-name="B" unicode="B" horiz-adv-x="1208" 
d="M336 668v-510h311q162 0 224 58t63 196q0 256 -254 256h-344zM705 1276h-369v-453h344q102 0 172 60q63 59 63 165t-54 168q-54 60 -156 60zM682 1434q199 0 299 -100t100 -277q0 -61 -17 -119q-39 -133 -155 -188q17 -6 33 -16l37 -25q37 -33 57 -62q23 -27 49 -98
q20 -68 21 -137q0 -412 -469 -412h-473v1434h518z" />
    <glyph glyph-name="C" unicode="C" horiz-adv-x="1120" 
d="M659 -20q-229 0 -374 133t-148 333q-6 270 0 541q1 195 147 331t375 136q154 0 308 -37l51 -10l-6 -152q-221 39 -364 39q-142 0 -236 -90t-99 -217q-6 -270 0 -541q4 -131 97 -217q90 -90 249 -90q78 0 299 31l64 10l6 -151q-203 -49 -369 -49z" />
    <glyph glyph-name="D" unicode="D" horiz-adv-x="1273" 
d="M614 1274h-288v-1114h288q160 0 251 80t96 206q6 270 0 541q-2 125 -97 205q-90 82 -250 82zM154 0v1434h460q233 0 373 -127q145 -123 150 -320q6 -270 0 -541q-4 -197 -146 -319q-141 -127 -377 -127h-460z" />
    <glyph glyph-name="E" unicode="E" horiz-adv-x="1183" 
d="M164 1434h897v-160h-725v-451h661v-157h-661v-504h745v-162h-917v1434z" />
    <glyph glyph-name="F" unicode="F" horiz-adv-x="1132" 
d="M164 1434h897v-160h-725v-475h661v-160h-661v-639h-172v1434z" />
    <glyph glyph-name="G" unicode="G" horiz-adv-x="1271" 
d="M686 580v157h442v-682q-226 -75 -462 -75t-381 133t-148 333q-6 270 0 541q1 195 147 331t377 136t388 -37l53 -14l-8 -152q-217 43 -435 43q-153 0 -247 -90t-99 -217q-6 -270 0 -541q3 -129 97 -219t249 -90q74 0 148 6q90 12 111 17l38 6v414h-270z" />
    <glyph glyph-name="H" unicode="H" horiz-adv-x="1343" 
d="M1008 1434h172v-1434h-172v666h-672v-666h-172v1434h172v-611h672v611z" />
    <glyph glyph-name="I" unicode="I" horiz-adv-x="499" 
d="M336 1434v-1434h-172v1434h172z" />
    <glyph glyph-name="J" unicode="J" horiz-adv-x="624" 
d="M45 139q102 -4 144 -4t81 41q21 30 29 115v1143h172v-1125q0 -174 -76 -252t-194 -77q-77 0 -138 16l-22 4z" />
    <glyph glyph-name="K" unicode="K" horiz-adv-x="1165" 
d="M336 0h-172v1434h172v-684l545 684h206l-552 -682l589 -752h-211l-577 750v-750z" />
    <glyph glyph-name="L" unicode="L" horiz-adv-x="1024" 
d="M164 1434h174v-1272h645v-162h-819v1434z" />
    <glyph glyph-name="M" unicode="M" horiz-adv-x="1554" 
d="M1391 1434v-1434h-172v1087l6 117l-64 -131l-293 -491h-182l-293 491l-63 131l6 -117v-1087h-172v1434h205l407 -705l410 705h205z" />
    <glyph glyph-name="N" unicode="N" horiz-adv-x="1343" 
d="M1010 1434h170v-1434h-203l-594 1063l-57 133l8 -139v-1057h-170v1434h203l596 -1065l55 -131l-8 137v1059z" />
    <glyph glyph-name="O" unicode="O" horiz-adv-x="1316" 
d="M659 1300q-157 0 -251 -90t-99 -221q-6 -272 0 -545q1 -131 97 -221t252 -90t250 91q92 91 96 220q6 272 0 545q-2 129 -95 221q-94 90 -250 90zM658 -20q-228 0 -373 133t-148 333q-6 270 0 541q1 195 147 331t375 136t373 -133t148 -334q6 -270 0 -541
q-2 -195 -148 -331q-146 -135 -374 -135z" />
    <glyph glyph-name="P" unicode="P" horiz-adv-x="1171" 
d="M721 1274h-385v-617h385q176 0 188 156q10 152 0 305q-8 156 -188 156zM164 0v1434h553q172 0 262 -91q94 -84 104 -230q10 -147 0 -293t-104 -234t-262 -88h-381v-498h-172z" />
    <glyph glyph-name="Q" unicode="Q" horiz-adv-x="1316" 
d="M659 135q59 0 107 17q51 10 82 28l26 17q-100 80 -215 79q-57 0 -112 -18q-63 -25 -84 -41l-27 -18q88 -64 223 -64zM659 1300q-157 0 -253 -92t-99 -219q-11 -512 8 -618q12 -36 27 -60q30 25 46 36t100 43t172 32q87 0 159 -29q76 -25 115 -53l37 -29q31 43 35 131
q6 274 0 547q-2 131 -96 221t-251 90zM659 1454q229 0 373 -133t148 -334q6 -270 0 -541q-4 -139 -80 -249l121 -142l-125 -94l-105 121q-143 -102 -352 -102t-354 133t-148 333q-6 270 0 541q1 195 147 331t375 136z" />
    <glyph glyph-name="R" unicode="R" horiz-adv-x="1236" 
d="M721 1274h-385v-592h385q176 0 188 156q10 139 0 280q-8 156 -188 156zM336 522v-522h-172v1434h553q172 0 262 -91q94 -84 104 -224t2 -265q-9 -125 -73 -208t-174 -109l297 -537h-191l-280 522h-328z" />
    <glyph glyph-name="S" unicode="S" horiz-adv-x="1183" 
d="M594 1294q-305 0 -305 -223q0 -105 81 -163t203 -89q78 -16 234 -61q121 -37 203 -127t82 -244q0 -408 -529 -407q-187 0 -370 36l-56 15l8 153q201 -45 403 -45q202 1 285 53t83 186t-128 195q-127 61 -236 83q-197 39 -314 126q-54 37 -90 112t-35 171q0 197 133 291
q129 98 350 98t354 -37l45 -10l-8 -152q-215 39 -393 39z" />
    <glyph glyph-name="T" unicode="T" horiz-adv-x="1034" 
d="M41 1274v160h952v-160h-391v-1274h-172v1274h-389z" />
    <glyph glyph-name="U" unicode="U" horiz-adv-x="1349" 
d="M1024 1434h172v-988q0 -197 -147 -331q-143 -135 -375 -135t-376 135t-144 331v988h172v-988q0 -129 95 -218t253 -89t254 90t96 217v988z" />
    <glyph glyph-name="V" unicode="V" horiz-adv-x="1202" 
d="M219 1434l377 -1278h10l377 1278h178l-430 -1434h-260l-430 1434h178z" />
    <glyph glyph-name="W" unicode="W" horiz-adv-x="1812" 
d="M1339 291l213 1143h179l-281 -1434h-256l-250 1044l-33 226h-10l-31 -226l-252 -1044h-256l-280 1434h178l213 -1143l16 -135h9l24 143l264 1135h240l264 -1135l25 -143h8z" />
    <glyph glyph-name="X" unicode="X" horiz-adv-x="1245" 
d="M268 1434l355 -553l354 553h194l-448 -699l481 -735h-196l-385 598l-385 -598h-197l481 735l-448 699h194z" />
    <glyph glyph-name="Y" unicode="Y" horiz-adv-x="1196" 
d="M684 0h-172v582l-481 852h196l371 -680l369 680h198l-481 -852v-582z" />
    <glyph glyph-name="Z" unicode="Z" horiz-adv-x="1202" 
d="M303 160h797v-160h-998v172l785 1094v8h-768v160h973v-172l-789 -1094v-8z" />
    <glyph glyph-name="bracketleft" unicode="[" horiz-adv-x="669" 
d="M578 -205v-162h-404v1801h404v-166h-234v-1473h234z" />
    <glyph glyph-name="backslash" unicode="\" horiz-adv-x="655" 
d="M207 1434l407 -1434h-163l-410 1434h166z" />
    <glyph glyph-name="bracketright" unicode="]" horiz-adv-x="669" 
d="M92 -367v162h234v1473h-234v166h404v-1801h-404z" />
    <glyph glyph-name="asciicircum" unicode="^" horiz-adv-x="1021" 
d="M442 1434h140l338 -756h-162l-246 561l-248 -561h-162z" />
    <glyph glyph-name="underscore" unicode="_" horiz-adv-x="1181" 
d="M0 -154h1182v-137h-1182v137z" />
    <glyph glyph-name="grave" unicode="`" horiz-adv-x="471" 
d="M471 1151h-182l-289 283h233z" />
    <glyph glyph-name="a" unicode="a" horiz-adv-x="1013" 
d="M416 127q116 0 264 104l43 35v219h-305q-156 0 -156 -179t154 -179zM102 298q0 142 78 239q80 94 230 94h313v69q0 84 -55 140q-54 59 -142 59t-161 -10q-78 -6 -140 -17l-55 -10l-14 139q194 43 364 43t266 -94q94 -98 95 -237v-713h-146l-10 90q-68 -45 -157 -78
t-158 -32q-143 0 -226 88q-82 88 -82 230z" />
    <glyph glyph-name="b" unicode="b" horiz-adv-x="1058" 
d="M606 893q-70 0 -147 -21q-80 -29 -115 -45l-43 -20v-657q88 -25 254 -25q103 1 159 59t58 140q6 188 0 376q-4 84 -49 140q-47 53 -117 53zM143 1434h158v-473q145 77 300 77t241 -90t90 -235q6 -201 0 -402q-4 -147 -101 -239q-93 -92 -283 -92q-191 0 -349 36l-56 15
v1403z" />
    <glyph glyph-name="c" unicode="c" horiz-adv-x="860" 
d="M520 899q-112 0 -172 -57q-59 -61 -61 -137q-6 -193 0 -386q2 -78 61 -139q60 -55 148 -55t160 9t89 16l33 8l21 -144q-135 -34 -304 -34t-267 93t-101 238q-6 201 0 402q2 141 102 236t260 95t256 -18l37 -6l-14 -146q-136 25 -248 25z" />
    <glyph glyph-name="d" unicode="d" horiz-adv-x="1058" 
d="M452 125q74 0 147 26t114 50l45 24v627q-88 45 -254 45q-100 -1 -156 -59t-61 -144q-6 -188 0 -377q4 -86 49 -137q42 -55 116 -55zM915 1434v-1434h-147l-10 72q-147 -92 -303 -92t-241 91t-87 234q-6 201 0 402q2 143 98 239t279 96q95 0 217 -30l37 -11v433h157z" />
    <glyph glyph-name="e" unicode="e" horiz-adv-x="997" 
d="M727 596q0 82 -2 104q-2 82 -63 140q-56 59 -154 59t-158 -55q-61 -62 -63 -144l-2 -104h442zM508 -20q-178 0 -275 94q-100 92 -106 237q-4 177 -4 199t4 203q6 137 109 237q104 94 271 94t272 -96t106 -235v-262h-600q0 -98 2 -127q2 -80 61 -140t179 -59q120 0 264 31
l45 10l20 -137q-119 -49 -348 -49z" />
    <glyph glyph-name="f" unicode="f" horiz-adv-x="698" 
d="M356 1159v-135h293v-145h-293v-879h-159v879h-156v145h156v147q0 127 73 205q74 78 207 78l168 -12l33 -6l-10 -140q-96 12 -193 13q-119 0 -119 -150z" />
    <glyph glyph-name="g" unicode="g" horiz-adv-x="962" 
d="M647 600v137q0 70 -53 113q-54 43 -148 43t-148 -44t-54 -112v-137q0 -68 56 -111t148 -43t146 43q53 43 53 111zM805 743v-149q0 -106 -76 -188q-80 -80 -205 -99v-53q0 -39 45 -66l199 -108q63 -33 92 -84q31 -45 31 -135q1 -91 -65 -149t-154 -80t-200 -21
q-112 0 -208 21t-141 46l-41 23l39 131q159 -78 317 -78t226 25q68 20 67 88q0 39 -10 59q-12 14 -41 31l-250 131q-70 37 -70 152v69q-130 23 -202 100t-72 185v149q0 125 96 211q98 82 267 82q82 0 137 -20l51 63q49 61 139 62l125 -13l-16 -127h-78q-43 0 -64 -26
l-26 -33q88 -82 88 -199z" />
    <glyph glyph-name="h" unicode="h" horiz-adv-x="1064" 
d="M303 0h-160v1434h160v-480q153 84 309 84t236 -90q84 -86 84 -235v-713h-160v700q0 84 -43 138t-113 55q-135 0 -268 -70l-45 -22v-801z" />
    <glyph glyph-name="i" unicode="i" horiz-adv-x="456" 
d="M143 1233v201h170v-201h-170zM147 0v1024h160v-1024h-160z" />
    <glyph glyph-name="j" unicode="j" horiz-adv-x="460" 
d="M309 1024v-1130q1 -127 -73 -205t-207 -78q-63 0 -127 12l-21 6l10 140q43 -12 140 -13q121 0 121 150v1118h157zM147 1233v201h170v-201h-170z" />
    <glyph glyph-name="k" unicode="k" horiz-adv-x="925" 
d="M143 0v1434h158v-893l397 483h187l-402 -483l432 -541h-190l-424 541v-541h-158z" />
    <glyph glyph-name="l" unicode="l" horiz-adv-x="444" 
d="M143 0v1434h158v-1434h-158z" />
    <glyph glyph-name="m" unicode="m" horiz-adv-x="1515" 
d="M846 0h-160v729q0 68 -39 119q-43 51 -102 51t-119 -27t-90 -49l-35 -24v-799h-158v1024h150l8 -76q133 96 262 96q63 0 121 -30t78 -60l22 -28q2 2 10 8t28 22q19 16 96 53q76 36 145 35q143 0 231 -88t88 -243v-713h-159v700q0 86 -46 142t-122 57q-45 1 -97 -23
t-81 -49l-31 -24v-803z" />
    <glyph glyph-name="n" unicode="n" horiz-adv-x="1064" 
d="M303 0h-160v1024h150l10 -70q145 90 305 90t240 -94q84 -90 84 -237v-713h-160v700q0 82 -43 140t-115 59q-72 0 -149 -25q-76 -25 -119 -49l-43 -24v-801z" />
    <glyph glyph-name="o" unicode="o" horiz-adv-x="1052" 
d="M526 899q-109 0 -172 -55t-67 -139q-8 -193 0 -386q4 -88 67 -141q64 -53 172 -53t172 54t68 140q8 193 0 386q-4 88 -68 139q-63 55 -172 55zM520 -20q-182 0 -285 93t-108 238q-6 201 0 402q2 141 111 237q102 94 282 94t292 -96t114 -235q6 -201 0 -402
q-2 -137 -113 -237q-111 -94 -293 -94z" />
    <glyph glyph-name="p" unicode="p" horiz-adv-x="1058" 
d="M604 899q-112 0 -260 -76l-43 -24v-627q88 -43 254 -43q98 0 158 59q55 60 59 144q6 188 0 377q-4 84 -47 137q-47 53 -121 53zM143 -369v1393h148l10 -72q147 92 304 92t240 -89t87 -234q6 -201 0 -402q-2 -147 -101 -241q-92 -94 -276 -94q-31 0 -117 8q-78 14 -100 20
l-37 11v-392h-158z" />
    <glyph glyph-name="q" unicode="q" horiz-adv-x="1058" 
d="M452 131q70 0 148 21q80 29 115 45l43 20v657q-88 25 -254 25q-102 -1 -158 -59t-59 -140q-6 -188 0 -376q4 -84 49 -140q46 -53 116 -53zM915 -369h-157v432q-145 -77 -300 -77t-241 90t-90 235q-6 201 0 402q2 143 98 239q98 92 282 92t353 -36l55 -15v-1362z" />
    <glyph glyph-name="r" unicode="r" horiz-adv-x="645" 
d="M625 1044v-145q-84 0 -165 -45t-118 -88l-39 -43v-723h-160v1024h150l6 -125q33 31 53 49t103 56q84 40 170 40z" />
    <glyph glyph-name="s" unicode="s" horiz-adv-x="903" 
d="M479 899q-217 0 -217 -141q0 -111 197 -158q111 -30 179 -52t126 -87q57 -65 57 -176q0 -305 -385 -305q-151 0 -280 36l-43 13l20 139q158 -43 289 -43t184 36q53 37 53 109t-56 110t-149 62t-164 48t-129 88q-59 64 -59 193q0 128 96 201t257 72q49 0 151 -8
q84 -14 115 -20l37 -8l-17 -142q-152 33 -262 33z" />
    <glyph glyph-name="t" unicode="t" horiz-adv-x="690" 
d="M436 -20q-112 0 -174 73q-66 72 -65 193v633h-156v145h156v246h159v-246h293v-145h-293v-605q0 -150 109 -149l84 2q16 2 38 5t27 3l21 2l10 -139q-97 -18 -209 -18z" />
    <glyph glyph-name="u" unicode="u" horiz-adv-x="1064" 
d="M762 1024h160v-1024h-150l-10 70q-145 -90 -305 -90t-240 94q-84 90 -84 237v713h160v-700q0 -82 43 -140q44 -58 116 -59q72 0 148 25t119 49l43 24v801z" />
    <glyph glyph-name="v" unicode="v" horiz-adv-x="933" 
d="M199 1024l264 -903h8l266 903h166l-313 -1024h-246l-313 1024h168z" />
    <glyph glyph-name="w" unicode="w" horiz-adv-x="1363" 
d="M1006 127l129 897h168l-170 -1024h-254l-193 854h-8l-193 -854h-254l-170 1024h168l129 -897h9l208 897h213l209 -897h9z" />
    <glyph glyph-name="x" unicode="x" horiz-adv-x="954" 
d="M246 1024l231 -367l232 367h182l-322 -492l344 -532h-180l-256 401l-256 -401h-180l344 532l-322 492h183z" />
    <glyph glyph-name="y" unicode="y" horiz-adv-x="1005" 
d="M389 41l-348 983h178l277 -813h8l301 813h170l-535 -1393h-166l154 396z" />
    <glyph glyph-name="z" unicode="z" horiz-adv-x="886" 
d="M272 145h533v-145h-723v150l526 720v9h-504v145h693v-147l-525 -723v-9z" />
    <glyph glyph-name="braceleft" unicode="{" horiz-adv-x="686" 
d="M594 -227v-162q-168 1 -285 111t-116 268v387q0 37 -33 63t-78 27v154q45 1 78 27t33 61v370q0 158 116 269q119 109 285 108v-166q-98 0 -164 -61t-65 -152v-348q0 -119 -119 -188q119 -63 119 -187v-366q0 -92 65 -154q66 -61 164 -61z" />
    <glyph glyph-name="bar" unicode="|" horiz-adv-x="481" 
d="M174 -369v1803h133v-1803h-133z" />
    <glyph glyph-name="braceright" unicode="}" horiz-adv-x="686" 
d="M92 -389v162q100 0 165 61t65 154v366q0 123 118 187q-119 70 -118 188v348q0 89 -64 151t-166 62v166q166 0 285 -108q117 -111 117 -269v-370q0 -35 32 -62t78 -26v-154q-45 0 -78 -27t-32 -63v-387q0 -158 -117 -268t-285 -111z" />
    <glyph glyph-name="asciitilde" unicode="~" horiz-adv-x="1220" 
d="M430 750q66 0 194 -75t189 -75q31 0 55 18q25 12 35 24t45 60l33 50l117 -76q-6 -6 -43 -65t-84 -99q-33 -37 -78 -49q-35 -17 -101 -17t-195 75q-128 75 -189 75q-31 0 -56 -18q-25 -12 -35 -24t-45 -60l-32 -50l-117 76q6 6 43 65t84 99q33 37 78 49q36 17 102 17z" />
  </font>
</defs>
</svg>
