<?xml version="1.0" standalone="no"?>
<!DOCTYPE svg PUBLIC "-//W3C//DTD SVG 1.1//EN" "http://www.w3.org/Graphics/SVG/1.1/DTD/svg11.dtd" >
<svg xmlns="http://www.w3.org/2000/svg">
<metadata>
Created by FontPrep 20130207 at Tue Dec 10 12:09:34 2013
 By Manuela Cammilleri
Copyright (c) 2011 by Ramiz Guseynov. All rights reserved.
</metadata>
<defs>
<font id="6fbc0ec4ff31c511bef61f2c52c2f893" horiz-adv-x='1024' >
  <font-face 
    font-family="DecimaNovaPro-BoldItalic"
    font-weight="700"
    font-style="italic"
    font-stretch="normal"
    units-per-em="2048"
    panose-1="2 0 8 3 0 0 0 0 0 0"
    ascent="1536"
    descent="-512"
    x-height="1024"
    cap-height="1434"
    bbox="-180 -389.009 1933 1532"
    underline-thickness="102"
    underline-position="-102"
    unicode-range="U+0020-007E"
  />
<missing-glyph horiz-adv-x="1024" 
 />
    <glyph glyph-name=".notdef" horiz-adv-x="1024" 
 />
    <glyph glyph-name=".null" horiz-adv-x="0" 
 />
    <glyph glyph-name="nonmarkingreturn" horiz-adv-x="681" 
 />
    <glyph glyph-name="space" unicode=" " horiz-adv-x="450" 
 />
    <glyph glyph-name="exclam" unicode="!" horiz-adv-x="618" 
d="M143 0l33 231h232l-33 -231h-232zM584 1434l-172 -1049h-201l123 1049h250z" />
    <glyph glyph-name="quotedbl" unicode="&#x22;" horiz-adv-x="808" 
d="M526 952l68 482h209l-98 -482h-179zM172 952l68 482h211l-99 -482h-180z" />
    <glyph glyph-name="numbersign" unicode="#" 
d="M500 838l-68 -240h262l68 240h-262zM131 838l31 217h209l108 379h191l-109 -379h264l107 379h190l-106 -379h170l-31 -217h-203l-65 -240h174l-31 -219h-207l-108 -379h-191l109 379h-262l-109 -379h-190l108 379h-176l31 219h207l67 240h-178z" />
    <glyph glyph-name="dollar" unicode="$" 
d="M199 961q0 180 107 301t292 155l16 115h232l-17 -111q142 -10 240 -43l29 -10l-41 -213q-201 45 -333 45t-210 -41q-76 -43 -76 -145q0 -72 66 -111q66 -43 152 -62t184 -53t159 -106q66 -72 66 -193q0 -199 -111 -323q-113 -123 -321 -152l-17 -112h-231l16 108
q-78 2 -153 19q-82 12 -119 24l-41 10l39 218q215 -49 389 -50q230 0 283 93q25 41 25 103t-46 103q-52 42 -94 54t-172 51q-100 37 -163 63t-103 97q-47 66 -47 166z" />
    <glyph glyph-name="percent" unicode="%" horiz-adv-x="1914" 
d="M1404 160q100 0 118 96q32 164 32 222t-26 75q-25 23 -72 22q-102 0 -119 -96q-33 -190 -32 -239q-1 -80 99 -80zM1094 238q0 56 23 204t122 230q91 84 229 84t215 -72q84 -66 84 -186q1 -60 -23 -204t-124 -233q-100 -81 -232 -81t-212 70q-82 70 -82 188zM479 0
l856 1434h193l-850 -1434h-199zM709 1174q0 56 -27 79q-31 20 -72 21q-102 0 -118 -96q-33 -190 -33 -240q-1 -80 99 -80t118 96q33 164 33 220zM545 678q-133 0 -215 71t-82 187q0 56 23 202t122 234q99 82 229 82t218 -70q82 -76 82 -188q0 -62 -25 -208t-123 -226
q-96 -84 -229 -84z" />
    <glyph glyph-name="ampersand" unicode="&#x26;" horiz-adv-x="1288" 
d="M584 203q98 0 159 37q-176 207 -284 422q-80 -88 -80 -259q0 -200 205 -200zM690 1241q-59 0 -112 -29q-49 -31 -50 -86q0 -94 118 -305t253 -385q4 16 10 53l31 222h217l-33 -232q-21 -122 -59 -196l-16 -29q45 -55 79 -55h58l-10 -201q-61 -16 -105 -16q-92 0 -184 96
q-139 -98 -339 -98t-304 105t-104 271q-1 334 225 490q-68 145 -68 250q0 174 117 266q119 92 286 92t299 -24l45 -11l-55 -209q-162 31 -299 31z" />
    <glyph glyph-name="quotesingle" unicode="'" horiz-adv-x="456" 
d="M172 952l68 482h211l-99 -482h-180z" />
    <glyph glyph-name="parenleft" unicode="(" horiz-adv-x="714" 
d="M131 -47q0 2 4 47l150 1067q25 170 161 281q141 106 342 106l-32 -229q-96 0 -163 -46t-75 -112l-141 -1001q-10 -68 -10 -86q0 -60 54 -102t140 -42l-31 -225q-174 0 -284 98q-115 96 -115 244z" />
    <glyph glyph-name="parenright" unicode=")" horiz-adv-x="714" 
d="M420 1085q0 59 -52 99t-143 41l33 229q170 0 284 -95t113 -243q0 -4 -4 -49l-149 -1067q-25 -172 -166 -280t-336 -109l31 225q90 0 159 47q68 47 78 115l150 1069v8q2 4 2 10z" />
    <glyph glyph-name="asterisk" unicode="*" horiz-adv-x="978" 
d="M725 1456l-31 -227l226 69l32 -204l-219 -68l107 -182l-191 -123l-106 178l-158 -186l-152 131l156 176l-211 74l96 200l209 -69l33 231h209z" />
    <glyph glyph-name="plus" unicode="+" 
d="M545 1053h225l-47 -344h352l-33 -224h-352l-47 -344h-225l47 344h-352l32 224h353z" />
    <glyph glyph-name="comma" unicode="," horiz-adv-x="563" 
d="M166 0l33 233h233l-24 -180q-25 -176 -109 -248t-193 -71l17 123q106 0 127 143h-84z" />
    <glyph glyph-name="hyphen" unicode="-" horiz-adv-x="833" 
d="M745 702l-30 -219h-547l31 219h546z" />
    <glyph glyph-name="period" unicode="." horiz-adv-x="559" 
d="M156 0l30 231h232l-31 -231h-231z" />
    <glyph glyph-name="slash" unicode="/" horiz-adv-x="735" 
d="M-8 0l620 1434h232l-625 -1434h-227z" />
    <glyph glyph-name="zero" unicode="0" 
d="M891 1023q0 89 -60 144q-57 57 -169 57t-195 -65q-80 -68 -96 -170q-80 -501 -80 -585t61 -140t173 -57q112 1 191 67t95 168q80 492 80 581zM1133 1051q0 -115 -82 -609q-33 -205 -187 -333q-147 -129 -355 -129t-333 114q-123 115 -123 293q0 111 82 602
q33 201 184 334q152 131 361 131t331 -112t122 -291z" />
    <glyph glyph-name="one" unicode="1" 
d="M49 0l33 227h397l133 959l-372 -148l32 228l394 168h221l-168 -1207h340l-33 -227h-977z" />
    <glyph glyph-name="two" unicode="2" 
d="M704 1454q204 0 316 -84t113 -249q0 -165 -64 -285q-68 -119 -199 -222l-485 -387h631l-31 -227h-932l35 258l612 498q35 27 95 82q35 37 65 97t29 132q0 164 -227 164q-151 0 -328 -39l-58 -12l19 217q205 57 409 57z" />
    <glyph glyph-name="three" unicode="3" 
d="M1053 555q0 -260 -148 -420q-152 -156 -426 -155q-123 0 -229 15t-144 28l-47 14l43 221q170 -57 385 -57q160 0 242 88q80 88 80 229q0 110 -90 141q-18 4 -76 17l-88 2h-121l27 194l327 336h-555l33 226h862l-28 -205l-338 -340q291 -51 291 -334z" />
    <glyph glyph-name="four" unicode="4" 
d="M51 287l27 198l639 949h264l-623 -920h396l51 356h239l-51 -356h144l-31 -227h-143l-41 -287h-240l41 287h-672z" />
    <glyph glyph-name="five" unicode="5" 
d="M733 279q84 79 84 251q1 172 -207 172q-102 0 -180 -22q-72 -14 -145 -43l-56 -23l-73 158l145 662h827l-32 -228h-613l-63 -309q125 29 229 29q416 0 416 -357q0 -266 -152 -428t-444 -161q-121 0 -225 15t-138 28l-47 14l43 221q227 -57 385 -57t246 78z" />
    <glyph glyph-name="six" unicode="6" 
d="M621 702q-39 0 -117 -14q-104 -29 -111 -31l-43 -14q-26 -127 -26 -225t55 -158t179 -59q124 0 204 82t80 235q0 184 -221 184zM721 1231q-151 0 -227 -74t-97 -190l-16 -103q152 62 325 62t277 -92t104 -271q1 -260 -151 -422t-414 -161q-207 0 -325 114
q-117 115 -117 295q0 113 76 580q35 211 184 346q147 139 389 139q86 0 183 -12t145 -25l51 -12l-41 -219q-195 45 -346 45z" />
    <glyph glyph-name="seven" unicode="7" 
d="M188 1208l31 226h940l-31 -226l-745 -1208h-248l752 1208h-699z" />
    <glyph glyph-name="eight" unicode="8" 
d="M627 850q102 0 188 61q82 63 82 164q0 68 -57 113q-58 45 -158 45t-184 -54q-84 -55 -84 -147t57 -135q54 -47 156 -47zM554 203q110 0 197 55t87 172q0 88 -74 143q-78 51 -182 51t-197 -63q-92 -66 -92 -178q0 -84 74 -133q77 -47 187 -47zM1077 461q0 -227 -151 -355
q-156 -127 -410 -126q-203 0 -335 95t-132 271q0 76 25 146q23 70 57 110q25 37 61 73t62 52l22 14l-10 11q-6 4 -25 27t-32 52q-16 25 -25 68q-12 43 -12 90q0 205 153 335t367 130t329 -100q116 -100 116 -245t-68 -243q-29 -43 -57 -67q-18 -23 -45 -45l-21 -13
q2 -2 7 -5q36 -22 79 -93q45 -87 45 -182z" />
    <glyph glyph-name="nine" unicode="9" 
d="M567 731q39 0 117 14q104 29 111 31l43 15q26 127 26 225t-55 158t-179 59q-124 0 -204 -82t-80 -236q0 -184 221 -184zM483 203q135 -1 211 73t97 191l16 102q-152 -61 -325 -61t-277 92t-105 270q0 260 154 422q150 162 412 162q206 0 324 -115t118 -295
q0 -113 -76 -579q-35 -211 -184 -346q-147 -139 -389 -139q-85 0 -183 12t-145 24l-51 13l41 219q160 -45 362 -45z" />
    <glyph glyph-name="colon" unicode=":" horiz-adv-x="559" 
d="M238 793l32 231h232l-33 -231h-231zM127 0l33 231h231l-33 -231h-231z" />
    <glyph glyph-name="semicolon" unicode=";" horiz-adv-x="563" 
d="M137 0l35 233h234l-27 -180q-25 -176 -109 -248t-192 -71l18 123q106 0 125 143h-84zM250 793l33 231h231l-33 -231h-231z" />
    <glyph glyph-name="less" unicode="&#x3c;" 
d="M76 504l24 186l1012 451l-35 -250l-710 -295l628 -295l-34 -248z" />
    <glyph glyph-name="equal" unicode="=" 
d="M1106 926l-31 -217h-932l31 217h932zM1042 485l-30 -217h-932l31 217h931z" />
    <glyph glyph-name="greater" unicode="&#x3e;" 
d="M1112 690l-25 -186l-1011 -451l35 250l710 295l-628 295l34 248z" />
    <glyph glyph-name="question" unicode="?" horiz-adv-x="1110" 
d="M262 0l31 231h231l-30 -231h-232zM671 1456q206 0 320 -84q117 -82 117 -252q0 -104 -27 -190q-51 -132 -169 -194q-46 -24 -112 -57q-66 -32 -120 -65q-117 -85 -139 -243h-224q31 239 138 346q84 75 213 131q45 16 94 45q96 63 96 192q0 145 -225 146q-175 0 -346 -39
l-54 -12l13 217q219 59 425 59z" />
    <glyph glyph-name="at" unicode="@" horiz-adv-x="1769" 
d="M723 334q0 -111 102 -111q46 0 176 51l37 17l70 491q-106 23 -176 23t-113 -39q-45 -45 -53 -102q-33 -193 -41 -302v-14q-2 -8 -2 -14zM1307 37q-72 0 -130 21t-79 48l-21 23q-151 -90 -285 -90t-204 70t-70 182q0 68 51 401q25 131 127 215t265 84t323 -49l51 -14
l-80 -561q-2 -8 -2 -35q0 -98 90 -99q37 0 54 15q46 28 63 158q68 406 68 514q0 147 -131 247q-133 101 -382 101t-413 -114t-190 -277q-96 -543 -96 -699t135 -260q135 -100 370 -100q79 0 183 11t155 24l53 12l11 -187q-213 -47 -426 -47q-307 0 -490 150
q-180 152 -180 375q0 139 96 721q43 254 264 413q219 164 544 164t507 -147t182 -369q0 -119 -78 -586q-18 -108 -75 -184t-123 -104t-137 -27z" />
    <glyph glyph-name="A" unicode="A" horiz-adv-x="1292" 
d="M848 596l-88 573l-252 -573h340zM641 1434h307l252 -1434h-254l-63 373h-475l-166 -373h-250z" />
    <glyph glyph-name="B" unicode="B" horiz-adv-x="1243" 
d="M645 227q131 1 199 57t67 191q0 156 -180 156h-293l-55 -404h262zM838 1206h-318l-49 -350h293q90 0 154 57q59 63 59 158q0 135 -139 135zM846 1434q182 0 276 -86t94 -225t-69 -251q-27 -35 -57 -69q-35 -33 -52 -41l-20 -12q26 -13 47 -37q25 -18 42 -45
q48 -76 48 -176q0 -232 -142 -362t-392 -130h-508l200 1434h533z" />
    <glyph glyph-name="C" unicode="C" horiz-adv-x="1150" 
d="M790 1227q-128 0 -216 -75t-107 -179q-74 -427 -74 -531t66 -170t188 -65q41 0 145 11t171 24l71 12l-22 -219q-229 -55 -398 -55q-213 0 -342 118q-125 123 -125 303q0 137 76 572q37 217 193 349t407 132q79 0 181 -15t139 -26l53 -12l-41 -219q-237 45 -365 45z" />
    <glyph glyph-name="D" unicode="D" horiz-adv-x="1325" 
d="M784 1206h-264l-137 -979h264q133 0 220 67t102 167q73 449 73 539t-66 148t-192 58zM815 1434q217 0 345 -113t128 -291q0 -117 -76 -569q-36 -207 -190 -334t-391 -127h-518l200 1434h502z" />
    <glyph glyph-name="E" unicode="E" horiz-adv-x="1234" 
d="M313 1434h949l-31 -228h-711l-49 -350h651l-32 -225h-652l-55 -404h731l-33 -227h-968z" />
    <glyph glyph-name="F" unicode="F" horiz-adv-x="1175" 
d="M313 1434h940l-30 -228h-703l-53 -372h643l-31 -228h-643l-86 -606h-237z" />
    <glyph glyph-name="G" unicode="G" horiz-adv-x="1316" 
d="M147 401q0 137 76 572q35 213 195 346q156 135 413 135q129 0 242 -14t168 -31l55 -14l-45 -221q-260 53 -456 53q-131 0 -219 -75t-107 -179q-74 -425 -74 -531t67 -172t178 -66t237 19l36 6l45 320h-258l31 225h500l-101 -711q-264 -83 -500 -83t-356 118
q-127 119 -127 303z" />
    <glyph glyph-name="H" unicode="H" horiz-adv-x="1394" 
d="M1139 1434h241l-200 -1434h-242l88 629h-586l-88 -629h-239l200 1434h240l-80 -578h586z" />
    <glyph glyph-name="I" unicode="I" horiz-adv-x="567" 
d="M553 1434l-201 -1434h-239l200 1434h240z" />
    <glyph glyph-name="J" unicode="J" horiz-adv-x="679" 
d="M162 201q57 0 80 28q22 23 30 51t19 103l147 1051h240l-156 -1104q-27 -186 -119 -268t-225 -82q-38 0 -153 20l-31 8l31 201q80 -8 137 -8z" />
    <glyph glyph-name="K" unicode="K" horiz-adv-x="1300" 
d="M551 1434l-92 -666l620 666h287l-653 -682l495 -752h-305l-452 719l-101 -719h-237l200 1434h238z" />
    <glyph glyph-name="L" unicode="L" horiz-adv-x="1083" 
d="M313 1434h240l-168 -1207h639l-33 -227h-878z" />
    <glyph glyph-name="M" unicode="M" horiz-adv-x="1617" 
d="M1604 1434l-201 -1434h-240l137 973l35 143l-86 -153l-305 -412h-217l-188 407l-43 158l-9 -149l-135 -967h-239l200 1434h275l278 -660l463 660h275z" />
    <glyph glyph-name="N" unicode="N" horiz-adv-x="1400" 
d="M1149 1434h237l-200 -1434h-268l-377 907l-52 183l-12 -189l-127 -901h-237l200 1434h269l376 -908l54 -182l12 195z" />
    <glyph glyph-name="O" unicode="O" horiz-adv-x="1376" 
d="M802 1233q-134 0 -224 -78q-96 -72 -115 -180q-76 -457 -76 -546t77 -159t210 -70q132 0 226 77q94 76 112 182q76 449 76 541t-76 163q-76 70 -210 70zM1329 1026q0 -131 -76 -565q-35 -209 -200 -342q-163 -139 -397 -139t-371 120t-138 306q0 115 76 567
q35 207 198 344t397 137t372 -123t139 -305z" />
    <glyph glyph-name="P" unicode="P" horiz-adv-x="1218" 
d="M991 1108q0 98 -123 98h-346l-71 -510h346q135 0 153 113q41 215 41 299zM895 1434q164 0 253 -83t89 -221q0 -96 -41 -319q-29 -154 -135 -247t-291 -93h-352l-66 -471h-239l200 1434h582z" />
    <glyph glyph-name="Q" unicode="Q" horiz-adv-x="1386" 
d="M666 201q47 0 101 14t73 27l26 12q-72 63 -182 63q-82 0 -172 -51l-25 -16q66 -49 179 -49zM802 1233q-134 0 -224 -78q-96 -72 -115 -180q-76 -457 -76 -541l4 -37q25 21 47 35t105 44q84 30 164 30q79 0 151 -24t107 -48l32 -24q11 26 15 49q76 416 76 525t-76 179
t-210 70zM1329 1026q0 -131 -76 -565q-20 -121 -88 -219l107 -170l-176 -115l-90 127q-158 -104 -371 -104t-350 120t-138 306q0 115 76 567q35 207 198 344t397 137t372 -123t139 -305z" />
    <glyph glyph-name="R" unicode="R" horiz-adv-x="1292" 
d="M993 1108q0 98 -123 98h-348l-67 -483h348q135 0 153 111q37 207 37 274zM897 1434q164 0 252 -84t88 -206q1 -122 -27 -254q-28 -130 -59 -185t-66 -91q-76 -68 -122 -82l-23 -8l219 -524h-282l-191 494h-264l-70 -494h-239l200 1434h584z" />
    <glyph glyph-name="S" unicode="S" horiz-adv-x="1234" 
d="M741 1227q-115 0 -203 -49t-87 -150q-1 -74 71 -117t177 -67t209 -57q104 -34 177 -111q72 -82 72 -209t-51 -229q-57 -100 -143 -152q-240 -146 -658 -92q-113 14 -166 31l-51 14l43 219q209 -55 424 -55q350 0 350 213q0 76 -74 125q-77 45 -187 71t-202 59
q-92 32 -168 107q-72 82 -72 201t49 215q48 96 133 152t179 79q94 29 209 29q114 0 224 -15t151 -26l53 -14l-43 -217q-193 45 -416 45z" />
    <glyph glyph-name="T" unicode="T" horiz-adv-x="1081" 
d="M160 1206l30 228h1000l-31 -228h-381l-170 -1206h-239l170 1206h-379z" />
    <glyph glyph-name="U" unicode="U" horiz-adv-x="1406" 
d="M679 -20q-241 0 -377 116t-136 299q0 59 6 99l133 940h240l-131 -924q-6 -37 -6 -88q0 -100 76 -158t216 -59q140 0 227 85t109 236l129 908h240l-133 -947q-31 -225 -195 -364q-158 -143 -398 -143z" />
    <glyph glyph-name="V" unicode="V" horiz-adv-x="1265" 
d="M440 1434l172 -1211l512 1211h250l-639 -1434h-307l-238 1434h250z" />
    <glyph glyph-name="W" unicode="W" horiz-adv-x="1865" 
d="M938 1434h289l102 -1160l354 1160h250l-465 -1434h-315l-115 1114l-428 -1114h-315l-64 1434h250l31 -1155z" />
    <glyph glyph-name="X" unicode="X" horiz-adv-x="1337" 
d="M502 1434l248 -498l387 498h278l-551 -699l381 -735h-280l-271 541l-424 -541h-278l586 735l-357 699h281z" />
    <glyph glyph-name="Y" unicode="Y" horiz-adv-x="1282" 
d="M459 1434l243 -637l420 637h279l-610 -869l-80 -565h-242l80 565l-369 869h279z" />
    <glyph glyph-name="Z" unicode="Z" horiz-adv-x="1257" 
d="M1264 1200l-887 -973h760l-33 -227h-1053l33 233l885 973h-731l30 228h1028z" />
    <glyph glyph-name="bracketleft" unicode="[" horiz-adv-x="714" 
d="M563 -143l-31 -226h-448l254 1803h448l-32 -230h-215l-191 -1347h215z" />
    <glyph glyph-name="backslash" unicode="\" horiz-adv-x="735" 
d="M422 1434l221 -1434h-229l-224 1434h232z" />
    <glyph glyph-name="bracketright" unicode="]" horiz-adv-x="716" 
d="M2 -369l31 226h217l190 1347h-217l33 230h451l-254 -1803h-451z" />
    <glyph glyph-name="asciicircum" unicode="^" horiz-adv-x="1079" 
d="M578 1434h178l239 -777h-233l-135 484l-273 -484h-233z" />
    <glyph glyph-name="underscore" unicode="_" horiz-adv-x="1181" 
d="M-4 -154h1180l-25 -174h-1180z" />
    <glyph glyph-name="grave" unicode="`" horiz-adv-x="546" 
d="M614 1137h-231l-272 297h292z" />
    <glyph glyph-name="a" unicode="a" horiz-adv-x="1120" 
d="M464 190q48 0 109 35q59 29 107 66l41 33l70 489q-91 18 -183 18t-141 -43q-47 -45 -59 -106q-49 -240 -50 -367q0 -53 27 -90q31 -35 79 -35zM884 -20q-54 0 -98 24q-43 29 -53 53l-10 27q-158 -104 -299 -104t-219 72t-78 206q0 133 57 440q27 152 144 252
q117 94 296 94t357 -49l57 -16l-102 -727q0 -4 -2 -10v-11q0 -45 37 -45l49 7l-6 -193q-76 -20 -130 -20z" />
    <glyph glyph-name="b" unicode="b" horiz-adv-x="1075" 
d="M799 706q0 58 -29 89q-44 61 -188 16q-49 -12 -99 -33l-37 -18l-77 -553q61 -16 196 -17q77 0 125 46t60 104q49 308 49 366zM740 1038q134 0 210 -78t76 -206t-55 -430q-29 -154 -139 -249t-295 -95q-98 0 -208 16t-149 27l-59 14l196 1397h226l-66 -459q129 63 263 63z
" />
    <glyph glyph-name="c" unicode="c" horiz-adv-x="874" 
d="M127 266q0 119 55 436q29 152 142 247t301 95q130 0 260 -20l39 -8l-52 -211q-156 29 -280 29q-70 0 -125 -43q-53 -47 -61 -101q-49 -279 -50 -371q0 -53 39 -92t103 -39q123 0 264 29l39 10l-2 -209q-158 -38 -325 -38t-259 81q-88 86 -88 205z" />
    <glyph glyph-name="d" unicode="d" horiz-adv-x="1101" 
d="M459 190q89 0 215 68l41 23l71 516q-74 33 -173 33t-149 -47q-50 -46 -58 -105q-52 -288 -52 -354t28 -100t77 -34zM934 227q0 -41 35 -41l51 7l-8 -193q-76 -20 -130 -20t-98 26t-51 51l-12 27q-164 -104 -303 -104t-217 77q-74 80 -74 206t55 429q29 156 142 251
t299 95q47 0 86 -10q45 -6 77 -16l29 -11l62 433h225l-166 -1182q-2 -6 -2 -25z" />
    <glyph glyph-name="e" unicode="e" horiz-adv-x="1005" 
d="M601 834q-69 0 -130 -43q-60 -46 -68 -107l-22 -141l266 82q100 33 101 102q0 49 -37 80q-41 27 -110 27zM510 -20q-192 0 -289 86q-94 88 -94 206t55 428q25 140 151 242t294 102t259 -82t91 -209q0 -128 -84 -212q-80 -86 -223 -129l-316 -95q0 -59 44 -93t112 -34
q147 0 301 35l49 13l2 -199q-160 -59 -352 -59z" />
    <glyph glyph-name="f" unicode="f" horiz-adv-x="753" 
d="M670 1454q38 0 72 -4t67 -7t47 -5l39 -6l-41 -205q-127 18 -211 18q-78 0 -92 -100l-16 -121h276l-29 -211h-276l-166 -1182h-225l166 1182h-144l29 211h143l19 131q18 133 108 216t234 83z" />
    <glyph glyph-name="g" unicode="g" horiz-adv-x="1089" 
d="M371 -109q0 -69 96 -69t160 47q59 50 67 113l23 153q-211 -111 -287 -153q-59 -35 -59 -91zM641 1044q98 0 210 -16t150 -27l60 -14l-141 -1012q-23 -154 -150 -258q-121 -106 -309 -106q-139 0 -234 63q-94 63 -94 175t84 182q47 41 70 51q19 12 78 45q-28 0 -70 16
q-41 16 -64 37q-27 18 -47 66q-51 100 23 452q31 156 141 251t293 95zM395 416q0 -129 113 -129q88 0 205 49l35 18l63 465q-88 14 -201 15q-145 0 -180 -152q-35 -174 -35 -266z" />
    <glyph glyph-name="h" unicode="h" horiz-adv-x="1124" 
d="M965 227q0 -41 36 -41l50 7l-9 -193q-82 -20 -120 -20q-186 0 -187 200q0 35 4 64l62 442q2 6 2 31q0 113 -107 112q-76 0 -209 -55l-41 -18l-106 -756h-225l202 1434h226l-66 -465q137 69 273 69t208 -76q74 -76 74 -200q0 -35 -4 -64l-61 -446q-2 -6 -2 -25z" />
    <glyph glyph-name="i" unicode="i" horiz-adv-x="555" 
d="M279 1200l32 234h234l-33 -234h-233zM330 -20q-186 0 -187 200q0 14 4 64l111 780h225l-106 -754q-4 -33 -4 -43q0 -41 37 -41l47 7l-6 -193q-82 -20 -121 -20z" />
    <glyph glyph-name="j" unicode="j" horiz-adv-x="532" 
d="M-6 -389q-34 0 -62 4t-53 7t-35 5l-24 6l49 199q66 -12 149 -12q76 0 93 102l155 1102h226l-158 -1114q-18 -133 -108 -216t-232 -83zM287 1200l32 234h234l-33 -234h-233z" />
    <glyph glyph-name="k" unicode="k" horiz-adv-x="1073" 
d="M1042 800q0 -100 -80 -191t-202 -140l108 -213q33 -70 68 -70l53 7l-8 -193q-82 -20 -121 -20q-119 0 -168 106l-137 295l-170 -55l-47 -326h-223l202 1434h224l-72 -512q83 52 182 86q84 35 160 34q111 0 172 -69q59 -73 59 -173zM744 836q-33 0 -120 -39t-124 -60
l-62 -32l-24 -166q172 59 264 109t113 73q16 27 16 57t-16 41q-14 17 -47 17z" />
    <glyph glyph-name="l" unicode="l" horiz-adv-x="550" 
d="M330 -20q-186 0 -187 200q0 35 4 64l168 1190h226l-166 -1182q-2 -6 -2 -25q0 -41 37 -41l47 7l-6 -193q-82 -20 -121 -20z" />
    <glyph glyph-name="m" unicode="m" horiz-adv-x="1576" 
d="M737 748q1 30 -23 59t-59 29t-92 -21q-59 -27 -86 -45l-35 -20l-104 -750h-223l143 1024h205l4 -63q137 82 260 81q55 0 104 -22q41 -23 58 -47l14 -23q150 92 289 92t216 -74t77 -204q0 -37 -4 -66l-64 -446v-10q-2 -4 -2 -11q0 -45 39 -45l49 7l-8 -193
q-82 -20 -121 -20q-184 0 -184 198q0 37 4 66l59 426l4 49q-1 53 -31 85t-81 32t-148 -50l-30 -18l-109 -768h-223l96 682l2 25q4 11 4 41z" />
    <glyph glyph-name="n" unicode="n" horiz-adv-x="1124" 
d="M696 836q-35 0 -106 -21q-72 -27 -105 -45l-41 -20l-104 -750h-225l143 1024h205l4 -66q147 86 280 86t211 -77q74 -78 74 -205q0 -27 -4 -64l-63 -446q0 -4 -2 -10v-11q0 -45 38 -45l50 7l-9 -193q-82 -20 -120 -20q-186 0 -187 200q0 35 4 64l60 424l4 49
q0 119 -107 119z" />
    <glyph glyph-name="o" unicode="o" horiz-adv-x="1046" 
d="M770 692q0 142 -171 142q-79 0 -131 -40t-65 -106q-47 -264 -47 -366q0 -56 44 -94t124 -38t135 43q54 44 62 103q49 286 49 356zM503 -20q-181 0 -278 86q-98 82 -98 205t53 429q29 152 139 248q119 96 299 96t279 -88q100 -88 100 -206t-53 -426q-28 -152 -144 -248
t-297 -96z" />
    <glyph glyph-name="p" unicode="p" horiz-adv-x="1083" 
d="M807 690q0 144 -113 144q-38 0 -106 -24t-96 -38l-43 -20l-72 -525q78 -37 174 -37t145 48q50 42 62 108q49 268 49 344zM467 1024v-57q160 78 262 77q153 0 229 -76t76 -194t-53 -442q-27 -154 -137 -254q-111 -98 -295 -98q-87 0 -172 32l-31 11l-53 -392h-225
l194 1393h205z" />
    <glyph glyph-name="q" unicode="q" horiz-adv-x="1062" 
d="M406 684q-52 -286 -52 -352t27 -103q51 -58 192 -16q47 12 97 33l37 18l77 553q-61 16 -196 17q-76 0 -123 -43q-47 -48 -59 -107zM414 -14q-136 0 -209 80q-78 78 -78 208q0 86 55 426q29 154 137 248q115 96 299 96q98 0 208 -16t149 -27l59 -14l-190 -1356h-226
l58 418q-126 -63 -262 -63z" />
    <glyph glyph-name="r" unicode="r" horiz-adv-x="690" 
d="M778 1044l-28 -210q-88 0 -164 -35q-76 -29 -119 -66l-37 -35l-98 -698h-226l144 1024h207l-6 -98q4 4 19 14q16 10 30 20t112 52q92 32 166 32z" />
    <glyph glyph-name="s" unicode="s" horiz-adv-x="946" 
d="M555 834q-156 0 -156 -105q0 -39 49 -63t117 -41q69 -18 139 -45t116 -84t46 -148q0 -186 -121 -278q-125 -90 -325 -90q-84 0 -170 12q-96 18 -127 28l-43 13l57 203q155 -46 279 -46t170 28t47 75q0 47 -35 72q-37 23 -122 42t-187 68q-121 66 -121 225q0 158 115 251
t290 93t287 -32l45 -11l-53 -204q-178 37 -297 37z" />
    <glyph glyph-name="t" unicode="t" horiz-adv-x="716" 
d="M469 188q20 0 82 5l72 8l26 4l-16 -203q-304 -62 -400 39q-59 63 -59 166q0 12 4 57l78 549h-145l28 211h146l34 246h226l-35 -246h268l-28 -211h-269l-71 -508l-4 -49q0 -68 63 -68z" />
    <glyph glyph-name="u" unicode="u" horiz-adv-x="1138" 
d="M139 262q0 10 4 64l99 698h225l-94 -657q-6 -61 -6 -66q-1 -47 25 -80t73 -33q96 0 219 68l41 23l106 745h226l-103 -733q-8 -41 -8 -64q0 -41 35 -41l51 7l-8 -193q-76 -20 -132 -20t-93 28q-43 26 -55 52t-11 32q-4 -6 -44 -33t-114 -51q-70 -29 -139 -28
q-145 0 -223 77q-74 78 -74 205z" />
    <glyph glyph-name="v" unicode="v" horiz-adv-x="1064" 
d="M451 -20q-141 0 -227 76t-87 198q0 25 6 74l97 696h223l-92 -655q-6 -49 -6 -84q1 -35 29 -64t79 -28q104 1 181 71t100 180q39 201 39 304q0 49 -29 66t-90 17l31 205q137 0 225 -71q86 -72 86 -186t-37 -321t-176 -339q-139 -139 -352 -139z" />
    <glyph glyph-name="w" unicode="w" horiz-adv-x="1517" 
d="M965 -20q-128 0 -203 88q-23 33 -25 34l-6 15q-17 -21 -35 -39t-98 -62q-80 -37 -166 -36q-137 0 -219 77q-76 80 -76 201q0 4 4 53l101 713h223l-92 -653q-6 -43 -6 -79q1 -36 25 -68t71 -31q80 0 139 55q57 57 72 162q8 53 88 614h223l-92 -651q-6 -55 -6 -66
q0 -115 100 -114q76 0 134 64t81 175q45 233 45 320q0 80 -112 79l28 205q135 0 220 -68t85 -198q0 -80 -38 -302t-152 -353q-111 -135 -313 -135z" />
    <glyph glyph-name="x" unicode="x" horiz-adv-x="997" 
d="M807 -20q-111 0 -162 104l-125 252l-262 -336h-258l424 530l-123 238q-37 70 -70 70l-53 -7l8 193q84 20 123 20q109 0 156 -104l108 -221l234 305h260l-397 -494l145 -274q33 -70 68 -70l53 7l-8 -193q-82 -20 -121 -20z" />
    <glyph glyph-name="y" unicode="y" horiz-adv-x="1095" 
d="M371 -106q-1 -28 27 -50t96 -22t133 47q59 50 67 113l23 153q-160 -84 -287 -153q-59 -37 -59 -88zM395 408q0 -121 113 -121q88 0 205 49l35 18l94 670h225l-147 -1049q-23 -154 -150 -258q-121 -106 -309 -106q-139 0 -234 63q-94 63 -94 179q0 47 23 98q28 49 56 75
t67 56q53 31 57 33l24 12q-13 0 -69 20q-47 27 -62 37q-23 18 -49 64q-20 47 -20 101t69 530l25 145h223q-82 -528 -82 -616z" />
    <glyph glyph-name="z" unicode="z" horiz-adv-x="946" 
d="M268 -101q0 -77 124 -77q64 0 126 45q64 45 74 106l22 162q-268 -141 -307 -169t-39 -67zM844 193q0 -63 -26 -219t-154 -261q-131 -102 -316 -102q-135 0 -229 65q-88 66 -88 167t73 194q61 68 192 140q42 23 146 77l76 18q-18 8 -94 9h-172l27 198l313 330h-416l31 215
h719l-29 -201l-334 -334q127 -20 207 -100q74 -80 74 -196z" />
    <glyph glyph-name="braceleft" unicode="{" horiz-adv-x="722" 
d="M141 -49q0 4 4 49q51 352 52 367q0 57 -95 57l31 217q102 0 113 66l49 360q25 167 160 277t342 110l-31 -225q-90 0 -159 -47t-79 -115l-49 -362q-8 -49 -36 -91t-54 -63l-27 -19q70 -45 70 -143q0 -14 -4 -51l-43 -281q-8 -57 -8 -77q0 -60 53 -102t139 -42l-30 -225
q-170 0 -284 96t-114 244z" />
    <glyph glyph-name="bar" unicode="|" horiz-adv-x="546" 
d="M84 -369l254 1803h199l-254 -1803h-199z" />
    <glyph glyph-name="braceright" unicode="}" horiz-adv-x="722" 
d="M600 698q0 -57 94 -57l-30 -217q-102 0 -113 -66l-49 -360q-25 -166 -160 -277t-342 -110l31 225q90 0 159 47q68 47 78 115l49 362q10 48 37 92t56 62l24 18q-70 45 -69 144q0 14 4 51l43 281q8 57 8 77q0 61 -53 103q-54 41 -140 41l31 225q172 0 285 -96t112 -244
q0 -4 -4 -49q-51 -352 -51 -367z" />
    <glyph glyph-name="asciitilde" unicode="~" horiz-adv-x="1286" 
d="M846 422q-74 0 -195 70t-167 70t-82 -32q-36 -31 -97 -108l-151 106q14 16 43 56t89 98q60 56 111 76t125 20t195 -70t167 -69q46 0 83 31q35 31 96 108l151 -106q-14 -16 -41 -54t-109 -117q-80 -79 -218 -79z" />
  </font>
</defs>
</svg>
