<?xml version="1.0" standalone="no"?>
<!DOCTYPE svg PUBLIC "-//W3C//DTD SVG 1.1//EN" "http://www.w3.org/Graphics/SVG/1.1/DTD/svg11.dtd" >
<svg xmlns="http://www.w3.org/2000/svg">
<metadata>
Created by FontPrep 20130207 at Tue Dec 10 12:54:43 2013
 By Manuela Cammilleri
Copyright (c) 2009 by Eduardo Manso. All rights reserved.
</metadata>
<defs>
<font id="5b55a53552d26aa0f8ceeb811bfa64dc" horiz-adv-x='1024' >
  <font-face 
    font-family="Geogrotesque-SemiBoldItalic"
    font-weight="600"
    font-style="italic"
    font-stretch="normal"
    units-per-em="2048"
    panose-1="2 0 7 3 0 0 0 0 0 0"
    ascent="1536"
    descent="-512"
    x-height="1020"
    cap-height="1393"
    bbox="-162.632 -446.014 1919 1450"
    underline-thickness="102"
    underline-position="-102"
    unicode-range="U+0020-007E"
  />
<missing-glyph horiz-adv-x="1024" 
 />
    <glyph glyph-name=".notdef" horiz-adv-x="1024" 
 />
    <glyph glyph-name=".null" horiz-adv-x="0" 
 />
    <glyph glyph-name="nonmarkingreturn" horiz-adv-x="681" 
 />
    <glyph glyph-name="space" unicode=" " horiz-adv-x="397" 
 />
    <glyph glyph-name="exclam" unicode="!" horiz-adv-x="567" 
d="M371 0h-178q-51 0 -46 51l21 166q6 51 57 51h178q49 0 43 -51l-20 -166q-6 -51 -55 -51zM393 373h-127q-25 0 -37 12q-8 14 -6 39l19 375l65 540q10 53 58 54h180q51 0 41 -54l-64 -540l-73 -375q-6 -31 -19 -39q-12 -12 -37 -12z" />
    <glyph glyph-name="quotedbl" unicode="&#x22;" horiz-adv-x="874" 
d="M676 954q-25 0 -37 13q-8 14 -6 39l18 333q4 53 58 54h163q53 -1 43 -54l-63 -333q-8 -51 -55 -52h-121zM311 954q-25 0 -37 13q-8 14 -6 39l17 333q4 53 57 54h166q51 -1 41 -54l-62 -333q-8 -51 -57 -52h-119z" />
    <glyph glyph-name="numbersign" unicode="#" horiz-adv-x="1388" 
d="M684 711l-66 -154h252l64 154h-250zM254 557h141l64 154h-86q-53 0 -47 49l10 90q6 47 59 47h142l65 160q23 53 70 53h123q53 0 30 -53l-65 -160h250l65 160q23 53 70 53h125q51 0 28 -53l-65 -160h80q53 0 47 -47l-10 -90q-6 -49 -58 -49h-135l-63 -154h82q51 0 45 -47
l-11 -90q-6 -51 -57 -51h-135l-66 -160q-20 -51 -67 -51h-125q-51 0 -31 51l66 160h-252l-66 -160q-20 -51 -67 -51h-125q-51 0 -31 51l65 160h-88q-49 0 -43 51l11 90q6 47 55 47z" />
    <glyph glyph-name="dollar" unicode="$" horiz-adv-x="1097" 
d="M854 1206q223 -57 223 -227q0 -18 -2 -33l-4 -35q-6 -47 -53 -47h-152q-45 0 -41 47l2 25q2 14 2 29q0 69 -140 69t-152 -78q-4 -26 -5 -36q0 -47 52 -66l284 -102q170 -61 170 -191q0 -8 -4 -49l-10 -92q-8 -86 -83 -154t-214 -88l-14 -125q-6 -53 -54 -53h-170
q-51 0 -45 53l15 127q-129 20 -193 82q-66 59 -65 139q0 20 2 33l6 47q6 47 53 47h152q45 0 39 -47l-2 -22q-2 -10 -2 -27q-1 -72 161 -72t170 82q4 30 4 50q0 39 -82 69l-278 107q-139 53 -139 194q0 23 2 37l6 64q18 211 293 251l16 125q6 53 57 54h170q47 0 41 -54z" />
    <glyph glyph-name="percent" unicode="%" horiz-adv-x="1779" 
d="M1468 412q0 53 -96 53t-102 -62l-23 -184v-10q1 -53 97 -53t104 63l20 180v13zM698 1180q0 53 -95 53t-105 -62l-23 -182v-12q1 -53 97 -53t104 63l22 182v11zM614 0h-155q-25 0 -27 18q-4 20 8 35l811 1286q35 53 82 54h156q23 0 27 -17t-9 -37l-815 -1286
q-35 -53 -78 -53zM621 1409q152 0 223 -53q78 -47 78 -139q0 -8 -4 -41l-25 -197q-27 -229 -333 -229t-306 196q0 27 2 35l25 199q27 229 340 229zM1384 639q159 0 230 -53q78 -47 78 -140q0 -31 -2 -38l-25 -199q-27 -229 -338 -229q-154 0 -227 53q-76 49 -76 143
q0 27 2 35l25 199q16 113 95 171t238 58z" />
    <glyph glyph-name="ampersand" unicode="&#x26;" horiz-adv-x="1425" 
d="M436 328q0 -123 252 -123t270 151l31 250h-317q-106 0 -158 -35t-63 -114l-13 -99q-2 -10 -2 -30zM743 1409q236 0 343 -77t108 -210q0 -41 -2 -57l-6 -55q-6 -51 -56 -52h-172q-49 0 -43 52q5 30 5 61q0 117 -180 117t-199 -152l-6 -51q0 -8 -3 -14v-10q-2 -2 -2 -9v-6
q1 -119 187 -119h688q51 0 45 -49l-14 -121q-6 -51 -58 -51h-118l-37 -289q-43 -334 -566 -333q-264 0 -381 80t-116 208q0 37 2 50l22 170q10 90 58 143q43 55 143 90q-131 45 -131 172v6l22 180q18 150 124 238t343 88z" />
    <glyph glyph-name="quotesingle" unicode="'" horiz-adv-x="507" 
d="M311 954q-25 0 -37 13q-8 14 -6 39l17 333q4 53 57 54h166q51 -1 41 -54l-62 -333q-8 -51 -57 -52h-119z" />
    <glyph glyph-name="parenleft" unicode="(" horiz-adv-x="731" 
d="M707 1450h53q51 0 45 -51l-14 -119q-6 -51 -60 -51h-18q-160 0 -174 -111l-152 -1227q-2 -12 -2 -24q0 -92 150 -92h20q53 0 45 -51l-16 -119q-6 -51 -56 -51h-16q-193 0 -301 73q-106 76 -107 207q1 4 5 41l155 1272q23 163 120 233t323 70z" />
    <glyph glyph-name="parenright" unicode=")" horiz-adv-x="731" 
d="M313 1229h-18q-53 0 -45 51l16 119q6 51 56 51h16q195 0 301 -75t106 -206q0 -4 -4 -41l-155 -1271q-23 -164 -121 -234t-322 -69h-53q-47 0 -45 51l14 119q6 51 58 51h18q160 0 176 110l150 1215l2 30l2 7q0 92 -152 92z" />
    <glyph glyph-name="asterisk" unicode="*" horiz-adv-x="1107" 
d="M584 586q-55 0 -43 53l49 248l-238 -144q-47 -29 -65 19l-31 82q-18 45 31 67l223 99l-199 100q-43 20 -14 68l47 75q31 49 74 19l200 -142l17 269q2 51 55 51h92q53 0 41 -51l-51 -260l223 135q47 29 68 -17l37 -79q23 -47 -31 -68l-229 -102l202 -99q43 -20 15 -67
l-49 -80q-31 -47 -72 -17l-193 134l-14 -240q-4 -53 -53 -53h-92z" />
    <glyph glyph-name="plus" unicode="+" horiz-adv-x="1146" 
d="M537 293v289h-289q-51 0 -51 51v121q0 49 51 49h289v291q0 53 49 53h121q49 0 49 -53v-291h293q51 0 51 -49v-121q0 -51 -51 -51h-293v-289q0 -51 -49 -51h-121q-49 0 -49 51z" />
    <glyph glyph-name="comma" unicode="," horiz-adv-x="567" 
d="M258 268h174q49 0 43 -51l-20 -151q-15 -125 -99 -198t-233 -106q-29 -6 -41 0t-19 33l-28 115q-8 45 43 63q96 31 104 107l19 137q6 51 57 51z" />
    <glyph glyph-name="hyphen" unicode="-" horiz-adv-x="892" 
d="M233 700h549q51 0 52 -49v-121q0 -49 -52 -49h-549q-51 0 -51 49v121q0 49 51 49z" />
    <glyph glyph-name="period" unicode="." horiz-adv-x="512" 
d="M342 0h-174q-49 0 -43 51l18 166q6 51 58 51h176q47 0 41 -51l-21 -166q-6 -51 -55 -51z" />
    <glyph glyph-name="slash" unicode="/" horiz-adv-x="749" 
d="M221 -303h-190q-51 0 -33 53l606 1628q18 53 64 54h192q53 -1 35 -54l-608 -1628q-23 -53 -66 -53z" />
    <glyph glyph-name="zero" unicode="0" 
d="M901 1053q1 127 -191 127t-210 -154l-80 -635q-6 -49 -6 -51q0 -127 192 -127t211 154l82 647q2 10 2 39zM733 1409q225 0 338 -84t113 -211l-4 -53l-90 -744q-18 -147 -136 -240t-358 -93q-239 0 -352 82q-111 86 -111 213q0 8 4 53l90 743q39 334 506 334z" />
    <glyph glyph-name="one" unicode="1" 
d="M1034 229q51 0 45 -49l-14 -129q-6 -51 -59 -51h-824q-49 0 -43 51l15 129q6 49 57 49h276l113 904l-283 -48q-49 -8 -47 43l17 132q6 45 59 55l514 92q23 4 35 -5t8 -44l-139 -1129h270z" />
    <glyph glyph-name="two" unicode="2" 
d="M1030 229q51 0 45 -49l-16 -129q-6 -51 -58 -51h-819q-51 0 -45 51l47 383q8 80 50 118t112 64l438 164q88 35 97 117l16 123q2 10 2 43q-1 121 -191 121t-208 -154l-11 -80q-6 -51 -53 -51h-172q-49 0 -43 51l15 125q39 334 497 334q223 0 336 -82q111 -86 111 -213
q0 -4 -4 -53l-21 -160q-31 -242 -231 -313l-365 -131q-59 -23 -81 -42t-27 -71l-15 -115h594z" />
    <glyph glyph-name="three" unicode="3" 
d="M510 827h139q197 0 219 152l9 57q2 10 2 31q0 121 -185 121t-196 -152l-2 -26q-2 -51 -58 -52h-170q-43 0 -41 52l6 65q33 334 496 334q225 0 327 -80t101 -207q0 -4 -4 -57l-16 -133q-8 -80 -52 -129q-41 -51 -129 -78q145 -55 146 -199q0 -6 -4 -55l-21 -166
q-39 -322 -502 -321q-231 0 -337 81t-107 211q0 27 2 41l6 66q6 51 56 51h170q45 0 43 -51l-2 -27q-2 -10 -3 -32q0 -119 195 -119t213 151l12 101q2 14 2 32q0 117 -184 117h-158q-51 0 -45 51l15 121q6 49 57 49z" />
    <glyph glyph-name="four" unicode="4" 
d="M1141 1393q47 0 41 -54l-158 -1286q-6 -53 -53 -53h-178q-51 0 -45 53l40 326h-622q-53 0 -47 49l14 119q2 27 17 57l319 735q23 53 70 54h178q54 -1 31 -54l-316 -731h383l90 731q6 53 58 54h178z" />
    <glyph glyph-name="five" unicode="5" 
d="M371 1393h749q53 0 47 -50l-16 -129q-6 -51 -57 -51h-521l-32 -268h137q219 0 330 -80q109 -84 108 -211q0 -8 -4 -53l-29 -236q-39 -334 -505 -333q-234 0 -338 82t-105 210q0 29 2 41l8 66q6 51 54 51h172q49 0 43 -51l-2 -23q-2 -18 -2 -32q0 -123 192 -123t209 153
l18 144q4 41 5 51q0 123 -185 123h-364q-47 0 -41 53l73 612q7 54 54 54z" />
    <glyph glyph-name="six" unicode="6" 
d="M827 512q0 117 -184 117t-201 -140l-14 -118l-4 -43q0 -124 184 -124t201 154l14 119v15l4 12v8zM731 1409q223 0 326 -82q102 -84 102 -201q0 -37 -2 -49l-8 -53q-8 -51 -53 -51h-172q-49 0 -43 51q4 28 4 49q0 115 -178 115t-197 -150l-33 -250q100 63 238 64
q189 0 289 -84t100 -209q0 -20 -4 -57l-21 -185q-33 -334 -495 -333q-225 0 -332 82q-106 82 -107 210q1 8 5 41l92 760q41 332 489 332z" />
    <glyph glyph-name="seven" unicode="7" 
d="M307 1393h889q53 0 47 -50l-16 -126q-2 -16 -19 -52l-630 -1112q-31 -53 -70 -53h-207q-57 0 -29 53l631 1110h-622q-53 0 -48 51l17 129q6 50 57 50z" />
    <glyph glyph-name="eight" unicode="8" 
d="M874 1069q0 119 -161 119q-94 0 -134 -35t-53 -119l-8 -51q-2 -10 -2 -33q0 -66 37 -92q35 -29 124 -29t134 35q41 39 53 119l8 51q2 12 2 35zM821 489q0 121 -176 121q-100 0 -148 -36t-59 -113l-12 -103q-2 -10 -2 -32q0 -121 176 -121q104 -1 152 37t55 116l12 91
q2 10 2 40zM708 1409q242 0 340 -80t99 -209q0 -35 -2 -45l-17 -135q-8 -82 -51 -132t-131 -85q154 -59 154 -193q0 -4 -4 -41l-21 -172q-39 -334 -493 -333q-221 0 -332 82q-104 86 -105 213q0 25 2 38l23 187q20 156 201 219q-127 53 -127 184l4 45l14 123q10 76 33 125
q18 49 70 107q101 102 343 102z" />
    <glyph glyph-name="nine" unicode="9" 
d="M706 1188q-186 0 -200 -154l-12 -119q-2 -10 -2 -28q0 -123 183 -123t199 139l13 119l4 43q1 123 -185 123zM158 270q0 31 2 45l6 54q6 51 57 51h170q49 0 43 -51q-4 -30 -4 -45q0 -119 178 -119t197 149l31 250q-96 -63 -236 -63q-193 0 -291 86q-100 82 -100 207
q0 8 4 57l23 184q39 334 491 334q225 0 333 -83t107 -210q0 -33 -2 -41l-92 -760q-39 -332 -485 -331q-221 0 -328 82q-104 82 -104 204z" />
    <glyph glyph-name="colon" unicode=":" horiz-adv-x="512" 
d="M434 750h-176q-49 0 -43 51l21 168q6 51 57 51h176q29 0 35 -12q10 -8 6 -39l-21 -168q-6 -51 -55 -51zM342 0h-174q-49 0 -43 51l18 166q6 51 58 51h176q47 0 41 -51l-21 -166q-6 -51 -55 -51z" />
    <glyph glyph-name="semicolon" unicode=";" horiz-adv-x="593" 
d="M283 268h176q23 0 37 -10q6 -14 4 -41l-19 -151q-14 -121 -96 -197q-90 -74 -235 -107q-29 -6 -41 0t-19 33l-29 115q-8 45 43 63q97 31 105 107l18 137q6 51 56 51zM516 750h-174q-49 0 -43 51l18 168q6 51 60 51h174q29 0 35 -12q10 -8 6 -39l-19 -168q-6 -51 -57 -51z
" />
    <glyph glyph-name="less" unicode="&#x3c;" horiz-adv-x="1071" 
d="M1020 440v-161q0 -29 -14 -46q-16 -12 -37 -4l-729 316q-39 17 -43 29t-4 26v188q0 34 28 46q8 4 19 10l729 315q20 8 37 -4q14 -16 14 -45v-162q0 -27 -12 -35q-10 -12 -39 -22l-516 -197l516 -196q29 -10 39 -23q12 -10 12 -35z" />
    <glyph glyph-name="equal" unicode="=" horiz-adv-x="1189" 
d="M217 559h844q51 0 51 -47v-123q0 -51 -51 -51h-844q-51 0 -51 51v123q0 47 51 47zM217 979h844q51 0 51 -49v-123q0 -49 -51 -49h-844q-51 0 -51 49v123q0 49 51 49z" />
    <glyph glyph-name="greater" unicode="&#x3e;" horiz-adv-x="1071" 
d="M152 946v164q0 33 12 47t39 4l731 -315q45 -18 45 -55v-193q0 -37 -45 -55l-731 -316q-51 -19 -51 49v166q0 20 8 29q6 14 16 16l27 13l516 192l-516 197q-51 20 -51 57z" />
    <glyph glyph-name="question" unicode="?" horiz-adv-x="1157" 
d="M610 0h-178q-25 0 -35 10t-8 41l19 166q6 51 57 51h180q47 0 41 -51l-20 -166q-6 -51 -56 -51zM907 1067q-1 117 -195 117t-212 -154l-11 -80q-8 -51 -55 -51h-170q-51 0 -45 51l17 125q43 334 503 334q225 0 336 -88t111 -213q0 -31 -2 -45l-13 -96q-25 -223 -229 -305
l-123 -54q-47 -20 -71 -44t-29 -70l-8 -72q-3 -29 -15 -39t-39 -10h-180q-51 0 -45 49l19 141q8 76 47 116t104 69l201 96q80 43 94 125l8 61q2 14 2 37z" />
    <glyph glyph-name="at" unicode="@" horiz-adv-x="1953" 
d="M864 418l-6 -41q0 -68 88 -68t182 53q0 14 2 17l58 256q-78 68 -154 67q-104 1 -133 -116l-35 -162zM1294 -307h-350q-466 0 -637 123q-78 53 -119 125q-33 70 -32 149q0 25 4 74l88 710q8 66 30 126t82 135q68 69 156 107q218 95 614 93q466 1 640 -121q84 -58 114 -124
q35 -63 35 -152q0 -6 -4 -68l-57 -475q-39 -328 -416 -327q-231 0 -293 127q-164 -127 -330 -127q-119 0 -177 55t-58 153q0 39 10 91l57 272q35 147 107 223q76 76 215 76t270 -100l10 32q14 51 62 52h147q47 0 39 -52l-96 -421q-14 -57 -14 -99q0 -88 86 -88q61 0 89 44
t36 126l51 428q2 10 2 41q0 72 -44 118t-165 71q-115 28 -341 28t-358 -34q-131 -34 -181 -84t-60 -138l-84 -688q-4 -37 -4 -45q0 -111 119 -166q123 -53 428 -53h358q49 0 43 -51l-12 -115q-7 -51 -60 -51z" />
    <glyph glyph-name="A" unicode="A" horiz-adv-x="1132" 
d="M698 1053v69q-80 -307 -106 -372l-98 -230h260l-39 228q-17 80 -17 305zM645 1393h180q47 0 56 -52l225 -1290q8 -51 -43 -51h-180q-47 0 -56 51l-41 250h-380l-103 -250q-18 -51 -65 -51h-170q-53 0 -33 51l540 1290q21 52 70 52z" />
    <glyph glyph-name="B" unicode="B" horiz-adv-x="1216" 
d="M717 1171h-154l-45 -356h156q211 0 233 146l8 59q2 10 3 35q0 116 -201 116zM711 606h-217l-48 -385h213q225 0 242 141l8 80q2 14 2 33q1 131 -200 131zM641 0h-448q-55 0 -46 53l160 1286q6 53 55 54h367q233 0 350 -78t117 -205l-4 -49l-12 -105q-14 -154 -183 -225
q89 -31 141 -94t52 -137q0 -31 -2 -41l-19 -146q-39 -313 -528 -313z" />
    <glyph glyph-name="C" unicode="C" horiz-adv-x="1165" 
d="M641 213q203 0 217 154l8 77q6 51 58 52h170q47 -1 41 -52l-15 -127q-33 -334 -514 -333q-231 0 -342 82q-109 86 -108 213l4 53l90 743q39 334 514 334q236 0 344 -83t106 -210l-4 -53l-10 -86q-6 -51 -53 -51h-172q-49 0 -43 51l6 39q2 10 2 39q0 125 -200 125
t-218 -154l-80 -645l-4 -39q0 -129 203 -129z" />
    <glyph glyph-name="D" unicode="D" horiz-adv-x="1259" 
d="M782 1163h-219l-117 -934h224q219 0 237 154l76 604q4 37 4 47q0 129 -205 129zM655 0h-469q-45 0 -39 53l160 1286q6 53 55 54h435q241 0 357 -86t116 -215q0 -23 -4 -60l-86 -698q-40 -334 -525 -334z" />
    <glyph glyph-name="E" unicode="E" horiz-adv-x="1048" 
d="M915 0h-722q-51 0 -46 53l160 1286q6 53 55 54h701q53 0 47 -50l-16 -129q-6 -51 -58 -51h-473l-41 -332h441q49 0 43 -49l-15 -123q-6 -49 -57 -49h-438l-50 -381h496q57 0 47 -49l-18 -129q-9 -51 -56 -51z" />
    <glyph glyph-name="F" unicode="F" horiz-adv-x="1060" 
d="M362 1393h750q53 0 47 -50l-16 -129q-6 -51 -58 -51h-522l-41 -332h488q51 0 45 -49l-17 -131q-6 -51 -57 -51h-487l-68 -547q-6 -53 -55 -53h-178q-51 0 -46 53l160 1286q6 54 55 54z" />
    <glyph glyph-name="G" unicode="G" horiz-adv-x="1189" 
d="M700 731h418q53 0 47 -49l-45 -365q-39 -334 -514 -333q-231 0 -342 82q-109 86 -108 213q0 4 4 53l90 743q39 334 514 334q231 0 342 -82q109 -86 108 -215l-4 -53l-6 -66q-6 -51 -57 -51h-170q-49 0 -43 51l4 33q2 10 2 35q0 119 -200 119t-218 -154l-80 -647
q-4 -37 -4 -41q0 -125 200 -125t218 152l16 137h-200q-51 0 -45 49l16 131q6 49 57 49z" />
    <glyph glyph-name="H" unicode="H" horiz-adv-x="1280" 
d="M1262 1393q47 0 41 -54l-160 -1286q-6 -53 -51 -53h-179q-51 0 -45 53l68 547h-442l-68 -547q-6 -53 -55 -53h-178q-51 0 -46 53l160 1286q6 53 55 54h179q49 -1 43 -54l-62 -510h441l63 510q6 53 57 54h179z" />
    <glyph glyph-name="I" unicode="I" horiz-adv-x="561" 
d="M371 0h-178q-51 0 -46 53l160 1286q6 53 55 54h179q49 -1 43 -54l-158 -1286q-6 -53 -55 -53z" />
    <glyph glyph-name="J" unicode="J" horiz-adv-x="1054" 
d="M506 213q92 0 131 37t49 117l121 972q6 53 55 54h178q49 0 43 -54l-125 -1022q-39 -334 -466 -333q-220 0 -322 82t-102 210q0 20 4 58l12 106q6 51 57 52h174q47 -1 41 -52l-8 -65l-4 -43q0 -119 162 -119z" />
    <glyph glyph-name="K" unicode="K" horiz-adv-x="1196" 
d="M1141 0h-226q-39 0 -69 51l-318 537h-39l-65 -537q-6 -51 -53 -51h-178q-51 0 -46 51l158 1290q6 51 57 52h179q47 0 41 -52l-66 -550h29l430 550q39 51 88 52h197q29 0 30 -17q6 -12 -12 -35l-506 -632l399 -658q11 -19 3 -35t-33 -16z" />
    <glyph glyph-name="L" unicode="L" horiz-adv-x="976" 
d="M903 229q55 0 47 -49l-18 -129q-8 -51 -55 -51h-691q-45 0 -39 53l160 1286q6 53 55 54h179q49 -1 43 -54l-138 -1110h457z" />
    <glyph glyph-name="M" unicode="M" horiz-adv-x="1527" 
d="M1337 0h-170q-51 0 -45 51l97 780q-43 -119 -82 -188l-201 -381q-27 -51 -76 -51h-137q-51 0 -66 51l-125 412q-16 57 -28 153l-96 -776q-6 -51 -54 -51h-161q-51 0 -46 51l158 1290q6 51 57 52h160q31 0 41 -29l225 -715q18 -66 35 -143q29 72 68 141l393 721
q14 25 49 25h174q47 -1 41 -52l-157 -1290q-6 -51 -54 -51z" />
    <glyph glyph-name="N" unicode="N" horiz-adv-x="1280" 
d="M1083 0h-153q-35 0 -47 25l-314 677q-41 98 -61 168l-100 -819q-6 -51 -54 -51h-161q-51 0 -46 51l158 1290q6 51 57 52h154q35 0 43 -21l326 -706q37 -78 51 -144l100 819q6 51 56 52h161q49 -1 43 -52l-159 -1290q-6 -51 -54 -51z" />
    <glyph glyph-name="O" unicode="O" horiz-adv-x="1239" 
d="M760 1180q-102 0 -164 -39t-74 -115l-80 -645l-4 -39q0 -129 212 -129t231 154l82 645l4 39q0 129 -207 129zM767 1409q249 0 363 -86q117 -82 117 -211q0 -39 -2 -51l-90 -744q-14 -143 -141 -238q-128 -95 -376 -95t-368 84q-115 84 -114 213l94 794q18 147 143 241
t374 93z" />
    <glyph glyph-name="P" unicode="P" horiz-adv-x="1187" 
d="M772 1163h-209l-53 -440h203q217 0 239 141l17 121q2 12 2 39q0 70 -45 104q-52 35 -154 35zM692 494h-213l-53 -441q-6 -53 -55 -53h-178q-51 0 -46 53l160 1286q6 53 55 54h422q238 0 351 -88t112 -224q0 -23 -4 -59l-22 -205q-15 -155 -137 -239t-392 -84z" />
    <glyph glyph-name="Q" unicode="Q" horiz-adv-x="1236" 
d="M760 1180q-102 0 -164 -39t-74 -115l-80 -645l-4 -39q0 -129 212 -129t231 154l82 645l4 39q0 129 -207 129zM767 1409q249 0 363 -86q117 -82 117 -211q0 -39 -2 -51l-90 -744q-31 -248 -324 -313l193 -192q35 -35 -2 -72l-102 -96q-41 -37 -72 -4l-338 350
q-176 18 -266 98q-88 80 -88 193l94 794q18 147 143 241t374 93z" />
    <glyph glyph-name="R" unicode="R" horiz-adv-x="1228" 
d="M772 1163h-209l-51 -403h205q219 0 239 143l13 84q2 10 2 37q0 139 -199 139zM371 0h-178q-55 0 -46 53l160 1286q6 53 55 54h416q240 0 354 -88t115 -226q0 -37 -2 -47l-20 -178q-25 -219 -258 -289l153 -512q10 -23 -10 -37q-14 -16 -43 -16h-176q-31 0 -47 53
l-144 477h-217l-57 -477q-6 -53 -55 -53z" />
    <glyph glyph-name="S" unicode="S" horiz-adv-x="1171" 
d="M754 1409q225 0 336 -82q106 -86 106 -211q0 -27 -2 -41l-8 -84q-6 -51 -58 -51h-172q-49 0 -43 51l7 47q2 10 2 21q0 129 -194 129t-208 -150q-4 -40 -4 -53q0 -59 70 -86l338 -127q211 -80 211 -266q0 -4 -1 -10t-2 -18t-2 -21l-14 -140q-14 -145 -136 -239t-371 -94
t-361 86q-113 82 -113 213q0 12 4 49l15 114q6 53 55 54h172q49 0 43 -54l-10 -77q-2 -10 -2 -39q0 -125 206 -125t228 149l8 58q2 10 2 32t-12 39q-18 34 -92 65q-12 5 -52 23l-284 113q-78 31 -129 94q-47 70 -47 146l4 49l12 102q39 334 498 334z" />
    <glyph glyph-name="T" unicode="T" horiz-adv-x="1009" 
d="M244 1393h858q53 0 47 -50l-16 -129q-6 -51 -56 -51h-293l-137 -1110q-6 -53 -53 -53h-178q-51 0 -45 53l137 1110h-291q-53 0 -47 51l16 129q7 50 58 50z" />
    <glyph glyph-name="U" unicode="U" horiz-adv-x="1259" 
d="M449 344q-1 -131 211 -131t231 154l123 972q6 53 53 54h178q51 0 45 -54l-127 -1022q-39 -334 -526 -333q-231 0 -352 86q-119 86 -119 215q0 8 6 57l123 997q6 53 53 54h180q49 -1 43 -54l-116 -933q-6 -43 -6 -62z" />
    <glyph glyph-name="V" unicode="V" horiz-adv-x="1132" 
d="M655 0h-178q-51 0 -59 51l-223 1290q-8 51 45 52h190q29 0 37 -13q14 -14 16 -39l113 -696q14 -86 14 -297q0 11 33 120t57 175l285 698q20 51 68 52h182q51 0 31 -52l-541 -1290q-21 -51 -70 -51z" />
    <glyph glyph-name="W" unicode="W" horiz-adv-x="1716" 
d="M1819 1393q49 0 30 -52l-483 -1290q-18 -51 -68 -51h-174q-47 0 -53 51l-90 713q-10 72 -6 190q-25 -119 -51 -190l-269 -713q-18 -51 -69 -51h-174q-47 0 -54 51l-165 1290q-6 51 45 52h180q47 0 53 -52l88 -698q8 -55 10 -172q29 96 58 172l262 698q18 51 67 52h166
q48 -1 54 -52l88 -696q10 -102 10 -205q25 111 59 203l260 698q18 51 68 52h158z" />
    <glyph glyph-name="X" unicode="X" horiz-adv-x="1175" 
d="M1092 0h-203q-43 0 -68 51l-194 422l-275 -422q-33 -51 -78 -51h-196q-14 0 -23 8q-11 21 8 51l453 662l-278 614q-12 23 -6 40t32 18h203q47 0 68 -52l178 -391l262 391q33 51 82 52h192q55 0 19 -52l-449 -626l303 -664q10 -20 4 -35q-10 -16 -34 -16z" />
    <glyph glyph-name="Y" unicode="Y" horiz-adv-x="1116" 
d="M1219 1393q57 0 30 -52l-487 -809l-60 -481q-6 -51 -53 -51h-178q-51 0 -45 51l55 449l-288 841q-8 19 4 35t39 17h198q41 -1 55 -52l140 -467q14 -49 20 -108q31 76 49 108l273 467q27 51 67 52h181z" />
    <glyph glyph-name="Z" unicode="Z" horiz-adv-x="1017" 
d="M326 1393h727q53 0 47 -50l-17 -129q-4 -20 -22 -49l-629 -936h514q51 0 45 -49l-16 -129q-6 -51 -55 -51h-799q-53 0 -47 51l16 129q4 27 21 47l628 936h-442q-51 0 -45 51l16 129q7 50 58 50z" />
    <glyph glyph-name="bracketleft" unicode="[" horiz-adv-x="806" 
d="M819 1432q51 0 45 -50l-16 -129q-6 -51 -57 -51h-240l-174 -1405h239q53 0 48 -51l-17 -129q-6 -49 -55 -49h-469q-51 0 -45 53l217 1757q6 53 55 54h469z" />
    <glyph glyph-name="backslash" unicode="\" horiz-adv-x="749" 
d="M424 1432q49 0 55 -54l205 -1628q6 -53 -47 -53h-180q-48 0 -54 53l-206 1628q-6 53 45 54h182z" />
    <glyph glyph-name="bracketright" unicode="]" horiz-adv-x="806" 
d="M578 -432h-467q-53 0 -48 49l17 129q6 51 55 51h242l174 1405h-240q-53 0 -47 51l17 129q6 49 57 50h467q51 -1 45 -54l-217 -1757q-6 -53 -55 -53z" />
    <glyph glyph-name="asciicircum" unicode="^" horiz-adv-x="1181" 
d="M410 563h-164q-29 1 -43 15t-4 38l313 730q6 12 8 14v4q2 2 9 13q10 16 38 16h191q27 0 43 -21q2 -6 12 -26l315 -730q10 -27 -6 -38q-12 -14 -43 -15h-164q-27 0 -37 14t-18 39l-198 512l-195 -512q-17 -53 -57 -53z" />
    <glyph glyph-name="underscore" unicode="_" horiz-adv-x="933" 
d="M53 -152h746q51 0 51 -47v-123q0 -51 -51 -51h-746q-51 0 -51 51v123q0 47 51 47z" />
    <glyph glyph-name="grave" unicode="`" horiz-adv-x="643" 
d="M326 1450h174q43 0 63 -51l76 -201q20 -51 -35 -51h-127q-43 0 -61 35l-123 217q-12 23 -2 37q6 14 35 14z" />
    <glyph glyph-name="a" unicode="a" horiz-adv-x="1105" 
d="M504 217q102 0 250 92l49 400q-113 93 -225 93t-125 -106l-47 -372q-2 -6 -3 -29q-1 -78 101 -78zM129 231q0 2 4 52l57 454q37 299 326 299q184 0 315 -112l11 45q6 31 18 39q8 12 37 12h164q49 0 43 -51l-113 -916q-6 -53 -57 -53h-158q-43 0 -43 53l2 45
q-168 -115 -334 -114q-131 0 -200 65q-72 63 -72 182z" />
    <glyph glyph-name="b" unicode="b" horiz-adv-x="1105" 
d="M825 723q1 80 -107 80t-241 -94l-49 -400q112 -91 224 -91t124 106l47 372q2 10 2 27zM328 0h-158q-49 0 -43 53l162 1325q6 53 57 54h170q47 0 41 -54l-55 -452q158 111 327 110q129 0 200 -66t71 -184q0 -39 -2 -49l-58 -454q-37 -299 -329 -299q-182 0 -316 114
l-10 -45q-6 -29 -18 -41t-39 -12z" />
    <glyph glyph-name="c" unicode="c" horiz-adv-x="1007" 
d="M639 1036q197 0 295 -69q96 -74 96 -193q0 -33 -2 -43l-4 -31q-6 -49 -57 -49h-156q-49 0 -43 47q4 34 4 41q0 84 -145 84q-86 0 -127 -24q-37 -27 -45 -84l-47 -379q-6 -41 -7 -49q0 -90 148 -90q88 1 125 27t45 83l4 31q6 51 55 51h158q51 0 43 -51l-6 -51
q-18 -147 -121 -226q-106 -77 -318 -77t-307 70q-96 70 -96 192q0 31 2 41l53 448q37 301 453 301z" />
    <glyph glyph-name="d" unicode="d" horiz-adv-x="1105" 
d="M403 295q-1 -78 101 -78t250 92l49 400q-113 93 -225 93t-125 -106l-45 -360l-5 -35v-6zM733 53v45l-45 -30q-27 -18 -40 -26t-95 -38q-82 -20 -152 -20q-131 0 -200 65q-72 63 -72 180q0 4 4 54l57 454q37 299 326 299q180 0 313 -110l54 452q6 53 57 54h170
q49 0 43 -54l-162 -1325q-6 -53 -57 -53h-158q-27 0 -35 11t-8 42z" />
    <glyph glyph-name="e" unicode="e" horiz-adv-x="1021" 
d="M770 741q0 95 -154 95t-167 -113l-11 -92h320l10 78q2 6 2 32zM550 184q155 0 165 105l2 20q6 51 57 51h144q45 0 43 -51l-3 -22q-16 -145 -114 -225t-308 -78q-210 0 -308 70q-97 70 -97 192q0 31 2 41l53 448q37 301 451 301q193 0 289 -68t96 -192q0 -33 -2 -41
l-29 -237q-6 -47 -53 -47h-524l-15 -127l-4 -48q0 -92 155 -92z" />
    <glyph glyph-name="f" unicode="f" horiz-adv-x="714" 
d="M807 1440h27q51 0 45 -51l-15 -119q-6 -51 -57 -51h-21q-168 0 -182 -111l-12 -92h170q53 0 47 -47l-14 -115q-6 -51 -58 -51h-170l-145 -1163q-4 -29 -15 -40t-38 -12h-170q-51 0 -45 52l145 1163h-111q-51 0 -45 51l13 102q4 27 16 37t39 13l104 10h9l14 121
q37 303 469 303z" />
    <glyph glyph-name="g" unicode="g" horiz-adv-x="1105" 
d="M504 217q102 0 250 92l49 400q-119 93 -229 93t-121 -106l-45 -354l-5 -45q-1 -80 101 -80zM416 -16q-146 0 -216 66t-71 181q0 6 4 52l57 454q37 299 324 299q190 0 324 -118l10 51q6 29 15 40t38 11h158q51 0 45 -51l-133 -1080q-37 -301 -475 -301h-289q-53 0 -47 50
l14 118q6 53 59 54h289q170 0 183 110l20 172q-163 -108 -309 -108z" />
    <glyph glyph-name="h" unicode="h" horiz-adv-x="1116" 
d="M829 1036q119 0 195 -66t76 -173q0 -25 -2 -35l-84 -709q-6 -53 -60 -53h-166q-51 0 -45 53l78 641q2 10 2 31q-1 78 -107 78t-239 -92l-82 -658q-6 -53 -55 -53h-170q-49 0 -43 53l162 1325q6 53 57 54h170q47 -1 41 -54l-55 -448q150 106 327 106z" />
    <glyph glyph-name="i" unicode="i" horiz-adv-x="512" 
d="M481 1153h-170q-49 0 -43 49l21 176q6 53 57 54h170q47 -1 41 -54l-20 -176q-6 -49 -56 -49zM340 0h-170q-49 0 -43 53l113 916q6 51 55 51h170q49 0 43 -51l-113 -916q-6 -53 -55 -53z" />
    <glyph glyph-name="j" unicode="j" horiz-adv-x="509" 
d="M-88 -412h-29q-51 0 -45 50l15 118q6 53 59 54h18q164 0 181 110l129 1049q6 51 55 51h170q49 0 43 -51l-131 -1080q-18 -150 -131 -225q-109 -76 -334 -76zM313 1153q-51 0 -45 49l23 176q6 53 55 54h170q49 -1 43 -54l-22 -176q-4 -49 -54 -49h-170z" />
    <glyph glyph-name="k" unicode="k" horiz-adv-x="1013" 
d="M979 0h-184q-41 0 -68 51l-238 418h-43l-51 -418q-6 -51 -55 -51h-170q-49 0 -43 51l162 1329q6 51 57 52h170q47 0 41 -52l-86 -708h39l291 297q51 51 86 51h190q27 0 32 -16t-13 -35l-379 -389l293 -529q14 -20 2 -35q-6 -16 -33 -16z" />
    <glyph glyph-name="l" unicode="l" horiz-adv-x="512" 
d="M340 0h-170q-49 0 -43 53l162 1325q6 53 57 54h170q47 -1 41 -54l-162 -1325q-6 -53 -55 -53z" />
    <glyph glyph-name="m" unicode="m" horiz-adv-x="1710" 
d="M813 725q0 78 -100 78q-123 0 -236 -92l-82 -658q-6 -53 -55 -53h-170q-49 0 -43 53l113 918q6 49 55 49h158q25 0 33 -9t10 -40l-2 -49q145 115 323 114q90 0 159 -37t93 -100q4 2 31 25q27 22 37 28t52 31t70 31q27 6 62 14t100 8q119 0 196 -64t77 -169q0 -31 -2 -41
l-86 -709q-6 -53 -58 -53h-168q-49 0 -43 53l76 627q0 25 4 39v6q0 78 -100 78q-125 0 -238 -92v-15l-78 -643q-6 -53 -57 -53h-168q-51 0 -45 53l78 639l4 29v4z" />
    <glyph glyph-name="n" unicode="n" horiz-adv-x="1116" 
d="M825 725q0 78 -100 78q-123 0 -248 -92l-82 -658q-6 -53 -55 -53h-170q-49 0 -43 53l113 918q6 49 55 49h158q27 0 37 -11t8 -38l-2 -49q156 115 333 114q119 0 195 -66t76 -173q0 -39 -2 -49l-84 -695q-6 -53 -60 -53h-166q-55 0 -45 53l78 627l4 38v7z" />
    <glyph glyph-name="o" unicode="o" horiz-adv-x="1085" 
d="M803 729q0 94 -166 94t-182 -110l-49 -387q-2 -10 -3 -35q-1 -95 167 -95t182 113l49 385q2 14 2 35zM659 1036q199 0 308 -70t108 -194q0 -27 -2 -37l-55 -448q-37 -303 -471 -303q-197 0 -309 71q-106 72 -107 197q0 25 2 35l53 448q37 301 473 301z" />
    <glyph glyph-name="p" unicode="p" horiz-adv-x="1105" 
d="M727 803q-121 0 -248 -94l-51 -400q118 -91 228 -91t122 106l43 360l4 43q0 76 -98 76zM455 1020q47 0 45 -51l-4 -49q162 117 333 116q127 0 203 -65q70 -66 70 -185q0 -4 -4 -49l-56 -454q-37 -299 -325 -299q-178 0 -316 108l-55 -452q-6 -51 -55 -52h-170
q-51 0 -45 52l166 1329q6 51 53 51h160z" />
    <glyph glyph-name="q" unicode="q" horiz-adv-x="1105" 
d="M504 217q102 0 250 92l49 400q-119 93 -229 93t-121 -106l-45 -356l-5 -43q-1 -80 101 -80zM901 1020h158q51 0 45 -51l-164 -1329q-6 -51 -55 -52h-170q-51 0 -43 52l53 452q-163 -108 -309 -108t-216 66t-71 181q0 6 4 52l57 454q37 299 324 299q185 1 322 -116l10 49
q6 31 18 39q8 12 37 12z" />
    <glyph glyph-name="r" unicode="r" horiz-adv-x="759" 
d="M809 1036q53 0 47 -51l-16 -131q-2 -45 -60 -51q-182 -18 -307 -121l-78 -629q-6 -53 -55 -53h-170q-49 0 -43 53l113 918q6 49 55 49h158q27 0 37 -11t8 -38l-4 -72q145 137 315 137z" />
    <glyph glyph-name="s" unicode="s" horiz-adv-x="966" 
d="M733 778q0 70 -140 70t-153 -78q-4 -24 -4 -37q0 -47 51 -65l285 -103q170 -61 170 -190q0 -8 -4 -49l-10 -93q-12 -106 -117 -180q-109 -69 -307 -69t-299 65q-100 68 -101 166q0 20 2 33l7 47q6 47 53 47h151q45 0 39 -47l-2 -23q-2 -10 -2 -26q0 -72 162 -72t170 82
q4 28 4 49q0 39 -82 70l-278 106q-139 53 -140 195q0 23 2 37l7 63q8 111 106 186q99 74 293 74t293 -69q92 -74 92 -174q0 -18 -2 -33l-4 -35q-6 -47 -53 -47h-152q-45 0 -41 47l2 25q2 14 2 28z" />
    <glyph glyph-name="t" unicode="t" horiz-adv-x="743" 
d="M639 221h45q53 0 47 -51l-14 -119q-6 -51 -58 -51h-88q-190 0 -274 59t-84 183l4 61l62 500h-101q-49 0 -43 51l10 102q2 43 58 50l100 10h2l25 196q6 51 55 52h170q49 0 43 -52l-25 -196h187q51 0 45 -47l-12 -115q-6 -51 -60 -51h-186l-55 -457q-2 -10 -3 -35
q0 -90 150 -90z" />
    <glyph glyph-name="u" unicode="u" horiz-adv-x="1103" 
d="M774 0q-52 0 -45 51l2 45q-139 -113 -321 -112q-123 0 -199 65q-74 66 -74 172q0 27 2 37l88 711q6 51 58 51h166q47 0 45 -51l-78 -643q-2 -10 -2 -41q0 -66 102 -67t234 89l79 662q6 51 56 51h172q49 0 43 -51l-115 -918q-6 -51 -55 -51h-158z" />
    <glyph glyph-name="v" unicode="v" horiz-adv-x="970" 
d="M582 0h-195q-23 0 -35 8q-6 12 -12 39l-201 922q-7 23 9 37t47 14h170q41 0 49 -51l92 -465q16 -94 16 -191q12 45 16 59t11 40q12 33 20 56t15 34l215 467q25 51 63 51h162q29 0 42 -13t1 -38l-428 -922q-10 -30 -31 -43q-12 -4 -26 -4z" />
    <glyph glyph-name="w" unicode="w" horiz-adv-x="1466" 
d="M1372 1020h139q63 0 43 -51l-374 -922q-10 -23 -23 -39q-12 -8 -35 -8h-204q-23 0 -33 10q-8 10 -13 37l-55 485q-6 55 -6 109q-25 -75 -39 -109l-203 -485q-8 -25 -20 -37q-14 -10 -37 -10h-199q-23 0 -33 10t-12 37l-135 922q-2 23 10 39q18 12 43 12h160q45 0 51 -51
l76 -537q4 -37 4 -100q0 6 35 100l217 537q20 51 62 51h163q45 0 52 -51l59 -537q6 -59 6 -98q0 20 33 98l207 537q20 51 61 51z" />
    <glyph glyph-name="x" unicode="x" horiz-adv-x="972" 
d="M909 0h-182q-35 0 -65 51l-154 279l-213 -279q-39 -51 -82 -51h-166q-25 0 -31 16q-4 16 13 35l372 473l-241 445q-27 51 33 51h182q41 0 67 -51l146 -262l194 262q39 51 82 51h170q25 0 30 -15t-13 -36l-361 -457l252 -459q10 -18 4 -37q-12 -16 -37 -16z" />
    <glyph glyph-name="y" unicode="y" horiz-adv-x="970" 
d="M868 1020h156q29 0 42 -13t1 -38l-614 -1329q-25 -51 -64 -52h-127q-63 0 -43 52l141 333l-221 996q-7 19 9 35t47 16h167q45 0 52 -51l94 -469q16 -82 16 -174q37 109 64 166l217 477q20 51 63 51z" />
    <glyph glyph-name="z" unicode="z" horiz-adv-x="913" 
d="M279 1020h620q51 0 45 -47l-14 -121q-4 -23 -17 -39l-495 -594h420q51 0 45 -49l-15 -121q-6 -49 -57 -49h-692q-51 0 -45 49l14 121q2 25 18 43l490 588h-344q-53 0 -47 49l14 121q7 49 60 49z" />
    <glyph glyph-name="braceleft" unicode="{" horiz-adv-x="921" 
d="M578 -139q0 -86 149 -86h21q49 0 43 -51l-15 -119q-6 -51 -57 -51h-12q-193 0 -304 69q-106 74 -106 205q0 14 4 59l51 396q2 10 2 32q0 84 -145 84h-2q-51 0 -45 52l12 116q6 53 59 54h3q156 -1 170 110l51 416q37 303 458 303h35q53 0 47 -51l-14 -119q-6 -51 -59 -51
h-19q-160 0 -174 -111l-53 -416q-8 -76 -43 -122t-105 -70q104 -47 105 -158v-4q-4 -12 -4 -37l-49 -397q-4 -37 -4 -53z" />
    <glyph glyph-name="bar" unicode="|" horiz-adv-x="561" 
d="M494 1378v-1757q0 -53 -48 -53h-178q-51 0 -51 53v1757q0 53 51 54h178q48 -1 48 -54z" />
    <glyph glyph-name="braceright" unicode="}" horiz-adv-x="921" 
d="M838 621h2q49 0 43 -54l-13 -116q-6 -51 -57 -52h-2q-156 0 -170 -110l-53 -432q-37 -303 -459 -303h-37q-51 0 -45 51l12 119q6 51 60 51h20q160 0 174 110l54 430q8 78 47 123q31 43 102 72q-104 39 -104 160q0 12 6 61l47 383q2 10 2 33q0 82 -150 82h-20
q-51 0 -45 51l16 119q6 51 56 51h18q193 0 298 -72t105 -202q0 -42 -2 -52l-47 -374l-4 -43q0 -86 146 -86z" />
    <glyph glyph-name="asciitilde" unicode="~" horiz-adv-x="1032" 
d="M410 535q-37 0 -45 -64q-9 -37 -21 -49q-16 -8 -37 -8h-88q-47 0 -41 57l8 98q10 94 60 136q47 45 106 45t117 -23l184 -84q66 -27 82 -27q33 0 41 64l2 10q8 45 56 45h88q49 0 43 -59l-11 -84q-12 -94 -59 -146q-47 -47 -109 -47t-124 29l-187 86q-38 21 -65 21z" />
  </font>
</defs>
</svg>
