<?xml version="1.0" standalone="no"?>
<!DOCTYPE svg PUBLIC "-//W3C//DTD SVG 1.1//EN" "http://www.w3.org/Graphics/SVG/1.1/DTD/svg11.dtd" >
<svg xmlns="http://www.w3.org/2000/svg">
<metadata>
Created by FontPrep 20130207 at Tue Dec 10 12:55:52 2013
 By Manuela Cammilleri
Copyright (c) 2009 by Eduardo Manso. All rights reserved.
</metadata>
<defs>
<font id="dcfcb36f954c8c37891a1a1889988638" horiz-adv-x='1024' >
  <font-face 
    font-family="Geogrotesque-Regular"
    font-weight="400"
    font-stretch="normal"
    units-per-em="2048"
    panose-1="2 0 5 3 0 0 0 0 0 0"
    ascent="1536"
    descent="-512"
    x-height="1012"
    cap-height="1393"
    bbox="-121 -446.031 1595.03 1454"
    underline-thickness="102"
    underline-position="-102"
    unicode-range="U+0020-007E"
  />
<missing-glyph horiz-adv-x="1024" 
 />
    <glyph glyph-name=".notdef" horiz-adv-x="1024" 
 />
    <glyph glyph-name=".null" horiz-adv-x="0" 
 />
    <glyph glyph-name="nonmarkingreturn" horiz-adv-x="681" 
 />
    <glyph glyph-name="space" unicode=" " horiz-adv-x="458" 
 />
    <glyph glyph-name="exclam" unicode="!" horiz-adv-x="520" 
d="M332 190v-159q0 -31 -29 -31h-86q-31 0 -31 31v159q0 31 31 31h86q29 0 29 -31zM229 332q-29 0 -28 30l-15 437v563q0 31 29 31h90q29 0 29 -31v-563l-15 -437q0 -31 -28 -30h-62z" />
    <glyph glyph-name="quotedbl" unicode="&#x22;" horiz-adv-x="751" 
d="M547 981h-58q-29 0 -28 31l-15 350q0 31 31 31h82q31 0 31 -31l-12 -350q0 -31 -31 -31zM262 981h-57q-31 0 -31 31l-12 350q0 31 31 31h81q29 0 29 -31l-12 -350q0 -31 -29 -31z" />
    <glyph glyph-name="numbersign" unicode="#" horiz-adv-x="1337" 
d="M549 776l-64 -223h314l63 223h-313zM199 553h168l61 223h-143q-31 0 -31 31v47q0 29 31 29h174l55 196q10 31 37 31h61q33 0 23 -31l-55 -196h311l55 196q8 31 37 31h61q33 0 23 -31l-55 -196h125q31 0 30 -29v-47q0 -31 -30 -31h-156l-61 -223h133q29 0 28 -29v-45
q0 -31 -28 -30h-164l-53 -193q-8 -33 -35 -33h-64q-31 0 -22 33l55 193h-313l-54 -193q-8 -33 -36 -33h-62q-31 0 -22 33l53 193h-137q-29 0 -29 30v45q0 29 29 29z" />
    <glyph glyph-name="dollar" unicode="$" horiz-adv-x="1083" 
d="M766 926v59q0 127 -225 127t-226 -127v-53q0 -80 105 -113l315 -102q176 -59 176 -195v-116q0 -86 -71 -152q-72 -59 -219 -76v-147q0 -31 -29 -31h-84q-31 0 -31 31v145q-158 10 -231 74q-78 63 -78 156v55q0 29 29 28h75q27 0 27 -28v-49q0 -129 240 -129q113 0 178 32
q63 37 63 97v75q0 74 -121 115l-315 105q-61 23 -111 73q-47 53 -47 125v80q0 91 70 155t221 77v145q0 31 31 31h84q29 0 29 -31v-148q143 -16 209 -78t67 -151v-59q0 -27 -29 -27h-75q-27 0 -27 27z" />
    <glyph glyph-name="percent" unicode="%" horiz-adv-x="1589" 
d="M506 0h-74q-12 0 -16 11t2 20l622 1331q16 31 43 31h70q30 0 16 -31l-620 -1331q-16 -31 -43 -31zM866 176v223q0 195 278 195t277 -195v-223q1 -195 -277 -195t-278 195zM1300 182v213q0 101 -156 101t-157 -101v-213q1 -102 157 -102t156 102zM604 993v215
q0 100 -158 100t-157 -100v-215q-1 -100 157 -100t158 100zM170 989v223q0 195 276 195t277 -195v-223q-1 -195 -277 -195t-276 195z" />
    <glyph glyph-name="ampersand" unicode="&#x26;" horiz-adv-x="1376" 
d="M643 104q324 0 324 195v377h-379q-150 0 -211 -45q-57 -49 -58 -146v-186q0 -195 324 -195zM602 797h660q31 0 30 -31v-61q0 -29 -30 -29h-154v-395q0 -135 -110 -216t-357 -81q-465 0 -465 292v226q0 94 39 151t152 86q-97 25 -137 79t-40 149v149q0 137 90 215t317 78
q226 0 316 -80t91 -217v-45q0 -29 -31 -29h-84q-29 0 -29 29v27q0 94 -57 145q-61 49 -207 49t-204 -49t-58 -145v-107q0 -100 57 -143q55 -47 211 -47z" />
    <glyph glyph-name="quotesingle" unicode="'" horiz-adv-x="464" 
d="M262 981h-57q-31 0 -31 31l-12 350q0 31 31 31h81q29 0 29 -31l-12 -350q0 -31 -29 -31z" />
    <glyph glyph-name="parenleft" unicode="(" horiz-adv-x="724" 
d="M176 -182v1368q0 264 383 264h12q31 0 31 -31v-59q0 -31 -31 -31h-12q-127 0 -182 -39q-53 -43 -53 -119v-1339q0 -76 53 -119q55 -39 182 -39h12q31 0 31 -30v-60q0 -31 -31 -30h-12q-383 0 -383 264z" />
    <glyph glyph-name="parenright" unicode=")" horiz-adv-x="724" 
d="M547 1186v-1368q0 -264 -383 -264h-10q-31 0 -31 30v60q0 31 31 30h10q127 0 184 39q53 43 53 119v1339q0 76 -53 119q-57 39 -184 39h-10q-31 0 -31 31v59q0 31 31 31h10q383 0 383 -264z" />
    <glyph glyph-name="asterisk" unicode="*" horiz-adv-x="1044" 
d="M502 717q-29 0 -29 31l8 264l-227 -148q-27 -14 -41 13l-20 36q-14 27 12 41l229 125l-229 129q-25 12 -12 39l20 41q14 25 41 10l229 -147l-10 272q0 31 29 31h45q29 0 28 -31l-12 -272l228 147q31 18 43 -10l18 -41q8 -25 -12 -39l-230 -129l230 -125q25 -14 12 -41
l-18 -39q-12 -29 -43 -10l-226 146l10 -262q0 -31 -28 -31h-45z" />
    <glyph glyph-name="plus" unicode="+" horiz-adv-x="1185" 
d="M530 293v340h-337q-31 0 -31 31v61q0 31 31 31h337v338q0 33 29 32h62q29 0 28 -32v-338h344q31 0 31 -31v-61q0 -31 -31 -31h-344v-340q0 -29 -28 -29h-62q-29 0 -29 29z" />
    <glyph glyph-name="comma" unicode="," horiz-adv-x="450" 
d="M154 66v124q0 31 28 31h88q29 0 29 -31v-131q0 -188 -207 -249q-27 -10 -37 18l-20 59q-8 27 18 39q61 25 78 58q23 29 23 82z" />
    <glyph glyph-name="hyphen" unicode="-" horiz-adv-x="933" 
d="M193 651h548q31 0 31 -28v-60q0 -31 -31 -31h-548q-31 0 -31 31v60q0 28 31 28z" />
    <glyph glyph-name="period" unicode="." horiz-adv-x="452" 
d="M299 190v-159q0 -31 -29 -31h-86q-31 0 -30 31v159q0 31 30 31h86q29 0 29 -31z" />
    <glyph glyph-name="slash" unicode="/" horiz-adv-x="755" 
d="M197 -303h-93q-31 0 -22 31l442 1673q8 31 35 31h92q33 0 23 -31l-441 -1673q-8 -31 -36 -31z" />
    <glyph glyph-name="zero" unicode="0" 
d="M831 305v782q0 97 -60 147t-216 50t-216 -50t-60 -147v-782q0 -96 60 -146t216 -50t216 50t60 146zM133 283v827q0 299 423 299t423 -299v-827q0 -299 -423 -299t-423 299z" />
    <glyph glyph-name="one" unicode="1" 
d="M653 125h324q31 0 31 -29v-65q0 -31 -31 -31h-797q-31 0 -30 31v65q0 29 30 29h328v1114l-326 -76q-31 -6 -30 25v69q-1 29 30 35l443 107q29 4 28 -27v-1247z" />
    <glyph glyph-name="two" unicode="2" 
d="M315 125h643q31 0 31 -29v-65q0 -31 -31 -31h-759q-29 0 -29 31v395q0 129 168 184l381 127q119 37 119 144v206q0 96 -60 150q-61 49 -215 49t-213 -51t-59 -148v-94q0 -33 -29 -32h-82q-31 0 -30 32v117q0 139 92 219t321 80q420 0 420 -299v-227q0 -106 -57 -170
q-61 -61 -127 -82l-348 -111q-135 -41 -136 -135v-260z" />
    <glyph glyph-name="three" unicode="3" 
d="M268 299q0 -193 277 -195q150 0 212 50t62 145v186q0 96 -57 146q-61 45 -211 45h-182q-31 0 -31 29v61q0 31 31 31h170q156 0 211 45t55 145v107q0 96 -57 145q-58 49 -204 49t-208 -49q-57 -51 -57 -145v-27q0 -29 -29 -29h-84q-29 0 -29 29v45q0 137 89 217
q88 80 314 80t320 -78q88 -78 88 -215v-149q0 -95 -38 -149t-138 -79q113 -29 152 -86t39 -151v-226q0 -292 -418 -292t-418 297v45q0 29 29 28h84q29 0 28 -28v-27z" />
    <glyph glyph-name="four" unicode="4" 
d="M793 565v797q0 31 30 31h88q29 0 29 -31v-1331q0 -31 -29 -31h-88q-31 0 -30 31v409h-666q-31 0 -31 31v59q0 14 6 33l287 799q12 31 37 31h86q33 0 23 -31l-287 -797h545z" />
    <glyph glyph-name="five" unicode="5" 
d="M215 1393h684q31 0 31 -31v-64q0 -31 -31 -30h-567v-418h221q205 0 308 -73t104 -202v-296q0 -139 -90 -219q-91 -80 -319 -78q-228 0 -314 79q-90 76 -90 218v45q0 31 30 30h82q31 0 31 -30v-25q0 -98 55 -147q58 -48 206 -48t206 48q55 49 55 147v258q0 172 -266 172
h-336q-29 0 -29 31v602q0 31 29 31z" />
    <glyph glyph-name="six" unicode="6" 
d="M831 301v211q0 94 -59 145t-213 52q-270 0 -270 -181v-227q0 -96 58 -146q58 -51 213 -51t212 52q59 49 59 145zM145 283v837q0 289 408 289t408 -289v-37q0 -31 -31 -30h-82q-29 0 -29 30v19q0 186 -265 186t-265 -186v-375q72 102 286 102q399 0 400 -299v-247
q0 -139 -92 -219q-93 -80 -323 -80t-322 80t-93 219z" />
    <glyph glyph-name="seven" unicode="7" 
d="M139 1393h840q29 0 29 -31v-62q0 -8 -7 -26l-524 -1243q-12 -31 -37 -31h-100q-35 0 -23 31l525 1237h-703q-33 0 -33 30v64q0 31 33 31z" />
    <glyph glyph-name="eight" unicode="8" 
d="M811 997v95q0 98 -53 147q-54 49 -202 49t-204 -49q-51 -51 -51 -147v-95q0 -98 51 -149q55 -49 204 -49t202 49t53 149zM825 301v182q0 97 -58 147t-212 50t-211 -49t-57 -148v-182q0 -98 57 -147q57 -50 211 -50t211 52q59 49 59 145zM158 977v133q0 141 84 220t313 79
t313 -79t84 -220v-133q0 -90 -41 -154q-41 -57 -145 -82q203 -49 203 -237v-221q0 -139 -91 -219q-90 -80 -322 -80t-324 80t-91 219v221q0 96 47 151q43 57 154 86q-102 25 -143 82q-41 64 -41 154z" />
    <glyph glyph-name="nine" unicode="9" 
d="M819 1092q0 94 -57 145q-59 51 -213 51t-212 -50t-58 -146v-211q0 -93 58 -145q57 -52 207 -52t214 47q61 47 61 139v222zM965 1110v-838q-1 -288 -407 -288t-406 288v37q0 31 28 31h84q29 0 29 -31v-18q0 -186 262 -187q150 0 207 50t57 137v373q-70 -100 -287 -101
q-397 0 -397 299v248q0 139 92 219q91 80 323 80t324 -80t91 -219z" />
    <glyph glyph-name="colon" unicode=":" horiz-adv-x="452" 
d="M299 981v-162q0 -29 -29 -28h-86q-31 0 -30 28v162q0 31 30 31h86q29 0 29 -31zM299 190v-159q0 -31 -29 -31h-86q-31 0 -30 31v159q0 31 30 31h86q29 0 29 -31z" />
    <glyph glyph-name="semicolon" unicode=";" horiz-adv-x="552" 
d="M256 66v124q0 31 31 31h84q29 0 28 -31v-131q0 -186 -204 -249q-29 -10 -39 18l-21 59q-8 27 19 39q63 31 79 58q23 31 23 82zM399 981v-162q0 -29 -28 -28h-84q-31 0 -31 28v162q0 31 31 31h84q28 0 28 -31z" />
    <glyph glyph-name="less" unicode="&#x3c;" horiz-adv-x="1103" 
d="M942 399v-82q0 -39 -31 -26l-721 325q-29 16 -28 35v92q0 16 28 33l721 326q15 6 23 -2t8 -25v-82q0 -18 -31 -32l-608 -265l608 -264q31 -14 31 -33z" />
    <glyph glyph-name="equal" unicode="=" horiz-adv-x="1204" 
d="M193 555h819q31 0 30 -29v-61q0 -29 -30 -29h-819q-31 0 -31 29v61q0 29 31 29zM193 922h819q31 0 30 -29v-62q0 -31 -30 -30h-819q-31 0 -31 30v62q0 29 31 29z" />
    <glyph glyph-name="greater" unicode="&#x3e;" horiz-adv-x="1103" 
d="M162 993v84q0 39 31 27l720 -326q29 -16 29 -35v-92q0 -20 -29 -37l-720 -325q-31 -12 -31 26v82q0 20 31 37l608 262l-608 262q-31 16 -31 35z" />
    <glyph glyph-name="question" unicode="?" horiz-adv-x="1161" 
d="M627 190v-159q0 -31 -29 -31h-88q-29 0 -29 31v159q0 31 29 31h88q29 0 29 -31zM481 362v160q0 129 135 197l144 74q102 59 102 157v137q0 94 -63 148q-67 51 -223 51t-216 -51q-66 -51 -65 -148v-94q0 -33 -29 -32h-82q-31 0 -30 32v117q0 299 425 299t429 -299v-156
q0 -182 -170 -266l-109 -53q-102 -49 -102 -146v-127q0 -31 -29 -30h-88q-29 -1 -29 30z" />
    <glyph glyph-name="at" unicode="@" horiz-adv-x="1744" 
d="M635 330q0 -129 153 -129q111 0 256 96v31l41 379q-123 104 -239 104q-162 0 -178 -160l-29 -278q0 -29 -4 -37v-6zM1249 -250h-377q-410 0 -557 111q-129 91 -129 252v807q0 128 78 206q90 98 318 131q121 21 314 21t325 -29q135 -25 209 -79t102 -114t29 -136v-582
q0 -270 -267 -270q-184 0 -229 131q-162 -131 -330 -131q-240 0 -239 217q0 35 2 45l34 346q29 262 277 262q145 0 291 -115l10 70q6 29 35 29h72q29 0 24 -29l-53 -531q-18 -186 115 -186q119 0 118 178v559q0 119 -118 185q-121 63 -431 63q-310 -1 -429 -65
q-120 -64 -119 -183v-796q0 -82 45 -129q39 -51 166 -85t337 -34h377q31 0 31 -29v-59q0 -31 -31 -31z" />
    <glyph glyph-name="A" unicode="A" horiz-adv-x="1077" 
d="M737 512l-149 479q-12 37 -51 248q-23 -152 -52 -244l-151 -483h403zM584 1393q27 0 37 -31l409 -1331q10 -31 -24 -31h-88q-29 0 -37 31l-113 364h-469l-111 -364q-8 -31 -34 -31h-82q-31 0 -23 31l408 1331q10 31 39 31h88z" />
    <glyph glyph-name="B" unicode="B" horiz-adv-x="1191" 
d="M567 1272h-237v-498h258q279 0 278 199v110q0 97 -70 143t-229 46zM623 659h-293v-538h293q299 0 299 196v152q0 190 -299 190zM623 0h-408q-29 0 -29 31v1331q0 31 29 31h352q442 0 443 -287v-135q0 -180 -185 -242q242 -51 242 -252v-182q0 -295 -444 -295z" />
    <glyph glyph-name="C" unicode="C" horiz-adv-x="1130" 
d="M1026 414v-131q0 -299 -432 -299t-432 299v827q0 299 432 299t432 -299v-104q0 -33 -29 -33h-82q-31 0 -30 33v81q0 197 -289 197t-289 -197v-782q0 -197 289 -197t289 197v109q0 31 30 30h82q29 1 29 -30z" />
    <glyph glyph-name="D" unicode="D" horiz-adv-x="1232" 
d="M627 1268h-297v-1143h297q299 0 299 197v749q0 197 -299 197zM627 0h-416q-25 0 -25 31v1331q0 31 27 31h414q444 0 444 -299v-795q0 -299 -444 -299z" />
    <glyph glyph-name="E" unicode="E" horiz-adv-x="1073" 
d="M938 0h-725q-27 0 -27 31v1331q0 31 29 31h698q31 0 31 -31v-64q0 -31 -31 -30h-583v-477h547q31 0 30 -31v-60q0 -31 -30 -30h-547v-545h608q31 0 31 -29v-65q0 -31 -31 -31z" />
    <glyph glyph-name="F" unicode="F" horiz-adv-x="1081" 
d="M215 1393h752q31 0 30 -31v-64q0 -31 -30 -30h-637v-480h600q29 0 28 -30v-66q0 -31 -28 -30h-600v-631q0 -31 -29 -31h-86q-29 0 -29 31v1331q0 31 29 31z" />
    <glyph glyph-name="G" unicode="G" horiz-adv-x="1161" 
d="M610 670h385q31 0 31 -29v-358q0 -299 -432 -299t-432 299v827q0 299 432 299t432 -299v-98q0 -29 -29 -29h-82q-31 0 -30 29v75q0 197 -289 197t-289 -197v-782q0 -197 289 -197t289 195v242h-275q-29 0 -28 30v66q-1 29 28 29z" />
    <glyph glyph-name="H" unicode="H" horiz-adv-x="1257" 
d="M330 1362v-563h596v563q0 31 28 31h88q29 0 29 -31v-1331q0 -31 -29 -31h-88q-29 0 -28 31v645h-596v-645q0 -31 -29 -31h-86q-29 0 -29 31v1331q0 31 29 31h86q29 0 29 -31z" />
    <glyph glyph-name="I" unicode="I" horiz-adv-x="516" 
d="M330 1362v-1331q0 -31 -29 -31h-86q-29 0 -29 31v1331q0 31 29 31h86q29 0 29 -31z" />
    <glyph glyph-name="J" unicode="J" horiz-adv-x="1015" 
d="M205 375v-70q0 -96 54 -146q53 -50 193 -50t191 51q55 49 55 145v1057q0 31 29 31h86q31 0 31 -31v-1079q0 -139 -86 -220q-90 -80 -305 -79q-391 0 -392 299v92q0 33 31 33h84q29 0 29 -33z" />
    <glyph glyph-name="K" unicode="K" horiz-adv-x="1124" 
d="M1069 0h-115q-25 0 -47 31l-514 610h-63v-610q0 -31 -29 -31h-86q-31 0 -31 31v1331q0 31 31 31h86q29 0 29 -31v-610h63l473 612q23 29 52 29h94q32 0 14 -31l-510 -655l567 -676q8 -7 4 -19t-18 -12z" />
    <glyph glyph-name="L" unicode="L" horiz-adv-x="1003" 
d="M332 1362v-1237h573q29 0 29 -29v-65q0 -31 -29 -31h-694q-25 0 -25 31v1331q0 31 29 31h88q29 0 29 -31z" />
    <glyph glyph-name="M" unicode="M" horiz-adv-x="1486" 
d="M1303 1362v-1331q0 -31 -31 -31h-82q-31 0 -31 31v1056q-14 -68 -41 -126l-297 -717q-12 -31 -41 -31h-75q-27 0 -39 31l-310 735q-10 23 -34 106v-1054q0 -31 -29 -31h-78q-31 0 -31 31v1331q0 31 31 31h78q20 0 26 -17l388 -905q27 -66 36 -104q6 16 39 102l379 907
q6 16 29 17h82q31 0 31 -31z" />
    <glyph glyph-name="N" unicode="N" horiz-adv-x="1255" 
d="M1069 1362v-1331q0 -31 -29 -31h-77q-20 0 -29 14l-543 963q-61 109 -69 133v-1079q0 -31 -29 -31h-78q-31 0 -31 31v1331q0 31 31 31h78q18 0 24 -13l555 -977l62 -122v1081q0 31 29 31h77q29 0 29 -31z" />
    <glyph glyph-name="O" unicode="O" horiz-adv-x="1210" 
d="M903 305v782q0 197 -298 197t-298 -197v-782q0 -197 298 -197t298 197zM162 283v827q0 299 443 299t444 -299v-827q1 -299 -443 -299t-444 299z" />
    <glyph glyph-name="P" unicode="P" horiz-adv-x="1159" 
d="M618 1268h-288v-606h288q299 0 300 198v211q-1 197 -300 197zM618 537h-288v-506q0 -31 -29 -31h-86q-29 0 -29 31v1331q0 31 27 31h405q444 0 445 -299v-256q-1 -301 -445 -301z" />
    <glyph glyph-name="Q" unicode="Q" horiz-adv-x="1208" 
d="M307 303q0 -199 298 -199t298 199v787q0 198 -298 198t-298 -198v-787zM1049 283q0 -248 -306 -289l275 -252q25 -23 4 -43l-45 -47q-20 -23 -41 -2l-363 334q-412 10 -411 299v827q0 299 443 299t444 -299v-827z" />
    <glyph glyph-name="R" unicode="R" horiz-adv-x="1208" 
d="M618 1268h-288v-578h288q299 0 300 199v182q-1 197 -300 197zM330 567v-536q0 -31 -29 -31h-86q-29 0 -29 31v1331q0 31 27 31h405q444 0 445 -299v-230q0 -223 -254 -278l266 -555q6 -15 -2 -23t-26 -8h-86q-23 0 -37 31l-254 536h-340z" />
    <glyph glyph-name="S" unicode="S" horiz-adv-x="1157" 
d="M868 1092q0 94 -63 144t-216 50t-220 -49q-63 -53 -64 -145v-62q0 -115 119 -160l385 -145q213 -80 213 -266v-176q0 -299 -438 -299t-439 299v112q0 31 29 31h84q29 0 29 -31v-94q0 -195 296 -195t296 195v127q0 72 -48 111q-39 37 -122 69l-367 142q-74 30 -126 94
t-52 151v115q0 299 424 299t424 -299v-96q0 -31 -31 -31h-84q-29 0 -29 31v78z" />
    <glyph glyph-name="T" unicode="T" horiz-adv-x="989" 
d="M68 1393h852q31 0 30 -31v-64q0 -31 -30 -30h-353v-1237q0 -31 -28 -31h-88q-31 0 -31 31v1237h-352q-31 0 -31 30v64q0 31 31 31z" />
    <glyph glyph-name="U" unicode="U" horiz-adv-x="1232" 
d="M319 1362v-1057q0 -197 298 -197t298 197v1057q0 31 29 31h86q29 0 29 -31v-1079q-1 -299 -443 -299t-442 299v1079q0 31 29 31h88q28 0 28 -31z" />
    <glyph glyph-name="V" unicode="V" horiz-adv-x="1077" 
d="M496 0q-29 0 -39 31l-408 1331q-8 31 23 31h94q27 0 35 -31l293 -961q28 -102 47 -215q33 156 49 211l295 965q8 31 35 31h86q35 0 24 -31l-409 -1331q-10 -31 -37 -31h-88z" />
    <glyph glyph-name="W" unicode="W" horiz-adv-x="1640" 
d="M1495 1393h76q31 0 22 -31l-338 -1331q-10 -31 -36 -31h-86q-27 0 -37 31l-248 979q-14 45 -27 141q-6 -35 -28 -143l-248 -977q-8 -31 -39 -31h-86q-27 0 -35 31l-338 1331q-10 31 25 31h88q25 0 35 -31l243 -963l33 -151q6 39 33 151l246 963q8 31 36 31h82
q25 0 35 -31l244 -963q27 -100 33 -161q0 39 32 161l246 963q8 31 37 31z" />
    <glyph glyph-name="X" unicode="X" horiz-adv-x="1130" 
d="M1026 0h-100q-27 0 -45 31l-326 549l-315 -549q-18 -31 -43 -31h-97q-33 0 -14 35l393 676l-383 649q-20 33 13 33h102q27 0 45 -31l315 -531l301 531q16 31 43 31h95q31 0 14 -31l-381 -655l399 -676q18 -31 -16 -31z" />
    <glyph glyph-name="Y" unicode="Y" horiz-adv-x="1058" 
d="M909 1393h86q37 0 21 -31l-412 -795v-536q0 -31 -31 -31h-86q-31 0 -30 31v520l-414 811q-14 31 20 31h99q23 0 37 -31l301 -594q12 -18 17 -36t7 -21q2 -4 2 -9l4 -12q0 16 31 78l311 594q16 31 37 31z" />
    <glyph glyph-name="Z" unicode="Z" horiz-adv-x="1030" 
d="M170 1393h715q31 0 30 -31v-64q0 -12 -6 -22l-630 -1151h639q31 0 30 -29v-65q0 -31 -30 -31h-785q-29 0 -29 31v65q0 12 5 21l628 1151h-567q-31 0 -31 30v64q0 31 31 31z" />
    <glyph glyph-name="bracketleft" unicode="[" horiz-adv-x="749" 
d="M176 -401v1802q0 31 31 31h383q29 0 28 -31v-64q0 -31 -28 -30h-266v-1614h266q29 0 28 -31v-63q0 -31 -28 -31h-383q-31 0 -31 31z" />
    <glyph glyph-name="backslash" unicode="\" horiz-adv-x="755" 
d="M104 1432h93q29 0 36 -31l441 -1673q10 -31 -23 -31h-92q-29 0 -35 31l-442 1673q-8 31 22 31z" />
    <glyph glyph-name="bracketright" unicode="]" horiz-adv-x="749" 
d="M571 1401v-1802q0 -31 -28 -31h-381q-31 0 -31 31v63q0 31 31 31h264v1614h-264q-31 0 -31 30v64q0 31 31 31h381q28 0 28 -31z" />
    <glyph glyph-name="asciicircum" unicode="^" horiz-adv-x="1140" 
d="M272 610h-82q-39 0 -26 33l325 721q16 29 33 29h92q18 0 35 -29l326 -721q12 -33 -25 -33h-84q-20 0 -32 33l-267 606l-262 -606q-12 -33 -33 -33z" />
    <glyph glyph-name="underscore" unicode="_" horiz-adv-x="886" 
d="M76 -174h735q31 0 31 -29v-61q0 -29 -31 -29h-735q-29 0 -29 29v61q0 29 29 29z" />
    <glyph glyph-name="grave" unicode="`" horiz-adv-x="677" 
d="M207 1450h90q23 0 41 -29l137 -229q18 -29 -14 -29h-70q-23 1 -37 19l-161 237q-23 31 14 31z" />
    <glyph glyph-name="a" unicode="a" horiz-adv-x="1034" 
d="M442 102q154 0 303 115v240h-325q-156 0 -156 -148v-65q0 -142 178 -142zM147 733v35q0 260 369 260t369 -260v-737q0 -31 -29 -31h-74q-29 0 -30 31l-4 73q-152 -121 -338 -120q-139 0 -209 69q-74 68 -74 172v103q0 104 69 173t197 68h352v185q0 78 -52 118t-180 39
q-128 0 -181 -39q-51 -41 -51 -114v-25q0 -33 -31 -33h-74q-29 0 -29 33z" />
    <glyph glyph-name="b" unicode="b" horiz-adv-x="1073" 
d="M793 266v479q0 154 -181 154q-158 0 -309 -117v-555q158 -115 309 -114q181 -1 181 153zM266 0h-73q-31 0 -31 31v1370q0 31 31 31h81q29 0 29 -31v-494q162 121 348 121q137 0 213 -70q70 -76 70 -192v-520q0 -117 -70 -193q-76 -70 -213 -69q-201 0 -350 122l-4 -75
q-2 -31 -31 -31z" />
    <glyph glyph-name="c" unicode="c" horiz-adv-x="980" 
d="M512 1028q373 0 373 -264v-39q0 -31 -31 -31h-76q-31 0 -30 31v31q0 72 -52 116q-59 39 -183 39t-181 -39q-51 -45 -51 -116v-498q0 -74 51 -119q57 -39 182 -39t182 39q51 45 52 119v45q0 31 30 31h76q31 0 31 -31v-55q0 -264 -375 -264q-203 0 -285 69q-86 68 -86 195
v516q0 264 373 264z" />
    <glyph glyph-name="d" unicode="d" horiz-adv-x="1073" 
d="M281 745v-479q0 -68 44 -110t136 -43q152 0 309 114v555q-152 117 -309 117q-92 0 -136 -43t-44 -111zM139 246v520q0 117 70 192q76 70 215 70q182 0 346 -121v494q0 31 29 31h82q31 0 30 -31v-1370q0 -31 -30 -31h-74q-29 0 -31 31l-4 75q-158 -123 -348 -122
q-139 0 -215 69q-70 76 -70 193z" />
    <glyph glyph-name="e" unicode="e" horiz-adv-x="1007" 
d="M279 756v-164h475v164q0 158 -238 158t-237 -158zM887 764v-252q0 -29 -29 -29h-579v-227q0 -82 53 -117q47 -41 184 -41t184 41q53 35 54 117v35q0 29 28 28h74q31 0 31 -28v-43q0 -264 -374 -264t-374 264v516q0 264 377 264q203 0 287 -68t84 -196z" />
    <glyph glyph-name="f" unicode="f" horiz-adv-x="659" 
d="M213 1008v176q0 262 383 262h12q31 0 31 -29v-61q0 -31 -31 -31h-12q-240 0 -240 -156v-161h224q31 0 30 -29v-57q0 -31 -30 -31h-224v-860q0 -31 -30 -31h-82q-31 0 -31 31v860h-127q-29 0 -29 31v49q0 27 29 30l111 7h16z" />
    <glyph glyph-name="g" unicode="g" horiz-adv-x="1073" 
d="M281 745v-479q0 -68 44 -110t136 -43q152 0 309 114v555q-152 117 -309 117q-92 0 -136 -43t-44 -111zM424 -16q-139 0 -215 69q-70 76 -70 193v520q0 117 70 192q76 70 215 70q199 0 348 -125l4 78q2 31 31 31h74q31 0 30 -31v-1139q0 -264 -383 -264h-278q-31 0 -31 29
v61q0 29 31 29h278q242 0 242 158v247q-162 -118 -346 -118z" />
    <glyph glyph-name="h" unicode="h" horiz-adv-x="1083" 
d="M303 1401v-494q145 121 348 121q139 0 211 -70t72 -182v-745q0 -31 -29 -31h-82q-31 0 -30 31v714q0 156 -181 156q-160 0 -309 -115v-755q0 -31 -29 -31h-81q-31 0 -31 31v1370q0 31 31 31h81q29 0 29 -31z" />
    <glyph glyph-name="i" unicode="i" horiz-adv-x="466" 
d="M303 1401v-191q0 -31 -29 -30h-81q-31 0 -31 30v191q0 31 31 31h81q29 0 29 -31zM303 981v-950q0 -31 -29 -31h-81q-31 0 -31 31v950q0 31 31 31h81q29 0 29 -31z" />
    <glyph glyph-name="j" unicode="j" horiz-adv-x="464" 
d="M303 981v-1139q0 -264 -381 -264h-14q-29 0 -29 29v61q0 29 29 29h14q240 0 240 158v1126q0 31 28 31h84q29 0 29 -31zM303 1401v-191q0 -31 -29 -30h-84q-29 0 -28 30v191q0 31 28 31h84q29 0 29 -31z" />
    <glyph glyph-name="k" unicode="k" horiz-adv-x="940" 
d="M907 0h-92q-25 0 -49 31l-393 483h-70v-483q0 -31 -29 -31h-84q-29 0 -28 31v1370q0 31 28 31h84q29 0 29 -31v-778h68l348 358q27 31 49 31h92q16 0 21 -8q2 -10 -7 -23l-387 -408l435 -542q10 -11 5 -21t-20 -10z" />
    <glyph glyph-name="l" unicode="l" horiz-adv-x="466" 
d="M303 1401v-1370q0 -31 -29 -31h-81q-31 0 -31 31v1370q0 31 31 31h81q29 0 29 -31z" />
    <glyph glyph-name="m" unicode="m" horiz-adv-x="1691" 
d="M193 1012h73q31 0 31 -31l2 -76q143 123 341 123t259 -139q168 139 358 139q141 0 213 -71t72 -181v-745q0 -31 -31 -31h-81q-31 0 -31 31v714q0 156 -177 156t-302 -119q2 -6 2 -37v-714q0 -31 -29 -31h-82q-31 0 -31 31v714q0 156 -172 156t-305 -115v-755
q0 -31 -29 -31h-81q-31 0 -31 31v950q0 31 31 31z" />
    <glyph glyph-name="n" unicode="n" horiz-adv-x="1083" 
d="M266 1012q29 0 31 -31l4 -78q143 125 350 125q139 0 211 -70t72 -182v-745q0 -31 -29 -31h-82q-31 0 -30 31v714q0 156 -181 156q-160 0 -309 -115v-755q0 -31 -29 -31h-81q-31 0 -31 31v950q0 31 31 31h73z" />
    <glyph glyph-name="o" unicode="o" horiz-adv-x="1050" 
d="M770 258v496q0 158 -245 158t-244 -158v-496q1 -158 245 -158t244 158zM139 248v516q0 264 386 264t386 -264v-516q0 -264 -386 -264t-386 264z" />
    <glyph glyph-name="p" unicode="p" horiz-adv-x="1073" 
d="M793 266v479q0 154 -181 154q-158 0 -309 -117v-555q158 -115 309 -114q181 -1 181 153zM266 1012q29 0 31 -31l4 -78q150 125 350 125q137 0 213 -70q70 -76 70 -192v-520q0 -117 -70 -193q-76 -70 -213 -69q-193 0 -348 118v-495q0 -29 -29 -29h-81q-31 0 -31 29v1374
q0 31 31 31h73z" />
    <glyph glyph-name="q" unicode="q" horiz-adv-x="1073" 
d="M281 745v-479q0 -68 44 -110t136 -43q152 0 309 114v555q-152 117 -309 117q-92 0 -136 -43t-44 -111zM807 1012h74q31 0 30 -31v-1374q0 -29 -30 -29h-82q-29 0 -29 29v495q-162 -119 -346 -118q-139 0 -215 69q-70 76 -70 193v520q0 117 70 192q76 70 215 70
q192 0 348 -125l4 78q2 31 31 31z" />
    <glyph glyph-name="r" unicode="r" horiz-adv-x="706" 
d="M637 1028q33 0 33 -31v-67q0 -31 -33 -31q-178 -6 -334 -137v-731q0 -31 -29 -31h-81q-31 0 -31 31v950q0 31 31 31h73q29 0 31 -31l6 -100q160 147 334 147z" />
    <glyph glyph-name="s" unicode="s" horiz-adv-x="952" 
d="M711 735v60q1 127 -225 127t-226 -127v-54q0 -78 105 -112l315 -103q176 -59 176 -194v-117q0 -102 -94 -167q-94 -64 -278 -64t-279 65q-92 66 -92 166v55q0 29 28 29h76q27 0 27 -29v-49q0 -129 239 -129q119 0 181 35q61 31 61 94v76q0 74 -121 115l-315 104
q-63 23 -111 75t-47 124v80q0 102 85 168q85 65 267 65q183 0 271 -64t88 -169v-60q0 -27 -29 -26h-76q-26 -1 -26 26z" />
    <glyph glyph-name="t" unicode="t" horiz-adv-x="710" 
d="M348 1008h230q31 0 30 -29v-57q0 -31 -30 -31h-230v-612q0 -76 53 -119q57 -39 185 -39h35q31 0 30 -31v-59q0 -31 -30 -31h-54q-199 0 -281 64t-81 200v627h-123q-29 0 -29 31v49q0 27 29 30l106 7h17v217q0 31 31 30h83q29 0 29 -30v-217z" />
    <glyph glyph-name="u" unicode="u" horiz-adv-x="1071" 
d="M150 981q0 31 28 31h84q29 0 29 -31v-715q0 -156 182 -155q158 0 295 112v758q0 31 29 31h84q29 0 28 -31v-950q0 -31 -28 -31h-76q-27 0 -31 31l-4 73q-143 -121 -336 -120q-141 0 -213 68t-71 181v748z" />
    <glyph glyph-name="v" unicode="v" horiz-adv-x="884" 
d="M485 0h-94q-20 0 -31 29l-323 952q-8 31 26 31h89q27 0 34 -31l230 -678q16 -53 28 -127q18 90 31 125l234 680q10 31 34 31h78q35 0 27 -31l-330 -952q-10 -29 -33 -29z" />
    <glyph glyph-name="w" unicode="w" horiz-adv-x="1343" 
d="M389 186q0 12 21 82l196 713q8 31 35 31h88q27 0 33 -31l184 -713l19 -80q0 16 20 80l191 713q8 31 34 31h70q35 0 25 -31l-267 -952q-10 -29 -30 -29h-99q-27 0 -32 29l-181 692q0 4 -8 39t-12 57l-25 -98l-196 -690q-10 -29 -33 -29h-94q-23 0 -33 29l-258 952
q-8 31 29 31h81q27 0 33 -31l193 -713q4 -20 8 -35l4 -32q4 -8 4 -15z" />
    <glyph glyph-name="x" unicode="x" horiz-adv-x="950" 
d="M862 0h-92q-27 0 -45 31l-264 381l-254 -381q-18 -31 -45 -31h-82q-35 0 -17 31l328 483l-317 467q-8 11 -4 21t18 10h94q23 0 45 -31l254 -369l244 369q18 31 45 31h82q12 0 20 -8q2 -10 -6 -23l-317 -471l330 -479q18 -31 -17 -31z" />
    <glyph glyph-name="y" unicode="y" horiz-adv-x="884" 
d="M414 301q24 -73 24 -93t4 -28q24 90 33 117l234 684q10 31 34 31h78q35 0 27 -31l-469 -1374q-12 -31 -35 -31h-63q-35 0 -25 31l123 385l-342 989q-8 31 26 31h84q25 0 35 -31z" />
    <glyph glyph-name="z" unicode="z" horiz-adv-x="929" 
d="M154 1012h614q31 0 31 -29v-57q0 -16 -6 -25l-523 -782h527q31 0 30 -31v-57q0 -31 -30 -31h-670q-31 0 -31 31v57q0 14 8 25l519 780h-469q-31 0 -31 31v59q0 29 31 29z" />
    <glyph glyph-name="braceleft" unicode="{" horiz-adv-x="917" 
d="M369 727v459q0 264 381 264h14q29 0 29 -31v-59q0 -31 -29 -31h-14q-127 0 -183 -39q-53 -43 -53 -119v-458q0 -164 -166 -203q166 -43 166 -205v-473q0 -76 53 -119q55 -39 183 -39h14q29 0 29 -30v-60q0 -31 -29 -30h-14q-381 0 -381 264v475q0 156 -222 156h-2
q-31 0 -30 30v60q0 31 30 30h2q222 0 222 158z" />
    <glyph glyph-name="bar" unicode="|" horiz-adv-x="516" 
d="M332 1401v-1802q0 -31 -29 -31h-88q-29 0 -29 31v1802q0 31 29 31h88q29 0 29 -31z" />
    <glyph glyph-name="braceright" unicode="}" horiz-adv-x="917" 
d="M549 1186v-459q0 -158 221 -158h2q29 0 29 -30v-60q0 -31 -29 -30h-2q-221 0 -221 -156v-475q0 -264 -383 -264h-12q-31 0 -31 30v60q0 31 31 30h12q127 0 182 39q53 43 53 119v473q0 162 168 205q-168 39 -168 203v458q0 76 -53 119q-55 39 -182 39h-12q-31 0 -31 31v59
q0 31 31 31h12q383 0 383 -264z" />
    <glyph glyph-name="asciitilde" unicode="~" horiz-adv-x="995" 
d="M319 580q-30 0 -36 -19q-10 -12 -19 -94q-2 -27 -33 -27h-43q-29 0 -26 33l4 57q6 92 47 134q37 43 87 43t112 -29l176 -92q61 -29 88 -29t41 21q12 25 12 77v17q0 27 33 26h45q31 0 27 -34l-5 -56q-16 -176 -141 -176q-53 0 -113 31l-180 92q-46 25 -76 25z" />
  </font>
</defs>
</svg>
