<?xml version="1.0" standalone="no"?>
<!DOCTYPE svg PUBLIC "-//W3C//DTD SVG 1.1//EN" "http://www.w3.org/Graphics/SVG/1.1/DTD/svg11.dtd" >
<svg xmlns="http://www.w3.org/2000/svg">
<metadata>
Created by FontPrep 20130207 at Tue Dec 10 12:56:35 2013
 By Manuela Cammilleri
Copyright (c) 2009 by Eduardo Manso. All rights reserved.
</metadata>
<defs>
<font id="f1e63d12dbb1621e4e13135ad18f363c" horiz-adv-x='1024' >
  <font-face 
    font-family="Geogrotesque-BoldItalic"
    font-weight="700"
    font-style="italic"
    font-stretch="normal"
    units-per-em="2048"
    panose-1="2 0 8 3 0 0 0 0 0 0"
    ascent="1536"
    descent="-512"
    x-height="1024"
    cap-height="1393"
    bbox="-161.316 -446.014 2034 1450"
    underline-thickness="102"
    underline-position="-102"
    unicode-range="U+0020-007E"
  />
<missing-glyph horiz-adv-x="1024" 
 />
    <glyph glyph-name=".notdef" horiz-adv-x="1024" 
 />
    <glyph glyph-name=".null" horiz-adv-x="0" 
 />
    <glyph glyph-name="nonmarkingreturn" horiz-adv-x="681" 
 />
    <glyph glyph-name="space" unicode=" " horiz-adv-x="368" 
 />
    <glyph glyph-name="exclam" unicode="!" horiz-adv-x="589" 
d="M182 0q-63 0 -53 59l21 170q10 61 67 62h221q35 -1 43 -15t6 -47l-20 -170q-4 -59 -64 -59h-221zM422 389h-158q-31 0 -43 14q-10 18 -8 48l10 348l64 532q8 61 67 62h224q35 -1 43 -15t6 -47l-64 -532l-76 -348q-10 -35 -20 -50q-16 -12 -45 -12z" />
    <glyph glyph-name="quotedbl" unicode="&#x22;" horiz-adv-x="931" 
d="M858 942h-149q-33 0 -43 15t-9 47l13 327q2 61 67 62h203q61 -1 49 -62l-65 -327q-6 -34 -20 -48t-46 -14zM455 942h-150q-31 0 -43 14q-10 18 -8 48l12 327q4 61 68 62h203q61 -1 49 -62l-66 -327q-6 -34 -20 -48t-45 -14z" />
    <glyph glyph-name="numbersign" unicode="#" horiz-adv-x="1413" 
d="M700 680l-51 -121h223l52 121h-224zM250 559h129l51 121h-61q-61 0 -56 59l15 109q6 57 67 57h127l60 144q25 61 82 61h153q59 0 35 -61l-59 -144h223l59 144q25 61 82 61h154q59 0 35 -61l-60 -144h60q33 0 45 -12t10 -45l-15 -109q-6 -59 -67 -59h-125l-51 -121h57
q63 0 55 -57l-12 -109q-10 -59 -69 -59h-123l-60 -146q-25 -61 -80 -61h-153q-61 0 -37 61l59 146h-223l-59 -146q-25 -61 -80 -61h-154q-63 0 -37 61l60 146h-64q-63 0 -53 59l12 109q9 57 68 57z" />
    <glyph glyph-name="dollar" unicode="$" horiz-adv-x="1105" 
d="M784 946q0 53 -105 53t-118 -59l-2 -10q-10 -45 37 -62l274 -102q180 -63 181 -197q0 -14 -2 -24l-15 -113q-27 -199 -280 -250l-15 -121q-6 -61 -63 -61h-211q-59 0 -53 61l14 121q-125 25 -188 87t-64 143q0 25 2 34l4 43q6 55 64 56h188q29 1 39 -13t8 -43l-2 -28v-6
q0 -59 125 -59t135 65l2 18v6q0 27 -71 58l-277 110q-57 21 -95 75t-38 102t2 59l6 57q25 219 287 266l14 119q10 61 68 62h211q35 -1 43 -15t6 -47l-16 -131q109 -37 153 -96q53 -61 53 -139q0 -16 -2 -31l-4 -29q-8 -57 -63 -57h-187q-57 0 -49 57q4 30 4 41z" />
    <glyph glyph-name="percent" unicode="%" horiz-adv-x="1867" 
d="M1526 412q0 39 -72 39t-74 -45l-20 -170v-9q0 -39 70 -39t75 48l21 170v6zM674 1161q0 39 -72 39t-74 -45l-20 -170v-8q0 -39 70 -39t75 47l21 170v6zM944 1204q0 -33 -2 -39l-24 -192q-31 -244 -359 -244q-160 0 -241 55t-80 156q0 25 2 33l24 192q28 244 348 244
q168 0 248 -55q84 -53 84 -150zM1466 659q168 0 246 -55q84 -53 84 -149q0 -33 -2 -39l-25 -193q-31 -244 -358 -243q-160 0 -241 55t-80 155q0 25 2 33l24 193q30 243 350 243zM668 0h-191q-27 0 -32 22t10 39l825 1270q39 61 96 62h193q27 -1 33 -19t-13 -43l-827 -1270
q-41 -61 -94 -61z" />
    <glyph glyph-name="ampersand" unicode="&#x26;" horiz-adv-x="1449" 
d="M477 354q0 -104 223 -104t240 133l23 192h-291q-172 0 -187 -131l-6 -59q-2 -12 -2 -31zM725 842h702q61 0 56 -58l-19 -149q-10 -59 -69 -60h-105l-28 -241q-45 -350 -596 -350q-281 0 -406 84q-123 84 -123 219l4 53l19 145q8 87 55 141t137 93q-121 47 -121 170
q0 29 2 35l19 143q18 156 131 249t367 93t362 -86t109 -219q0 -31 -2 -45l-9 -74q-10 -61 -65 -61h-211q-31 0 -45 14q-8 18 -6 47l2 25q2 14 2 30q0 102 -148 102t-164 -132l-4 -35q-2 -10 -2 -27q0 -106 156 -106z" />
    <glyph glyph-name="quotesingle" unicode="'" horiz-adv-x="528" 
d="M455 942h-150q-31 0 -43 14q-10 18 -8 48l12 327q4 61 68 62h203q61 -1 49 -62l-66 -327q-6 -34 -20 -48t-45 -14z" />
    <glyph glyph-name="parenleft" unicode="(" horiz-adv-x="733" 
d="M700 1450h64q66 0 55 -59l-18 -146q-10 -61 -70 -61h-22q-127 0 -138 -90l-145 -1184v-8q-2 -4 -2 -8q0 -74 119 -74h22q61 0 53 -62l-18 -145q-10 -59 -68 -59h-18q-204 0 -318 80t-114 221q0 6 4 43l152 1232q23 176 127 248t335 72z" />
    <glyph glyph-name="parenright" unicode=")" horiz-adv-x="733" 
d="M88 -446q-66 0 -55 59l18 145q10 61 70 62h22q127 0 138 90l145 1184v8q2 2 2 8q0 74 -119 74h-22q-61 0 -54 61l19 146q10 59 67 59h19q204 0 318 -81t114 -220q0 -6 -4 -43l-152 -1233q-23 -176 -127 -248t-335 -71h-64z" />
    <glyph glyph-name="asterisk" unicode="*" horiz-adv-x="1136" 
d="M582 528q-63 0 -52 62l52 239l-232 -139q-57 -33 -78 23l-39 98q-20 55 37 80l215 86l-192 88q-51 25 -19 80l60 94q37 57 86 23l196 -140l13 267q2 61 67 61h113q61 0 49 -61l-53 -256l215 131q53 35 78 -21l45 -98q25 -55 -35 -80l-221 -90l196 -86q51 -20 17 -80
l-60 -96q-33 -57 -86 -21l-186 129l-8 -231q-2 -61 -66 -62h-112z" />
    <glyph glyph-name="plus" unicode="+" horiz-adv-x="1128" 
d="M504 293v266h-266q-61 0 -62 59v150q0 57 62 57h266v269q0 61 57 61h150q59 0 59 -61v-269h268q61 0 62 -57v-150q0 -59 -62 -59h-268v-266q0 -61 -59 -62h-150q-57 1 -57 62z" />
    <glyph glyph-name="comma" unicode="," horiz-adv-x="600" 
d="M475 291q35 -1 43 -15t6 -47l-20 -161q-16 -137 -110 -214t-267 -114q-33 -6 -49 2q-14 10 -23 39l-32 139q-12 58 45 74q100 29 104 92l18 143q10 61 68 62h217z" />
    <glyph glyph-name="hyphen" unicode="-" horiz-adv-x="874" 
d="M223 723h547q61 0 61 -57v-150q0 -59 -61 -59h-547q-61 0 -61 59v150q0 57 61 57z" />
    <glyph glyph-name="period" unicode="." horiz-adv-x="538" 
d="M377 0h-217q-33 0 -45 12q-8 14 -6 47l20 170q6 61 68 62h217q35 -1 43 -15t6 -47l-21 -170q-10 -59 -65 -59z" />
    <glyph glyph-name="slash" unicode="/" horiz-adv-x="747" 
d="M250 -303h-236q-59 0 -39 61l588 1612q23 61 76 62h238q61 -1 41 -62l-590 -1612q-23 -61 -78 -61z" />
    <glyph glyph-name="zero" unicode="0" 
d="M872 1022q0 111 -158 111t-173 -134l-72 -575q-6 -49 -6 -51q0 -113 158 -113t174 133l73 590q0 23 4 33v6zM608 -16q-246 0 -370 90q-119 90 -119 223q0 8 4 53l86 709q18 152 143 252q127 98 375 98t369 -90t121 -223l-91 -762q-18 -150 -143 -252q-129 -98 -375 -98z
" />
    <glyph glyph-name="one" unicode="1" 
d="M1055 276q63 0 55 -57l-20 -160q-10 -59 -70 -59h-836q-63 0 -53 59l21 160q8 57 67 57h254l100 809l-260 -36q-61 -8 -55 51l21 160q6 57 69 65l545 84q25 2 40 -8t9 -49l-131 -1076h244z" />
    <glyph glyph-name="two" unicode="2" 
d="M1057 276q61 0 55 -57l-20 -160q-10 -59 -70 -59h-848q-59 0 -53 59l45 375q10 84 43 117q31 37 106 65l457 175q63 25 76 106l14 94l4 35v6q0 106 -158 106t-173 -132l-11 -74q-8 -61 -63 -62h-211q-59 0 -53 62l16 127q20 154 141 252q120 98 366 98t366 -89t120 -224
l-4 -54l-18 -139q-33 -266 -240 -340l-362 -133q-56 -23 -72 -41t-18 -61l-7 -52h572z" />
    <glyph glyph-name="three" unicode="3" 
d="M532 842h125q170 0 187 133l4 35q2 14 2 28q0 104 -150 104t-161 -132l-2 -25q-6 -61 -68 -61h-211q-55 0 -49 61l8 74q41 350 520 350q240 0 344 -86q109 -84 109 -219q0 -4 -4 -57l-17 -129q-10 -78 -51 -125t-117 -74q137 -63 138 -203q0 -8 -4 -53l-19 -144
q-43 -336 -526 -335q-246 0 -359 87t-112 222q0 27 2 41l8 74q10 61 66 61h211q31 0 45 -14q8 -25 6 -47l-2 -25q-2 -10 -2 -31q0 -49 43 -78q45 -25 116 -24q164 0 181 133l6 61q2 14 2 29q0 102 -156 102h-145q-59 0 -54 60l19 149q6 58 67 58z" />
    <glyph glyph-name="four" unicode="4" 
d="M1169 1393q35 -1 43 -15t7 -47l-156 -1270q-10 -61 -64 -61h-221q-61 0 -53 61l37 289h-604q-66 0 -56 60l19 145q4 27 18 66l291 710q29 61 82 62h221q62 -1 35 -62l-283 -704h310l86 704q8 61 67 62h221z" />
    <glyph glyph-name="five" unicode="5" 
d="M367 1393h780q63 0 55 -58l-20 -159q-10 -59 -68 -60h-500l-24 -201h100q242 0 350 -88q115 -88 115 -223q0 -6 -4 -55l-27 -217q-47 -350 -536 -350q-246 0 -360 89t-113 222q0 25 2 39l8 74q6 61 65 61h211q33 0 43 -14t9 -47l-2 -21q-2 -12 -2 -29q0 -51 43 -82
q49 -27 118 -26q166 0 183 133l12 102q4 45 4 56q0 111 -154 110h-379q-55 0 -49 62l76 620q9 62 64 62z" />
    <glyph glyph-name="six" unicode="6" 
d="M473 358q-1 -108 147 -108t164 133l9 78q2 14 2 26q-1 107 -147 107t-163 -121l-8 -74l-4 -34v-7zM737 1409q229 0 340 -88t111 -215q0 -35 -2 -47l-8 -62q-10 -61 -66 -61h-211q-61 0 -51 61q4 26 4 43q0 102 -143 102t-160 -132l-25 -195q102 45 207 45q189 0 295 -90
t107 -219q0 -10 -5 -59l-18 -158q-39 -350 -518 -350q-233 0 -347 89t-114 222q0 27 2 39l88 725q39 350 514 350z" />
    <glyph glyph-name="seven" unicode="7" 
d="M307 1393h914q63 0 55 -58l-21 -155q-4 -31 -22 -60l-610 -1059q-37 -61 -82 -61h-256q-68 0 -35 61l612 1055h-588q-66 0 -55 60l21 159q8 58 67 58z" />
    <glyph glyph-name="eight" unicode="8" 
d="M842 1038q0 104 -125 105q-70 0 -104 -32t-42 -101l-4 -33q-2 -12 -2 -29q-1 -104 127 -104t144 133l4 33q2 12 2 28zM795 475q0 105 -148 105t-164 -129l-8 -68q-2 -10 -2 -29q-1 -104 147 -104t164 133l7 53q4 37 4 39zM717 1409q249 0 354 -86q104 -90 105 -221
q0 -33 -2 -43l-17 -135q-14 -137 -166 -209q142 -65 142 -191l-23 -190q-41 -350 -514 -350q-238 0 -348 90q-113 86 -113 223q0 23 2 37l21 170q16 139 186 211q-113 63 -113 182v6l5 35l14 121q10 78 34 133q94 217 433 217z" />
    <glyph glyph-name="nine" unicode="9" 
d="M541 905q0 -106 146 -106t163 121l8 73q0 10 2 19v14q2 4 2 8q0 109 -148 109t-163 -133l-8 -78q-2 -10 -2 -27zM602 -16q-227 0 -342 86q-113 88 -113 217q0 37 3 47l8 61q10 61 65 62h211q61 0 51 -62q-4 -24 -4 -43q-1 -102 143 -102t160 133l25 195
q-102 -45 -207 -46q-190 0 -296 90t-105 220q0 6 4 59l18 158q39 350 514 350q238 0 348 -90q117 -86 117 -221q0 -27 -2 -39l-88 -725q-39 -350 -510 -350z" />
    <glyph glyph-name="colon" unicode=":" horiz-adv-x="538" 
d="M250 733q-33 0 -45 12q-8 14 -6 48l20 170q10 61 68 61h217q35 0 43 -14t6 -47l-21 -170q-10 -59 -65 -60h-217zM377 0h-217q-33 0 -45 12q-8 14 -6 47l20 170q10 61 68 62h217q35 -1 43 -15t6 -47l-21 -170q-10 -59 -65 -59z" />
    <glyph glyph-name="semicolon" unicode=";" horiz-adv-x="612" 
d="M487 291q35 -1 43 -15t7 -47l-21 -161q-16 -137 -110 -214t-267 -114q-33 -6 -49 2q-14 10 -22 39l-33 139q-12 58 45 74t80 37q22 24 24 55l19 143q10 61 67 62h217zM324 733q-33 0 -45 12q-8 14 -7 48l21 170q6 61 67 61h218q33 0 42 -14t7 -47l-21 -170
q-10 -59 -65 -60h-217z" />
    <glyph glyph-name="less" unicode="&#x3c;" horiz-adv-x="1054" 
d="M1020 461v-201q0 -33 -16 -52t-46 -7l-733 309q-25 10 -28 14q-7 2 -17 16t-10 35v236q0 41 27 53l761 322q29 12 46 -6q16 -20 16 -54v-200q0 -52 -62 -68l-471 -166l471 -164q62 -16 62 -67z" />
    <glyph glyph-name="equal" unicode="=" horiz-adv-x="1181" 
d="M205 561h854q61 0 61 -57v-150q0 -59 -61 -59h-854q-61 0 -62 59v150q1 57 62 57zM205 1004h854q61 0 61 -58v-149q0 -59 -61 -60h-854q-61 0 -62 60v149q1 58 62 58z" />
    <glyph glyph-name="greater" unicode="&#x3e;" horiz-adv-x="1054" 
d="M981 811v-236q0 -20 -9 -34q-10 -13 -16 -17t-30 -14l-733 -309q-29 -12 -46 6q-16 20 -16 53v201q0 52 62 67l471 164l-471 166q-62 16 -62 68v200q0 32 16 52t46 8l733 -309q6 -1 15 -7t13 -6q27 -13 27 -53z" />
    <glyph glyph-name="question" unicode="?" horiz-adv-x="1155" 
d="M616 0h-221q-27 0 -43 12q-12 12 -8 47l21 170q8 61 67 62h221q35 -1 43 -15t6 -47l-20 -170q-10 -59 -66 -59zM864 1040q0 45 -41 74q-43 25 -110 25q-164 0 -181 -133l-10 -74q-10 -61 -63 -62h-211q-63 0 -53 62l16 127q23 154 141 252q119 98 369 98q251 0 367 -94
t116 -225q0 -31 -2 -46l-8 -69q-14 -139 -80 -212t-162 -114l-127 -53q-49 -20 -67 -39q-16 -20 -23 -63l-6 -45q-4 -60 -63 -60h-222q-59 1 -53 60l17 133q8 74 43 112t104 68l223 106q68 35 80 109l4 29q2 14 2 34z" />
    <glyph glyph-name="at" unicode="@" horiz-adv-x="2052" 
d="M946 418q0 -56 68 -56t137 31v2l45 207q-57 51 -121 51q-84 0 -102 -96l-21 -98q-6 -25 -6 -41zM1331 -332h-340q-408 0 -606 90q-88 36 -146 94q-57 58 -79 116t-22 108t3 98l82 680q8 80 35 147q20 63 86 136q62 73 160 117t271 75t391 31q422 0 620 -90
q88 -35 146 -93q58 -59 80 -117t22 -101t-4 -105l-54 -432q-43 -354 -469 -354q-254 0 -329 125q-158 -125 -326 -125q-119 0 -180 57t-62 164q0 43 11 94l49 240q35 158 110 237q78 78 214 78t268 -94q18 48 32 65q16 12 45 13h187q63 0 47 -62l-86 -373q-16 -82 -17 -106
q0 -80 78 -80q61 0 82 43q27 45 35 123l45 373q2 10 2 41q0 115 -121 167t-399 52t-409 -33q-132 -33 -183 -86t-61 -143l-78 -648q-2 -10 -2 -43q0 -115 121 -167t434 -52h350q59 0 53 -61l-16 -139q-7 -60 -70 -60z" />
    <glyph glyph-name="A" unicode="A" horiz-adv-x="1159" 
d="M731 524l-14 111q-12 93 -12 422q-6 -12 -20 -73t-24 -98q-10 -38 -18 -65q-38 -128 -59 -186l-45 -111h192zM637 1393h221q59 0 68 -62l215 -1270q10 -61 -51 -61h-224q-55 0 -65 61l-29 197h-340l-78 -197q-23 -61 -78 -61h-210q-66 0 -37 61l524 1270q29 62 84 62z
" />
    <glyph glyph-name="B" unicode="B" horiz-adv-x="1226" 
d="M711 1126h-113l-37 -295h107q190 0 202 125l4 39q2 16 3 35q0 96 -166 96zM711 582h-181l-36 -316h174q188 0 202 119l7 51q2 10 2 31q0 53 -43 84t-125 31zM645 0h-463q-63 0 -53 61l156 1270q10 61 67 62h375q242 0 369 -82q123 -86 123 -213q0 -2 -5 -51l-12 -97
q-18 -141 -166 -219q82 -33 132 -97t51 -136v-6l-21 -168q-41 -324 -553 -324z" />
    <glyph glyph-name="C" unicode="C" horiz-adv-x="1181" 
d="M647 260q164 0 180 133l9 66q8 61 67 61h211q57 0 49 -61l-14 -125q-39 -350 -537 -350q-246 0 -360 89t-113 222l4 55l86 709q41 350 537 350q246 0 360 -89t113 -220l-4 -56l-10 -79q-8 -61 -64 -62h-211q-61 0 -53 62l4 22q4 33 4 39q1 106 -163 106t-181 -133
l-74 -587l-4 -39q0 -113 164 -113z" />
    <glyph glyph-name="D" unicode="D" horiz-adv-x="1271" 
d="M782 1116h-184l-104 -840h188q82 0 136 33t63 101l67 544q4 29 4 50q0 112 -170 112zM664 0h-490q-55 0 -45 61l156 1270q10 61 67 62h447q248 0 375 -90q125 -92 124 -228q0 -23 -6 -65l-80 -660q-18 -150 -144 -250t-404 -100z" />
    <glyph glyph-name="E" unicode="E" horiz-adv-x="1036" 
d="M903 0h-721q-63 0 -53 61l156 1270q10 61 67 62h701q63 0 55 -58l-21 -159q-10 -59 -67 -60h-422l-33 -266h389q33 0 45 -13t9 -44l-19 -150q-10 -59 -67 -59h-390l-38 -308h442q63 0 55 -57l-20 -160q-11 -59 -68 -59z" />
    <glyph glyph-name="F" unicode="F" horiz-adv-x="1052" 
d="M352 1393h748q63 0 55 -58l-20 -159q-10 -59 -68 -60h-469l-33 -266h436q33 0 45 -13t9 -44l-21 -160q-10 -59 -69 -60h-435l-63 -512q-8 -61 -64 -61h-221q-63 0 -53 61l156 1270q10 62 67 62z" />
    <glyph glyph-name="G" unicode="G" horiz-adv-x="1202" 
d="M1163 924h-211q-59 0 -51 61q4 28 4 47q0 100 -153 101q-169 0 -191 -134l-74 -589q-4 -37 -4 -41q0 -109 164 -109t180 133l11 88h-168q-63 0 -54 60l21 159q7 58 68 58h434q61 0 55 -58l-45 -366q-47 -350 -537 -350q-246 0 -360 89t-113 222q0 6 4 55l86 709
q41 350 537 350q248 0 358 -90q115 -86 115 -223l-4 -56l-6 -55q-6 -61 -66 -61z" />
    <glyph glyph-name="H" unicode="H" horiz-adv-x="1292" 
d="M1282 1393q35 -1 43 -15t6 -47l-155 -1270q-8 -61 -64 -61h-221q-63 0 -53 61l63 506h-371l-63 -506q-8 -61 -64 -61h-221q-63 0 -53 61l156 1270q10 61 67 62h221q35 -1 43 -15t7 -47l-60 -487h371l59 487q10 61 68 62h221z" />
    <glyph glyph-name="I" unicode="I" horiz-adv-x="583" 
d="M403 0h-221q-63 0 -53 61l156 1270q10 61 67 62h221q35 -1 43 -15t7 -47l-156 -1270q-8 -61 -64 -61z" />
    <glyph glyph-name="J" unicode="J" horiz-adv-x="1071" 
d="M526 260q66 0 98 31t42 102l116 938q8 61 66 62h221q57 0 51 -62l-123 -997q-15 -134 -112 -240q-120 -112 -364 -111t-353 91q-111 86 -111 221q0 18 4 55l15 119q10 61 67 61h215q56 0 50 -61l-9 -66l-2 -34l-2 -7q0 -102 131 -102z" />
    <glyph glyph-name="K" unicode="K" horiz-adv-x="1228" 
d="M1176 0h-281q-47 0 -80 61l-262 502h-25l-61 -502q-6 -61 -64 -61h-221q-63 0 -53 61l156 1270q10 61 67 62h221q35 -1 43 -15t7 -47l-64 -522h14l377 522q43 61 105 62h241q63 0 21 -62l-465 -622l360 -648q14 -21 6 -41t-42 -20z" />
    <glyph glyph-name="L" unicode="L" horiz-adv-x="964" 
d="M895 276q63 0 55 -57l-20 -160q-10 -59 -68 -59h-688q-51 0 -45 61l156 1270q10 61 67 62h221q35 -1 43 -15t7 -47l-129 -1055h401z" />
    <glyph glyph-name="M" unicode="M" horiz-adv-x="1548" 
d="M1368 0h-211q-63 0 -53 61l80 652q-53 -147 -92 -217l-117 -224q-31 -61 -88 -61h-168q-59 0 -80 61l-80 260q-14 47 -33 175l-80 -646q-8 -61 -63 -61h-201q-63 0 -53 61l156 1270q10 61 67 62h199q41 0 49 -33l201 -627q11 -31 21 -78q11 -47 14 -55l6 -29q8 23 16 39
q9 19 35 76l371 678q16 29 59 29h215q35 -1 43 -15t6 -47l-155 -1270q-10 -61 -64 -61z" />
    <glyph glyph-name="N" unicode="N" horiz-adv-x="1292" 
d="M1106 0h-193q-43 0 -55 29l-260 544q-23 51 -30 73t-12 36t-9 28t-6 19l-9 29l-86 -697q-8 -61 -63 -61h-201q-63 0 -53 61l156 1270q10 61 67 62h193q39 0 51 -25l274 -580q29 -61 54 -153l84 696q8 61 67 62h201q35 -1 43 -15t6 -47l-156 -1270q-10 -61 -63 -61z" />
    <glyph glyph-name="O" unicode="O" horiz-adv-x="1251" 
d="M934 1020q0 113 -174 113q-78 0 -133 -35q-55 -29 -66 -99l-74 -587l-4 -39q0 -113 176 -113q82 0 136 33q53 34 61 100l74 588q0 21 4 35v4zM770 1409q258 0 383 -90t125 -223q0 -4 -4 -54l-86 -708q-18 -152 -150 -251t-391 -99q-260 0 -385 90q-123 90 -123 223l4 53
l86 709q18 152 150 252q133 98 391 98z" />
    <glyph glyph-name="P" unicode="P" horiz-adv-x="1200" 
d="M932 991q0 125 -164 125h-170l-45 -366h164q186 0 203 120l10 84q2 12 2 37zM692 473h-174l-51 -412q-8 -61 -64 -61h-221q-59 0 -53 61l156 1270q10 61 67 62h430q248 -1 368 -95t120 -235q0 -14 -4 -64l-21 -188q-18 -160 -144 -249t-409 -89z" />
    <glyph glyph-name="Q" unicode="Q" horiz-adv-x="1251" 
d="M934 1020q0 113 -174 113q-78 0 -133 -35q-55 -29 -66 -99l-74 -587l-4 -39q0 -113 176 -113q82 0 136 33q53 34 61 100l74 588q0 21 4 35v4zM770 1409q258 0 383 -90t125 -223q0 -4 -4 -54l-86 -708q-31 -246 -314 -324l170 -168q45 -43 -2 -84l-124 -118
q-49 -45 -87 -5l-344 359q-176 24 -262 106t-86 197l4 53l86 709q18 152 150 252q133 98 391 98z" />
    <glyph glyph-name="R" unicode="R" horiz-adv-x="1236" 
d="M768 1116h-170l-41 -325h164q184 0 203 124l6 43q2 10 2 35q0 123 -164 123zM1075 0h-219q-12 0 -29 8q-14 18 -18 33q-4 14 -6 20l-125 453h-156l-55 -453q-6 -61 -64 -61h-221q-63 0 -53 61l156 1270q10 61 67 62h424q250 0 371 -95q125 -92 125 -235q0 -4 -4 -49
l-19 -160q-27 -217 -248 -295l138 -498q11 -29 -11 -45t-53 -16z" />
    <glyph glyph-name="S" unicode="S" horiz-adv-x="1177" 
d="M756 1409q240 0 352 -88t113 -221q0 -25 -2 -41l-9 -76q-6 -61 -67 -61h-213q-33 0 -42 15t-7 46l2 31v12q0 117 -153 117t-169 -129l-2 -21v-12q0 -55 55 -76l330 -117q100 -33 160 -108q59 -76 59 -168l-4 -51l-14 -127q-17 -150 -145 -250t-383 -100t-379 90
q-119 90 -119 225q0 14 4 51l14 121q6 61 68 61h213q57 0 49 -61l-10 -76q-2 -10 -2 -37q0 -108 170 -108t192 129l4 27q2 10 2 32q1 22 -29 48t-58 39t-72 32l-281 111q-70 27 -113 90q-47 63 -47 147l4 51l13 103q39 350 516 350z" />
    <glyph glyph-name="T" unicode="T" horiz-adv-x="1017" 
d="M248 1393h862q63 0 55 -58l-20 -159q-6 -59 -68 -60h-262l-131 -1055q-8 -61 -63 -61h-222q-63 0 -53 61l131 1055h-262q-66 0 -55 60l20 159q7 58 68 58z" />
    <glyph glyph-name="U" unicode="U" horiz-adv-x="1271" 
d="M496 375q0 -115 175 -115q79 0 133 33t62 100l117 938q8 61 66 62h221q61 0 51 -62l-123 -997q-24 -154 -150 -252t-384 -98t-386 92t-128 225q0 8 6 64l118 966q8 61 66 62h221q61 -1 51 -62l-110 -889q-6 -49 -6 -67z" />
    <glyph glyph-name="V" unicode="V" horiz-adv-x="1159" 
d="M690 0h-221q-59 0 -70 61l-215 1270q-8 61 54 62h237q53 0 64 -62l84 -573q10 -82 10 -332q0 4 7 30t25 96t40 132q22 61 26 74l225 573q27 61 80 62h226q66 0 36 -62l-526 -1270q-25 -61 -82 -61z" />
    <glyph glyph-name="W" unicode="W" horiz-adv-x="1751" 
d="M1855 1393q57 0 37 -62l-475 -1270q-20 -61 -82 -61h-215q-55 0 -61 61l-74 590q-4 37 -4 209q0 -10 -10 -43q-5 -27 -21 -82t-24 -86l-221 -588q-20 -61 -82 -61h-215q-55 0 -62 61l-164 1270q-6 61 54 62h223q57 0 63 -62l70 -573q10 -88 10 -183q8 49 60 183l215 573
q20 61 79 62h207q58 -1 64 -62l69 -571q8 -66 9 -223q16 94 63 221l213 573q20 61 80 62h194z" />
    <glyph glyph-name="X" unicode="X" horiz-adv-x="1196" 
d="M1122 0h-250q-53 0 -79 61l-166 363l-226 -363q-41 -61 -92 -61h-241q-31 0 -31 25q-6 20 14 47l443 653l-269 600q-14 27 -6 47t39 21h250q53 0 80 -62l145 -325l215 325q39 61 96 62h238q63 0 21 -62l-441 -612l297 -658q10 -20 4 -41q-12 -20 -41 -20z" />
    <glyph glyph-name="Y" unicode="Y" horiz-adv-x="1142" 
d="M1243 1393q72 0 37 -62l-475 -815l-57 -455q-10 -61 -64 -61h-221q-61 0 -53 61l51 414l-275 856q-19 60 52 62h245q50 -1 66 -62l96 -407q2 -8 8 -48t13 -71v-4q8 21 12 32q4 10 11 25q7 16 16 36t16 30l221 407q33 61 80 62h221z" />
    <glyph glyph-name="Z" unicode="Z" horiz-adv-x="1011" 
d="M317 1393h736q63 0 55 -58l-18 -143q-2 -33 -29 -74l-565 -842h456q63 0 56 -57l-21 -160q-10 -59 -67 -59h-807q-66 0 -56 59l21 160q4 25 24 55l568 842h-385q-66 0 -56 60l21 159q8 58 67 58z" />
    <glyph glyph-name="bracketleft" unicode="[" horiz-adv-x="833" 
d="M844 1432q63 0 55 -58l-20 -160q-10 -59 -68 -59h-229l-162 -1311h229q66 0 56 -59l-21 -160q-8 -57 -68 -57h-507q-64 0 -54 61l215 1741q8 61 66 62h508z" />
    <glyph glyph-name="backslash" unicode="\" horiz-adv-x="747" 
d="M451 1432q57 0 63 -62l193 -1612q6 -61 -56 -61h-225q-57 0 -61 61l-193 1612q-6 61 53 62h226z" />
    <glyph glyph-name="bracketright" unicode="]" horiz-adv-x="833" 
d="M618 -432h-507q-63 0 -56 57l21 160q6 59 67 59h230l162 1311h-230q-66 0 -55 59l20 160q8 57 68 58h508q63 -1 53 -62l-215 -1741q-8 -61 -66 -61z" />
    <glyph glyph-name="asciicircum" unicode="^" horiz-adv-x="1200" 
d="M438 543h-200q-33 0 -54 16q-18 16 -6 45l309 733q13 35 28 45t38 11h235q44 0 66 -56l309 -733q12 -29 -7 -45t-52 -16h-201q-51 0 -67 61l-166 471l-164 -471q-16 -61 -68 -61z" />
    <glyph glyph-name="underscore" unicode="_" horiz-adv-x="956" 
d="M59 -141h752q61 0 61 -58v-149q0 -59 -61 -60h-752q-61 0 -61 60v149q0 58 61 58z" />
    <glyph glyph-name="grave" unicode="`" horiz-adv-x="626" 
d="M299 1450h215q55 0 76 -61l59 -189q16 -59 -41 -59h-157q-51 0 -74 41l-117 207q-14 27 -6 45q12 16 45 16z" />
    <glyph glyph-name="a" unicode="a" horiz-adv-x="1122" 
d="M595 760q-70 0 -95 -43q0 -3 -8 -43l-41 -324q-2 -10 -2 -28q1 -58 77 -58t207 84l41 328q-109 84 -179 84zM711 61v35q-61 -43 -82 -55t-92 -37q-78 -20 -146 -20q-135 0 -207 68t-71 192q0 2 4 55l53 426q39 315 332 315q178 0 303 -106l8 29q7 33 21 47t45 14h206
q61 0 52 -61l-111 -902q-10 -61 -68 -61h-196q-51 0 -51 61z" />
    <glyph glyph-name="b" unicode="b" horiz-adv-x="1122" 
d="M797 700q0 60 -80 60t-205 -84l-41 -328q102 -84 193 -84q33 0 57 15q33 26 33 71l41 324q2 10 2 26zM356 0h-196q-57 0 -51 61l159 1309q10 61 68 62h211q59 0 49 -62l-53 -436q150 106 297 106t220 -70t73 -192q0 -4 -5 -53l-53 -426q-39 -315 -338 -315
q-178 0 -305 112l-8 -35q-10 -35 -24 -48t-44 -13z" />
    <glyph glyph-name="c" unicode="c" horiz-adv-x="1019" 
d="M643 1040q207 0 309 -76t103 -204q0 -25 -2 -43l-2 -27q-6 -59 -68 -59h-192q-51 0 -52 55v29q0 37 -26 55q-33 14 -93 14t-90 -18q-31 -23 -36 -70l-41 -331q-6 -45 -7 -54q0 -72 115 -71q67 0 97 22t36 68l2 24q6 59 66 60h194q55 0 52 -60l-4 -51q-29 -319 -474 -319
q-205 0 -310 74t-105 204q0 25 2 41l51 418q41 319 475 319z" />
    <glyph glyph-name="d" unicode="d" horiz-adv-x="1122" 
d="M582 760q-52 0 -68 -22t-22 -64l-39 -309l-4 -43q1 -58 77 -58t207 84l41 328q-109 84 -192 84zM711 61v35q-57 -41 -77 -53t-97 -39q-76 -20 -146 -20q-135 0 -207 68t-71 190q0 4 4 57l53 426q39 315 332 315q178 0 303 -106l53 436q10 61 66 62h211q57 0 51 -62
l-160 -1309q-10 -61 -68 -61h-196q-33 0 -42 14t-9 47z" />
    <glyph glyph-name="e" unicode="e" horiz-adv-x="1030" 
d="M735 723q0 76 -118 76t-130 -92l-8 -60h248l6 43q2 6 2 33zM438 299q0 -74 117 -74t129 80l2 12q10 59 68 60h176q61 0 51 -60l-2 -14q-19 -160 -119 -240q-100 -79 -318 -79t-322 74q-105 74 -105 204q0 27 2 41l51 418q41 319 471 319q199 0 299 -73q104 -70 104 -203
q0 -33 -2 -43l-26 -227q-6 -55 -64 -56h-497l-11 -88q-4 -37 -4 -51z" />
    <glyph glyph-name="f" unicode="f" horiz-adv-x="741" 
d="M856 1440q66 0 55 -60l-18 -145q-8 -61 -70 -61h-22q-137 0 -148 -91l-8 -63h146q63 0 55 -57l-19 -140q-10 -59 -67 -59h-146l-137 -1110q-10 -61 -63 -62h-211q-61 0 -53 62l137 1110h-103q-63 0 -53 59l16 125q3 31 19 44t47 16l102 12h2l13 100q39 319 493 320h33z
" />
    <glyph glyph-name="g" unicode="g" horiz-adv-x="1122" 
d="M595 760q-64 0 -84 -24t-22 -62l-36 -301l-4 -51q1 -58 77 -58t207 84l41 328q-115 84 -179 84zM391 -16q-135 0 -207 68t-71 192q0 6 4 55l53 426q20 151 98 233t244 82t303 -114l8 37q10 35 21 49q12 12 45 12h194q59 0 54 -61l-129 -1051q-41 -319 -504 -320h-293
q-61 0 -55 60l18 145q10 61 70 62h293q137 0 147 90l16 139q-54 -37 -78 -50q-24 -14 -88 -34t-143 -20z" />
    <glyph glyph-name="h" unicode="h" horiz-adv-x="1132" 
d="M795 710q0 48 -70 50q-94 0 -213 -82l-76 -617q-10 -61 -65 -61h-211q-57 0 -51 61l159 1309q10 61 68 62h211q55 -1 49 -62l-53 -432q145 102 311 102q123 0 201 -70t78 -179q0 -20 -3 -35l-83 -695q-10 -61 -68 -61h-207q-59 0 -53 61l74 611q2 14 2 38z" />
    <glyph glyph-name="i" unicode="i" horiz-adv-x="532" 
d="M510 1141h-211q-33 0 -43 13t-8 46l20 170q10 61 68 62h211q35 0 43 -14t6 -48l-21 -170q-10 -59 -65 -59zM371 0h-211q-61 0 -51 61l110 902q6 61 66 61h211q61 0 51 -61l-111 -902q-10 -61 -65 -61z" />
    <glyph glyph-name="j" unicode="j" horiz-adv-x="532" 
d="M-72 -408h-32q-66 0 -56 60l19 145q10 61 69 62h23q135 0 145 90l125 1014q8 61 66 61h211q59 0 51 -61l-129 -1051q-24 -162 -142 -241t-350 -79zM514 1141h-211q-59 0 -53 59l20 170q8 61 68 62h211q35 0 43 -14t6 -48l-20 -170q-2 -31 -16 -45t-48 -14z" />
    <glyph glyph-name="k" unicode="k" horiz-adv-x="1046" 
d="M1012 0h-228q-43 0 -77 61l-191 388h-33l-47 -388q-10 -61 -65 -61h-211q-61 0 -51 61l159 1309q10 61 68 62h211q35 0 43 -14t6 -48l-82 -676h27l243 269q59 61 103 61h233q31 0 38 -19t-15 -42l-350 -381l258 -521q14 -20 2 -41q-8 -20 -41 -20z" />
    <glyph glyph-name="l" unicode="l" horiz-adv-x="532" 
d="M371 0h-211q-61 0 -51 61l159 1309q10 61 68 62h211q35 0 43 -14t6 -48l-160 -1309q-10 -61 -65 -61z" />
    <glyph glyph-name="m" unicode="m" horiz-adv-x="1718" 
d="M1380 702q0 57 -69 58q-102 0 -203 -82v-4l-74 -613q-10 -61 -67 -61h-207q-59 0 -53 61l73 611q2 14 2 30q0 57 -69 58q-100 0 -201 -82l-76 -617q-10 -61 -65 -61h-211q-57 0 -51 61l110 904q11 59 66 59h196q31 0 41 -14t10 -45v-35q129 110 310 110q88 0 158 -36
t98 -99l35 29q37 29 57 39q20 11 73 39t176 28q124 0 199 -69q80 -68 80 -174q0 -27 -2 -41l-84 -695q-10 -61 -67 -61h-207q-59 0 -53 61l71 594l4 41v6z" />
    <glyph glyph-name="n" unicode="n" horiz-adv-x="1132" 
d="M795 702q0 33 -17 43q-12 14 -53 15q-100 0 -213 -82l-76 -617q-10 -61 -65 -61h-211q-61 0 -51 61l110 904q7 59 66 59h196q31 0 43 -12q10 -16 11 -47v-35q145 111 319 110q123 0 201 -70t78 -179l-86 -730q-10 -61 -68 -61h-207q-63 0 -53 61l72 594l4 41v6z" />
    <glyph glyph-name="o" unicode="o" horiz-adv-x="1101" 
d="M776 707q0 77 -136 77t-146 -90l-45 -362v-17q0 -75 136 -75t146 92l45 362v13zM656 1040q220 0 336 -76t116 -204q0 -25 -2 -39l-51 -418q-39 -319 -498 -319q-211 0 -326 77q-117 74 -116 207q0 23 2 35l51 418q18 155 143 237t345 82z" />
    <glyph glyph-name="p" unicode="p" horiz-adv-x="1122" 
d="M727 760q-94 0 -213 -84l-41 -328q102 -84 193 -84q56 0 84 43q4 25 6 43l37 309l4 46q0 55 -70 55zM483 1024q33 0 43 -14t11 -47v-35q162 112 307 112t218 -70t73 -192q0 -12 -5 -53l-53 -426q-39 -315 -332 -315q-176 0 -305 104l-53 -434q-10 -61 -63 -62h-211
q-61 0 -54 62l162 1309q8 61 66 61h196z" />
    <glyph glyph-name="q" unicode="q" horiz-adv-x="1122" 
d="M595 760q-64 0 -84 -24t-22 -62l-36 -303l-4 -49q1 -58 77 -58t207 84l41 328q-115 84 -179 84zM887 1024h196q59 0 54 -61l-162 -1309q-8 -61 -66 -62h-211q-59 0 -51 62l53 434q-46 -31 -74 -48q-28 -16 -94 -36t-141 -20q-135 0 -207 68t-71 192q0 6 4 55l53 426
q20 151 98 233t243 82t302 -112l8 35q11 37 23 49t43 12z" />
    <glyph glyph-name="r" unicode="r" horiz-adv-x="784" 
d="M831 1040q66 0 56 -59l-21 -160q-4 -57 -69 -61q-180 -23 -289 -113l-72 -586q-10 -61 -65 -61h-211q-61 0 -51 61l110 904q10 59 66 59h196q31 0 43 -12q10 -16 11 -47l-3 -58q133 133 299 133z" />
    <glyph glyph-name="s" unicode="s" horiz-adv-x="972" 
d="M700 762q0 53 -105 53t-118 -59q-10 -56 35 -72l274 -102q180 -63 181 -197q0 -14 -2 -25l-15 -112q-16 -117 -122 -191q-106 -73 -316 -73q-211 0 -319 69q-102 74 -103 174q0 25 2 35l4 43q6 55 64 55h188q29 0 39 -13t8 -42l-2 -29v-6q0 -59 125 -59t135 65l2 19v6
q0 27 -71 57l-277 111q-57 19 -95 73t-38 102t2 61l6 57q12 119 112 199q100 79 306 79q207 0 303 -77q98 -74 98 -183q0 -16 -2 -30l-4 -29q-8 -57 -63 -57h-187q-57 0 -49 57q4 28 4 41z" />
    <glyph glyph-name="t" unicode="t" horiz-adv-x="759" 
d="M541 329q0 -61 118 -63h50q61 0 55 -61l-19 -146q-10 -59 -67 -59h-103q-195 0 -284 61q-86 61 -86 193q0 4 4 65l53 445h-90q-57 0 -51 59l14 125q2 29 17 43q20 14 51 17l90 12h2l22 186q6 61 68 62h211q55 0 49 -62l-22 -186h165q59 0 54 -57l-17 -140q-6 -59 -69 -59
h-166l-47 -391q-2 -12 -2 -44z" />
    <glyph glyph-name="u" unicode="u" horiz-adv-x="1120" 
d="M709 59v33q-145 -109 -310 -108q-125 0 -202 69q-76 72 -76 178q0 25 2 37l86 695q8 61 67 61h207q61 0 54 -61l-74 -611q-2 -12 -2 -39t14 -39q16 -10 53 -10q90 0 203 80l76 619q8 61 65 61h211q35 0 43 -16q12 -12 9 -45l-111 -904q-10 -59 -68 -59h-196q-31 0 -41 13
t-10 46z" />
    <glyph glyph-name="v" unicode="v" horiz-adv-x="1011" 
d="M625 0h-242q-33 0 -39 10q-10 6 -16 45l-197 908q-10 33 12 45q18 16 56 16h209q33 0 43 -15t16 -46l65 -365q16 -102 17 -219q37 147 69 217l168 367q29 61 76 61h201q33 0 48 -15t3 -46l-422 -908q-4 -8 -16 -35q-20 -20 -51 -20z" />
    <glyph glyph-name="w" unicode="w" horiz-adv-x="1523" 
d="M1395 1024h170q39 0 49 -16q18 -12 4 -45l-373 -908q-16 -35 -26 -45t-41 -10h-252q-33 0 -43 14t-13 41l-34 391q-6 61 -7 113l-22 -63q-4 -20 -16 -50l-166 -391q-7 -14 -13 -27t-22 -20q-10 -8 -33 -8h-246q-33 0 -41 12q-12 12 -14 43l-133 908q-4 33 12 47t53 14
h197q55 0 61 -61l62 -455q4 -45 4 -107q0 14 37 107l184 455q25 61 74 61h199q55 0 61 -61l41 -455q6 -68 6 -107q0 18 35 107l172 455q25 61 74 61z" />
    <glyph glyph-name="x" unicode="x" horiz-adv-x="983" 
d="M932 0h-225q-43 0 -78 61l-125 232l-172 -232q-45 -61 -94 -61h-207q-33 0 -35 20q-4 20 14 41l367 467l-234 435q-14 23 -5 42t42 19h226q45 0 79 -61l117 -215l154 215q43 61 96 61h207q31 0 36 -18t-16 -43l-352 -451l244 -451q14 -20 4 -41q-12 -20 -43 -20z" />
    <glyph glyph-name="y" unicode="y" horiz-adv-x="1011" 
d="M870 1024h193q33 0 48 -15t3 -46l-604 -1309q-27 -61 -76 -62h-155q-29 0 -50 17q-14 18 -2 45l127 311l-223 998q-10 29 12 45q23 16 56 16h207q29 0 40 -15t19 -46l72 -371q16 -88 16 -199q45 133 70 189l172 381q29 61 75 61z" />
    <glyph glyph-name="z" unicode="z" horiz-adv-x="907" 
d="M274 1024h625q33 0 45 -13t8 -44l-18 -148q-2 -29 -16 -45l-441 -508h369q63 0 55 -57l-18 -150q-10 -59 -70 -59h-702q-63 0 -54 59l19 150q2 29 16 43l436 506h-286q-66 0 -56 59l19 150q8 57 69 57z" />
    <glyph glyph-name="braceleft" unicode="{" horiz-adv-x="923" 
d="M956 1450q61 0 56 -59l-19 -146q-6 -61 -69 -61h-23q-127 0 -137 -90l-49 -396q-16 -137 -129 -188q86 -49 86 -152q0 -25 -2 -36l-47 -379q-4 -41 -5 -58q0 -66 117 -65h23q59 0 53 -62l-18 -145q-10 -59 -68 -59h-14q-207 0 -321 76t-114 216q0 16 5 62l47 379
q2 10 2 26q0 63 -119 64h-2q-59 0 -53 61l16 144q6 61 70 61h2q127 0 137 90l49 397q41 319 483 320h43z" />
    <glyph glyph-name="bar" unicode="|" horiz-adv-x="583" 
d="M555 1370v-1741q0 -61 -57 -61h-222q-59 0 -59 61v1741q0 61 59 62h222q57 -1 57 -62z" />
    <glyph glyph-name="braceright" unicode="}" horiz-adv-x="923" 
d="M717 711q0 -68 119 -68h2q59 0 53 -61l-17 -144q-6 -61 -69 -61h-2q-127 0 -137 -90l-52 -414q-41 -319 -483 -319h-43q-61 0 -55 59l18 145q10 61 70 62h22q127 0 138 90l51 412q10 78 42 120t87 68q-86 45 -86 156q0 14 6 63l45 365q2 10 2 28q0 61 -119 62h-22
q-59 0 -54 61l19 146q6 59 67 59h23q203 0 313 -78q113 -74 113 -217q0 -39 -2 -49l-45 -354l-4 -35v-6z" />
    <glyph glyph-name="asciitilde" unicode="~" horiz-adv-x="1048" 
d="M428 518q-35 0 -45 -47t-24 -58q-15 -11 -44 -12h-106q-55 0 -49 70l10 115q8 90 60 136t120 46t123 -23l182 -81q57 -23 82 -23t37 45t25 55q14 10 43 11h106q59 0 51 -70l-12 -94q-12 -96 -61 -150q-51 -51 -120 -51t-132 29l-182 84q-41 18 -64 18z" />
  </font>
</defs>
</svg>
